<?xml version="1.0" standalone="no"?>
<!DOCTYPE svg PUBLIC "-//W3C//DTD SVG 20010904//EN"
 "http://www.w3.org/TR/2001/REC-SVG-20010904/DTD/svg10.dtd">
<svg version="1.0" xmlns="http://www.w3.org/2000/svg"
 width="1184.000000pt" height="1280.000000pt" viewBox="0 0 1184.000000 1280.000000"
 preserveAspectRatio="xMidYMid meet">

<g transform="translate(0.000000,1280.000000) scale(0.100000,-0.100000)"
fill="#000000" stroke="none">
<path d="M6410 12521 c0 -70 -84 -163 -230 -256 -35 -22 -74 -47 -86 -55 -76
-50 -206 -129 -249 -151 -66 -34 -145 -78 -170 -95 -11 -8 -27 -14 -36 -14
-10 0 -19 -3 -21 -7 -3 -8 -210 -113 -221 -113 -3 0 -35 -13 -70 -30 -36 -16
-72 -30 -79 -30 -8 0 -18 -3 -21 -7 -10 -9 -108 -43 -127 -43 -12 0 -15 16
-15 88 -1 89 -21 229 -37 246 -4 6 -8 18 -8 29 0 13 -6 18 -22 15 -22 -3 -23
-9 -30 -123 -8 -123 -36 -238 -68 -277 -9 -12 -27 -22 -41 -24 -66 -9 -77 -16
-96 -61 -13 -31 -12 -39 2 -70 15 -30 15 -39 1 -81 -8 -26 -17 -63 -20 -83 -4
-21 -13 -51 -22 -68 -13 -27 -21 -31 -55 -31 -33 0 -41 4 -49 25 -6 15 -15 23
-23 19 -14 -5 -67 54 -67 75 0 5 -4 12 -9 16 -13 7 -92 -75 -88 -92 1 -7 -11
-29 -28 -49 -77 -95 -105 -124 -105 -110 0 23 -12 20 -66 -16 -31 -21 -51 -43
-55 -61 -12 -43 -28 -57 -69 -57 -25 0 -50 -9 -76 -29 -48 -34 -69 -64 -84
-122 -14 -51 -56 -129 -71 -129 -5 0 -16 -15 -24 -32 -18 -43 -74 -122 -176
-249 -48 -59 -90 -122 -98 -146 -16 -49 -28 -54 -37 -18 -6 26 30 83 54 84 21
1 13 31 -10 40 -34 13 -57 -4 -80 -57 -31 -73 -67 -153 -89 -197 -10 -22 -19
-44 -19 -49 0 -5 -18 -39 -39 -77 -61 -105 -132 -268 -147 -334 -17 -78 -17
-107 0 -131 15 -19 15 -19 30 1 8 11 47 83 87 160 40 77 79 151 88 165 9 14
25 43 36 65 28 59 45 75 77 75 31 0 33 -4 17 -49 -9 -25 -17 -31 -39 -31 -26
0 -59 -21 -61 -38 -5 -41 -12 -69 -21 -79 -6 -8 -9 -16 -6 -18 10 -11 34 7 62
45 17 22 48 49 69 61 22 11 49 32 60 45 10 14 22 23 25 20 6 -7 52 58 52 75 0
30 198 340 282 440 50 61 98 123 163 214 15 22 42 54 59 70 17 17 67 75 110
130 43 55 109 129 145 165 36 36 76 79 89 95 14 19 22 24 22 13 0 -8 -7 -21
-15 -28 -8 -7 -15 -19 -15 -26 0 -8 -4 -14 -9 -14 -5 0 -12 -8 -15 -17 -4 -10
-19 -32 -34 -50 -105 -120 -130 -150 -152 -180 -75 -101 -265 -335 -311 -383
-54 -57 -117 -149 -182 -266 -20 -38 -67 -116 -103 -174 -81 -130 -80 -128
-59 -144 21 -15 55 -109 55 -154 0 -18 -7 -46 -15 -62 -8 -16 -22 -60 -30 -97
-9 -37 -29 -106 -44 -153 -16 -47 -29 -92 -30 -100 -1 -8 -5 -58 -9 -110 -4
-52 -11 -100 -14 -106 -4 -6 -10 -66 -14 -133 -5 -103 -4 -121 9 -121 24 0 35
22 42 80 11 98 16 121 25 115 12 -7 18 31 30 193 5 74 12 137 15 142 3 5 10
42 15 82 6 40 15 93 19 118 5 25 16 82 25 128 24 131 113 315 232 479 158 219
433 574 493 637 72 74 262 226 283 226 6 0 8 -14 4 -35 -5 -25 -3 -35 6 -35
12 0 76 79 135 164 73 106 245 276 281 276 6 0 12 5 12 10 0 6 6 10 13 10 7 0
22 8 33 19 11 10 40 28 65 40 129 63 180 93 185 106 4 8 10 15 15 15 5 0 32
15 61 34 29 18 64 37 78 41 40 12 150 74 222 127 37 26 72 48 77 48 5 0 11 4
13 9 2 5 35 32 73 62 65 49 99 79 200 176 52 49 155 174 155 188 0 5 7 24 16
40 9 17 19 58 21 93 5 53 3 62 -11 62 -9 0 -16 -8 -16 -19z m-2280 -1581 c-16
-27 -39 -72 -51 -100 -28 -65 -36 -58 -10 9 24 63 69 141 81 141 5 0 -4 -22
-20 -50z"/>
<path d="M6950 12159 c-214 -73 -309 -108 -368 -135 -29 -13 -61 -24 -72 -24
-10 0 -22 -4 -25 -10 -3 -5 -12 -10 -20 -10 -7 0 -42 -13 -77 -28 -35 -16 -83
-37 -108 -47 -98 -39 -312 -150 -347 -180 -21 -17 -46 -34 -55 -38 -10 -3 -18
-15 -18 -26 0 -12 -13 -24 -37 -35 -21 -9 -51 -24 -68 -34 -16 -10 -64 -33
-105 -51 -145 -66 -245 -114 -272 -133 -14 -10 -31 -18 -38 -18 -6 0 -70 -29
-143 -65 -149 -73 -184 -102 -312 -254 -67 -78 -107 -115 -164 -152 -160 -101
-299 -215 -355 -289 -25 -33 -67 -88 -93 -122 -26 -35 -77 -99 -114 -143 -142
-172 -300 -418 -345 -538 -20 -52 -43 -153 -44 -187 0 -14 -6 -43 -14 -65 -7
-22 -16 -83 -20 -135 -6 -96 -24 -208 -52 -333 -12 -54 -14 -105 -9 -250 3
-100 7 -291 9 -425 l4 -244 -31 -18 c-56 -34 -126 -112 -168 -184 -60 -106
-78 -136 -115 -191 -18 -27 -37 -62 -43 -77 -6 -16 -16 -28 -22 -28 -42 0 138
326 241 437 45 48 60 71 60 93 0 18 5 30 13 30 18 0 39 90 25 108 -6 7 -10 51
-10 98 0 61 -3 84 -11 81 -7 -2 -14 -23 -17 -48 -6 -50 -38 -119 -56 -119 -19
0 -78 -75 -188 -240 -152 -227 -172 -272 -178 -395 -3 -55 -3 -124 -1 -152 l6
-53 39 0 c37 0 40 -3 59 -46 11 -26 23 -44 26 -40 4 4 6 44 4 89 -1 48 3 94
10 112 l12 30 7 -25 c5 -14 9 -54 9 -90 2 -98 36 -321 51 -330 7 -4 10 -13 6
-19 -11 -18 34 -93 98 -162 75 -82 146 -179 173 -239 12 -25 29 -63 39 -85 19
-41 132 -158 195 -201 21 -14 58 -27 88 -31 46 -5 56 -10 77 -42 13 -20 31
-46 40 -59 15 -20 15 -27 2 -60 -12 -33 -12 -39 2 -52 9 -9 22 -43 29 -75 7
-33 16 -76 21 -95 21 -82 80 -851 80 -1050 1 -166 -30 -539 -56 -676 -23 -122
-54 -216 -102 -311 -30 -57 -81 -82 -144 -69 -35 7 -48 14 -48 26 0 39 -63 54
-150 37 -54 -10 -92 -34 -164 -101 -55 -50 -109 -86 -130 -86 -76 0 -150 -52
-207 -143 -17 -29 -45 -71 -61 -95 -17 -24 -28 -46 -25 -48 3 -3 20 3 37 13
18 10 44 24 59 32 14 8 38 24 53 37 16 12 38 26 50 30 12 3 39 19 61 35 22 16
44 29 49 29 5 0 29 14 53 30 24 17 50 30 57 30 7 0 33 14 58 30 25 16 55 30
67 30 12 0 34 10 50 23 34 28 91 52 101 43 3 -4 -15 -28 -41 -52 -26 -25 -50
-51 -54 -58 -10 -16 -182 -146 -203 -154 -8 -3 -28 -14 -44 -25 -29 -20 -77
-48 -146 -83 -19 -10 -61 -36 -92 -56 -31 -21 -59 -38 -62 -38 -10 0 -222
-151 -275 -196 -20 -17 -52 -39 -71 -49 -19 -10 -42 -23 -50 -30 -8 -7 -33
-18 -55 -25 -22 -6 -69 -24 -105 -40 -121 -51 -225 -88 -295 -105 -38 -9 -86
-24 -105 -32 -40 -17 -200 -32 -227 -21 -36 14 -99 9 -116 -10 -10 -10 -17
-22 -17 -26 0 -4 -19 -40 -41 -79 -40 -68 -83 -125 -173 -228 -23 -25 -59 -68
-81 -94 -65 -79 -185 -195 -201 -195 -4 0 -39 -24 -78 -54 -39 -29 -82 -59
-96 -66 -14 -7 -27 -16 -30 -20 -5 -6 -112 -51 -155 -65 -32 -10 2 -24 39 -15
51 12 124 43 151 63 29 22 87 57 93 57 4 0 19 11 34 25 15 14 30 25 33 25 4 0
44 26 89 59 46 32 100 67 121 77 21 10 50 29 64 42 38 35 242 132 279 132 26
0 35 6 49 34 25 49 129 153 175 177 44 23 176 69 196 69 7 0 61 18 120 41 59
23 128 49 155 59 26 10 78 22 115 26 87 9 147 43 245 139 84 82 111 100 241
169 48 26 119 67 156 91 38 25 71 45 73 45 3 0 39 21 82 47 42 27 110 65 151
85 40 21 110 69 155 108 76 65 121 91 136 76 3 -3 -21 -61 -55 -128 -33 -68
-66 -143 -72 -168 -7 -25 -17 -54 -23 -65 -13 -24 -11 -224 3 -261 22 -56 9
-81 -65 -124 -22 -13 -42 -25 -44 -27 -2 -1 15 -20 39 -42 24 -22 51 -59 60
-83 119 -298 180 -424 255 -519 30 -39 55 -77 55 -84 0 -7 17 -24 38 -39 51
-35 258 -253 326 -343 66 -88 127 -211 126 -255 0 -18 0 -64 0 -103 0 -85 -3
-100 -29 -158 -12 -25 -21 -52 -21 -59 0 -8 -5 -19 -10 -24 -6 -6 -13 -35 -15
-65 l-5 -54 14 43 c8 23 21 53 29 65 8 12 18 37 22 55 8 38 33 53 49 30 13
-18 80 -48 106 -48 26 0 39 -42 46 -148 l7 -98 -31 -24 c-17 -14 -49 -38 -72
-55 -45 -32 -56 -58 -41 -95 6 -15 10 -19 10 -9 1 9 11 29 22 44 18 22 27 26
54 21 24 -5 39 -1 56 13 13 11 22 21 19 21 -3 1 -16 4 -29 6 -37 7 -37 11 -5
45 27 28 29 37 31 107 0 42 2 85 2 95 1 11 9 17 25 17 14 0 27 4 31 9 8 13
197 71 231 71 49 0 7 -26 -73 -45 -68 -16 -85 -26 -65 -39 5 -3 30 1 57 9 54
17 105 20 105 6 0 -17 -60 -33 -122 -33 -69 0 -113 -17 -123 -48 -3 -11 -11
-20 -16 -20 -11 0 -11 -121 0 -175 5 -22 18 -85 30 -140 12 -55 37 -134 57
-175 39 -82 86 -239 85 -282 0 -16 3 -28 7 -28 19 0 42 28 48 57 6 29 3 34
-20 43 -26 9 -26 10 -26 115 0 85 -5 125 -26 197 -16 54 -24 102 -20 119 3 16
3 36 0 44 -5 12 -12 10 -37 -11 -26 -22 -32 -23 -39 -10 -14 25 -25 142 -16
167 8 20 9 21 21 5 9 -12 23 -17 47 -14 29 2 39 10 57 43 27 51 27 55 3 55
-13 0 -22 -9 -26 -25 -8 -34 -41 -34 -41 0 0 28 27 48 51 39 22 -8 135 33 155
56 14 17 21 19 52 10 20 -6 44 -19 54 -30 25 -28 59 -27 52 1 -3 12 2 45 12
73 27 74 50 218 52 316 1 47 6 90 11 97 15 19 85 -14 165 -76 84 -66 103 -91
107 -139 2 -20 7 -71 11 -112 7 -70 6 -76 -13 -85 -192 -93 -282 -146 -282
-166 0 -17 27 -9 126 36 105 48 134 54 134 30 0 -8 -7 -15 -15 -15 -21 0 -115
-42 -115 -52 0 -10 -5 -11 60 7 88 23 87 24 100 -55 10 -57 7 -150 -5 -150
-12 0 -88 38 -125 62 -29 20 -60 31 -88 33 -50 3 -53 6 -69 48 -11 31 -11 30
-11 -23 0 -30 3 -66 7 -80 11 -41 -14 -56 -99 -63 -41 -3 -88 -10 -105 -17
-50 -19 -10 -31 80 -25 l80 6 -24 -21 -23 -20 35 0 c41 0 56 -15 30 -28 -26
-14 -159 -36 -176 -29 -8 3 -27 31 -41 61 -29 60 -36 68 -36 35 0 -11 4 -18 9
-14 10 6 17 -34 25 -155 3 -41 15 -122 26 -180 11 -58 20 -133 20 -167 0 -72
13 -64 -143 -84 -99 -13 -136 -27 -123 -47 7 -12 97 -7 156 9 46 12 80 11 80
-1 0 -5 -11 -12 -25 -16 -28 -7 -34 -24 -9 -24 9 0 14 -6 12 -12 -6 -18 -324
-20 -338 -3 -5 6 -16 58 -25 116 -9 57 -20 108 -25 113 -14 14 -12 -10 15
-200 4 -29 2 -32 -31 -37 -49 -8 -62 -1 -74 41 -13 44 -31 239 -31 337 -1 59
-3 67 -13 53 -11 -15 -16 -7 -35 60 -12 42 -28 100 -36 127 -29 97 -45 201
-48 312 -2 94 -6 115 -22 133 -13 14 -22 43 -26 83 -8 86 -6 89 47 67 28 -13
46 -15 50 -9 10 17 -16 57 -41 63 l-23 6 17 48 c10 26 14 54 10 62 -4 8 -17
52 -30 97 l-22 83 -82 39 c-93 46 -100 52 -109 105 -4 21 -18 55 -31 76 -19
30 -31 38 -64 44 -35 5 -41 10 -41 30 0 14 -6 31 -14 39 -15 14 -32 81 -27
105 1 10 -4 12 -18 7 -21 -6 -69 14 -93 39 -90 96 -142 143 -186 168 -63 36
-73 50 -105 143 -14 39 -40 113 -59 165 -19 52 -40 122 -47 155 -24 110 -31
134 -41 140 -6 3 -10 -1 -10 -9 0 -11 -10 -16 -31 -16 -24 0 -30 3 -25 16 3 9
6 18 6 20 0 2 14 4 31 4 16 0 28 4 24 9 -7 13 -76 3 -95 -13 -8 -8 -34 -23
-57 -35 -42 -21 -54 -43 -33 -56 6 -4 16 -3 23 2 14 11 78 30 119 36 20 3 28
-1 32 -17 7 -28 -11 -37 -65 -30 -29 3 -49 1 -54 -5 -3 -6 -19 -11 -36 -11
-24 0 -29 -4 -29 -25 0 -30 16 -33 25 -5 9 29 80 25 118 -7 16 -13 36 -23 46
-23 10 0 23 -11 29 -25 11 -23 10 -25 -16 -25 -15 0 -37 -3 -49 -6 -17 -5 -30
2 -52 25 -31 33 -43 39 -40 19 3 -15 -21 -68 -31 -68 -4 0 -13 11 -20 25 -7
14 -19 25 -27 25 -9 0 -13 13 -13 40 0 22 4 40 10 40 5 0 7 7 4 15 -4 8 -13
15 -21 15 -12 0 -14 -8 -11 -32 3 -18 -1 -62 -8 -98 -8 -35 -11 -73 -8 -83 3
-10 -1 -28 -9 -40 -14 -23 -32 -97 -23 -97 3 0 12 16 20 35 24 56 48 42 38
-22 l-5 -33 55 5 c31 2 68 9 82 15 15 5 38 10 52 10 19 0 24 5 24 24 0 14 5
28 12 32 25 16 -32 22 -96 11 -70 -12 -89 -6 -64 19 18 18 73 34 140 41 39 4
47 9 52 29 12 45 31 23 60 -69 50 -155 106 -273 151 -312 20 -17 169 -227 217
-306 52 -83 123 -160 208 -222 114 -85 175 -171 215 -304 19 -62 19 -62 -7
-72 -16 -6 -26 -4 -34 7 -9 13 -13 13 -35 -1 -13 -9 -46 -21 -74 -28 -59 -14
-89 -35 -35 -24 70 13 130 17 130 7 0 -17 -27 -33 -71 -40 -24 -4 -43 -12 -41
-17 2 -6 13 -8 25 -6 12 2 36 4 52 5 l30 1 12 -100 c22 -187 25 -252 13 -233
-13 22 -48 23 -87 4 -38 -20 -138 -40 -152 -32 -6 4 -11 27 -11 52 0 24 -6 88
-14 142 -8 53 -16 122 -18 152 l-3 55 70 34 c39 18 101 39 140 45 54 10 71 16
74 31 3 16 -2 17 -60 11 -35 -4 -100 -11 -144 -15 -44 -5 -90 -12 -102 -16
-34 -11 -31 28 3 44 25 11 26 12 9 31 -14 15 -17 31 -13 74 l5 55 -30 -17
c-16 -9 -50 -40 -77 -68 -37 -39 -53 -67 -69 -119 -12 -37 -21 -73 -21 -80 0
-16 -48 -131 -68 -163 l-15 -23 -31 29 c-17 17 -50 39 -74 51 -43 22 -123 118
-138 164 -15 48 -77 110 -142 139 -63 29 -64 30 -58 61 17 81 86 460 96 527
10 72 20 127 39 218 10 51 2 59 -41 38 -30 -15 -32 -15 -54 9 -13 14 -30 25
-39 25 -8 0 -20 11 -27 25 -13 29 -28 24 -28 -11 0 -15 -6 -24 -15 -24 -12 0
-15 -14 -15 -66 0 -75 16 -83 38 -18 7 21 17 43 22 48 10 10 70 -2 70 -14 0
-18 -61 -79 -82 -82 -14 -2 -24 -16 -33 -43 -24 -71 -48 -208 -50 -275 -1 -66
-40 -300 -54 -329 -4 -9 -13 -43 -20 -76 -6 -33 -18 -89 -26 -125 -8 -36 -17
-108 -20 -160 -8 -120 -19 -238 -34 -365 -12 -99 -17 -140 -46 -363 -9 -62
-22 -132 -30 -155 -8 -23 -15 -57 -15 -75 0 -20 -6 -35 -15 -38 -25 -10 -8
-21 41 -29 25 -3 56 -9 67 -11 76 -17 133 -26 217 -34 95 -10 180 -22 275 -41
152 -30 1088 -79 1125 -59 10 5 21 6 25 2 3 -4 169 -10 368 -13 199 -4 463
-12 587 -19 124 -7 277 -12 340 -12 218 1 555 13 605 22 28 5 102 14 165 19
113 10 174 17 335 41 44 6 96 13 115 15 50 4 101 14 214 41 54 13 114 24 132
24 31 0 91 10 184 32 53 13 109 23 205 38 39 6 74 16 80 21 5 5 27 9 49 9 21
0 62 6 90 14 28 8 85 22 126 31 90 21 139 34 162 46 10 5 27 9 38 9 11 0 20 4
20 8 0 4 9 8 20 9 11 1 48 9 82 19 35 9 77 19 93 21 17 2 39 8 50 13 42 17 84
30 195 59 127 34 264 75 325 98 22 9 72 26 112 39 40 12 82 29 95 36 13 7 25
13 28 14 3 0 14 4 25 8 166 65 311 131 321 148 5 8 1 9 -12 4 -10 -4 -53 -19
-94 -33 -85 -28 -167 -62 -255 -104 -33 -15 -94 -39 -135 -53 -87 -29 -90 -28
-115 56 -20 67 -31 85 -60 92 -13 3 -48 20 -77 38 -29 17 -78 39 -108 48 l-55
16 2 45 3 44 -15 -32 c-16 -35 -34 -40 -81 -23 -40 16 -57 -5 -48 -58 6 -41
17 -52 29 -32 12 20 23 9 27 -27 3 -21 8 -46 13 -57 7 -16 5 -17 -16 -10 -13
4 -35 8 -48 9 -13 1 -27 8 -31 16 -4 8 -10 178 -14 379 -9 504 -12 531 -56
514 -8 -3 -40 -8 -70 -11 -41 -4 -52 -3 -44 6 6 6 41 14 78 18 36 3 70 11 74
17 11 18 11 36 0 36 -6 0 -5 7 3 16 12 15 9 16 -41 9 -30 -4 -63 -12 -73 -17
-11 -5 -67 -16 -125 -24 -125 -16 -162 -25 -162 -39 0 -10 30 -10 113 1 26 3
58 3 71 0 21 -5 23 -12 24 -63 0 -32 12 -114 26 -183 14 -69 32 -165 40 -215
8 -49 22 -128 30 -175 9 -47 16 -125 16 -175 0 -68 20 -307 31 -383 4 -23 -6
-31 -52 -42 -28 -7 -73 -21 -100 -30 -27 -10 -51 -15 -54 -10 -2 4 -9 63 -14
131 -14 182 -14 182 -135 240 -56 27 -114 49 -131 49 -51 1 -62 13 -47 54 13
35 10 56 -8 56 -5 0 -10 -15 -12 -32 -4 -47 -46 -51 -89 -9 -43 44 -36 66 23
66 25 0 44 3 41 8 -7 11 -80 47 -96 47 -8 0 -22 9 -32 20 -10 11 -24 20 -30
20 -7 0 -29 13 -49 29 -40 32 -98 55 -119 48 -6 -2 6 -13 28 -24 40 -21 148
-133 173 -180 8 -14 18 -51 22 -82 20 -134 42 -236 65 -307 14 -42 25 -84 25
-92 0 -9 21 -35 46 -59 52 -48 53 -73 5 -73 -16 0 -33 -4 -36 -10 -3 -5 -17
-10 -31 -10 -14 0 -33 -4 -43 -10 -10 -5 -49 -14 -87 -19 -38 -6 -102 -16
-143 -22 -63 -10 -76 -10 -79 2 -13 40 -241 213 -259 195 -3 -3 7 -20 22 -38
50 -61 134 -182 129 -189 -2 -4 -20 -10 -40 -13 -27 -6 -44 -2 -70 13 -42 25
-44 25 -44 6 0 -8 5 -15 10 -15 21 0 9 -18 -17 -24 -76 -19 -126 -28 -209 -41
-50 -7 -100 -18 -111 -24 -11 -5 -23 -8 -26 -5 -3 3 -45 1 -94 -6 -249 -34
-228 -37 -340 41 -39 27 -74 49 -77 49 -16 0 -2 -22 39 -65 25 -25 43 -50 40
-55 -3 -5 -20 -12 -38 -14 -39 -7 -309 -18 -461 -20 l-108 -1 -12 35 c-9 28
-16 35 -36 33 -129 -9 -136 -8 -169 20 -27 22 -42 27 -86 27 -74 0 -85 6 -85
46 0 73 63 122 169 130 36 3 112 6 168 8 79 2 107 6 121 19 11 11 35 17 62 17
41 0 42 -1 24 -15 -18 -13 -16 -14 22 -15 23 0 47 6 53 14 6 7 30 16 54 19 23
4 62 11 87 16 25 6 76 10 113 11 53 0 69 4 74 16 5 14 -1 63 -34 279 -4 25 0
33 19 42 32 15 191 53 220 53 15 0 53 22 94 55 38 30 83 61 99 68 17 8 36 21
44 30 7 10 19 17 26 17 7 0 23 9 36 20 19 16 21 21 10 29 -7 5 -11 13 -7 19 7
12 -7 9 -109 -20 -38 -11 -83 -27 -99 -35 -16 -9 -73 -24 -125 -34 -53 -11
-111 -26 -129 -34 -18 -8 -54 -15 -80 -15 -62 0 -116 -16 -147 -43 -23 -21
-114 -185 -129 -234 -13 -40 11 -25 58 36 70 90 124 143 143 139 32 -6 71
-206 43 -223 -13 -8 -173 -45 -245 -56 -33 -5 -93 -17 -133 -25 -50 -11 -77
-13 -84 -6 -19 19 -37 225 -24 283 6 27 4 40 -8 52 -9 8 -16 20 -16 25 0 6
-22 18 -49 27 -47 15 -53 15 -101 -2 -29 -10 -53 -25 -56 -36 -7 -23 -28 -17
-32 9 -2 10 -14 30 -26 44 -51 57 -54 68 -101 355 -8 50 -15 104 -15 120 0 17
-7 42 -14 57 -14 26 -13 29 6 39 31 17 219 31 235 18 16 -14 7 -30 -12 -22 -8
3 -15 0 -15 -6 0 -6 9 -11 20 -11 18 0 20 -4 15 -32 -3 -18 -1 -80 5 -138 6
-58 15 -152 20 -210 12 -129 17 -153 33 -147 14 5 14 70 -2 142 -6 28 -13 120
-17 205 l-7 156 50 12 c42 11 56 11 84 -1 43 -18 60 -64 89 -236 12 -69 24
-129 27 -134 3 -5 7 -39 8 -75 5 -107 8 -121 14 -62 6 53 7 55 36 56 81 4 148
19 235 52 105 40 149 68 294 189 54 46 104 83 111 83 7 0 12 -14 13 -32 0 -17
8 -38 17 -47 16 -15 16 -12 11 39 -4 30 -12 84 -18 118 -12 62 -11 64 12 82
14 11 66 33 115 50 107 36 132 49 220 115 36 28 114 86 173 129 59 44 117 89
130 100 26 23 130 157 149 190 14 25 59 193 79 291 19 95 41 158 80 235 19 36
41 101 51 145 29 136 20 460 -14 529 -8 15 -15 54 -15 85 0 36 -6 62 -16 74
-14 15 -14 17 1 17 9 0 18 -4 21 -9 19 -30 122 -94 173 -108 32 -8 110 -43
173 -77 63 -35 132 -66 152 -70 34 -6 87 -42 148 -101 31 -29 71 -45 113 -45
18 0 45 -7 61 -15 15 -8 49 -15 75 -15 74 0 217 -27 258 -49 21 -11 58 -25 83
-32 25 -7 52 -18 60 -25 9 -7 38 -23 65 -34 28 -12 77 -34 110 -49 164 -78
324 -148 355 -157 14 -4 42 -21 63 -37 32 -26 48 -32 105 -35 37 -2 71 -8 77
-13 16 -16 42 -10 48 11 5 18 14 20 76 20 60 0 83 -6 162 -40 51 -22 98 -40
105 -40 8 0 28 -9 46 -20 18 -11 39 -20 46 -20 7 0 66 -25 130 -56 64 -31 128
-60 142 -66 14 -6 32 -14 40 -19 8 -4 67 -34 130 -66 63 -31 134 -72 157 -90
23 -18 46 -33 51 -33 5 0 15 -6 21 -14 7 -8 31 -23 54 -34 23 -11 61 -38 84
-60 38 -36 42 -43 36 -75 -3 -20 -16 -46 -29 -58 -13 -12 -24 -28 -24 -34 0
-15 -109 -130 -116 -122 -3 3 -26 -17 -52 -44 -25 -27 -51 -49 -59 -49 -7 0
-22 -8 -34 -18 -12 -9 -41 -33 -64 -52 -23 -19 -56 -43 -74 -52 -17 -9 -31
-24 -31 -33 0 -14 3 -14 32 1 18 9 38 23 46 30 7 8 17 14 21 14 5 0 29 20 54
44 25 24 48 42 50 40 2 -2 12 5 22 16 10 11 23 20 29 20 6 0 44 32 84 70 40
39 77 70 82 70 6 0 10 5 10 11 0 6 11 20 25 31 33 26 88 142 80 169 -4 11 -23
31 -43 44 -20 13 -62 45 -92 70 -30 25 -95 72 -145 104 -49 33 -95 63 -100 68
-11 8 -55 34 -98 56 -12 7 -36 21 -52 32 -28 19 -87 50 -145 74 -14 6 -38 19
-55 29 -16 10 -42 22 -58 26 -15 3 -52 18 -82 31 -29 14 -59 25 -64 25 -6 0
-19 4 -29 9 -37 20 -91 40 -177 66 -49 15 -100 32 -113 38 -16 7 -44 7 -100
-1 -42 -7 -106 -12 -143 -12 -62 0 -74 4 -247 90 -100 50 -186 90 -192 90 -6
0 -37 13 -70 29 -32 16 -69 32 -82 36 -12 4 -55 23 -95 41 -40 19 -77 34 -83
34 -7 0 -44 16 -83 35 -65 32 -78 35 -161 35 -88 0 -93 1 -155 40 -36 21 -79
42 -95 46 -17 3 -42 12 -56 19 -45 24 -264 122 -350 158 -33 13 -114 63 -170
106 -14 10 -54 38 -90 61 -36 23 -88 60 -116 81 -27 21 -66 45 -86 54 -20 8
-39 18 -42 23 -2 4 -6 104 -7 222 -2 118 -6 260 -11 315 -4 55 -6 119 -3 142
6 40 8 43 83 81 103 52 137 97 230 302 16 36 33 76 37 90 21 71 113 273 127
278 4 2 8 10 8 18 0 8 4 14 9 14 9 0 104 197 144 300 23 58 45 140 107 395 26
106 30 160 34 420 2 177 6 227 19 255 l16 35 -7 -65 c-8 -77 -7 -173 3 -289
10 -104 -11 -266 -50 -406 -34 -122 -64 -244 -70 -290 -7 -52 -24 -99 -81
-225 -19 -42 -34 -85 -34 -96 0 -11 -4 -24 -9 -30 -16 -16 11 -79 36 -82 26
-4 43 20 98 138 20 41 49 101 65 132 35 65 38 113 10 147 -17 20 -22 22 -37
10 -14 -13 -16 -11 -11 11 3 14 22 77 43 140 20 63 43 142 50 175 7 33 18 72
23 86 6 14 18 71 27 127 14 85 15 112 5 169 -6 38 -12 127 -11 198 0 121 2
138 37 250 20 66 50 172 66 235 l30 115 0 348 c0 305 -2 351 -17 373 -9 13
-20 22 -25 19 -5 -3 -16 9 -25 26 -22 41 -37 26 -33 -32 2 -36 7 -44 23 -44
11 0 21 -8 23 -17 3 -14 -3 -18 -22 -18 -26 0 -26 -1 -26 -74 0 -88 5 -106 32
-106 11 0 18 -5 15 -12 -2 -7 -11 -12 -20 -12 -23 2 -30 -29 -22 -95 6 -47 9
-52 16 -33 5 13 15 22 21 20 9 -3 13 -29 13 -84 0 -71 -2 -80 -21 -88 -24 -11
-34 -74 -34 -226 0 -87 -16 -256 -26 -272 -14 -23 -19 7 -12 69 5 37 11 282
14 543 3 261 6 502 7 535 0 33 0 117 -2 187 -2 128 25 324 52 373 6 11 14 45
18 75 4 30 24 125 43 210 43 187 53 242 62 340 3 41 8 78 9 81 7 10 -16 313
-30 399 -7 47 -19 121 -25 165 -16 108 -36 163 -76 205 -18 19 -49 71 -69 115
-19 44 -42 91 -50 105 -8 14 -28 54 -45 90 -17 36 -46 93 -63 127 l-32 62 -8
-32 c-5 -18 -13 -37 -18 -43 -5 -6 -6 -34 -2 -62 7 -60 -5 -71 -59 -53 -66 23
-78 41 -89 141 -13 115 -34 217 -49 235 -6 8 -55 35 -108 62 -80 39 -106 47
-146 46 -57 -3 -61 -5 -48 -30 5 -10 15 -29 22 -43 11 -21 100 -107 226 -218
38 -34 74 -95 74 -127 0 -36 67 -101 119 -115 70 -19 103 -64 159 -220 110
-304 110 -304 165 -369 30 -35 54 -76 66 -115 24 -73 45 -260 38 -336 -5 -59
-33 -140 -48 -140 -5 0 -9 42 -8 93 0 52 -6 125 -16 167 -9 41 -20 99 -25 129
-17 101 -60 219 -60 166 0 -11 9 -74 20 -140 39 -233 22 -637 -31 -754 -19
-41 -21 -64 -20 -226 1 -149 -3 -206 -24 -330 -29 -174 -31 -256 -14 -685 12
-309 6 -422 -36 -610 -33 -153 -41 -261 -29 -394 9 -102 1 -127 -51 -164 -39
-27 -45 -36 -45 -68 0 -43 16 -42 45 4 11 17 23 31 28 32 4 0 7 -29 7 -65 0
-61 -8 -95 -60 -255 -12 -36 -27 -90 -34 -121 -7 -31 -26 -76 -43 -100 -32
-48 -64 -105 -138 -244 -27 -49 -56 -102 -66 -116 -24 -35 -82 -201 -128 -365
-14 -51 -41 -88 -175 -239 l-107 -120 -72 -1 c-105 -1 -274 -24 -332 -44 -27
-10 -77 -21 -110 -25 -33 -4 -89 -17 -125 -30 -65 -22 -158 -37 -315 -51 -149
-14 -165 -9 -165 46 0 22 -4 40 -10 40 -13 0 -13 57 -1 112 10 44 33 179 51
303 25 162 13 349 -26 426 -16 31 -78 45 -132 30 -40 -12 -141 -61 -147 -72
-10 -15 15 -20 53 -10 51 14 107 -2 143 -42 32 -35 37 -70 15 -114 -19 -37
-49 -140 -52 -178 -2 -16 -7 -50 -13 -75 -5 -25 -12 -89 -16 -144 -6 -79 -12
-103 -27 -118 -17 -17 -18 -22 -7 -29 8 -5 20 -9 28 -9 8 0 23 -7 33 -17 24
-21 23 -6 -2 34 -18 30 -18 33 -2 65 13 26 16 57 15 147 -2 111 6 150 32 147
6 0 12 27 15 61 5 65 24 101 36 70 3 -10 3 -34 0 -55 -12 -66 -24 -194 -31
-312 -3 -63 -11 -131 -17 -151 -8 -30 -7 -43 6 -69 33 -67 18 -74 -124 -63
l-95 8 -6 60 c-4 33 -12 101 -19 150 -14 107 -7 177 23 227 76 126 87 150 87
184 0 19 -5 45 -12 57 -20 35 -37 90 -32 99 3 4 0 8 -5 8 -19 0 -12 -90 9
-125 22 -36 16 -70 -19 -110 -10 -11 -26 -41 -36 -67 -20 -54 -32 -60 -40 -20
-3 15 -10 47 -15 72 -16 75 -40 255 -40 298 0 42 2 45 53 83 48 37 33 47 -38
24 -18 -6 -22 0 -33 57 -7 35 -20 83 -29 108 -8 25 -23 79 -33 120 -24 102
-43 185 -44 187 -1 1 -31 -5 -68 -12 -62 -13 -148 -57 -230 -118 -32 -24 -37
-47 -9 -47 16 0 20 -11 26 -75 4 -41 11 -75 16 -75 5 0 9 -11 9 -25 0 -14 4
-25 9 -25 12 0 23 29 15 41 -10 17 19 77 44 89 14 6 27 8 30 5 3 -3 7 -30 10
-60 4 -54 4 -54 -47 -105 -52 -51 -107 -90 -128 -90 -16 0 -29 53 -42 175 -6
55 -18 129 -27 165 -8 36 -24 101 -34 145 -43 181 -94 538 -84 584 12 55 48
149 91 238 43 90 44 94 49 215 2 68 7 136 9 151 3 16 -5 54 -16 85 -11 31 -27
111 -35 177 -7 66 -20 156 -29 200 -8 44 -15 95 -15 113 l0 32 53 0 c30 0 57
3 61 7 11 12 99 31 114 26 7 -3 23 -1 35 5 52 26 168 54 235 56 50 2 78 8 90
20 10 9 34 16 53 16 20 0 58 6 85 14 27 8 66 17 87 21 23 4 37 11 34 18 -4 14
-19 13 -170 -10 -96 -14 -109 -14 -125 0 -13 12 -28 13 -67 7 -27 -5 -66 -9
-85 -9 -32 0 -33 1 -15 12 12 7 62 12 120 13 106 1 172 13 245 46 55 25 143
47 188 48 23 0 50 14 96 49 34 27 81 58 104 70 22 11 44 26 48 33 12 19 43
-142 50 -257 7 -115 27 -158 39 -84 4 24 13 69 21 99 18 68 18 80 -1 80 -8 0
-17 14 -21 36 -8 41 2 241 15 324 5 30 14 96 21 145 6 50 18 117 27 150 26
100 28 202 6 265 -17 49 -25 58 -74 86 -31 17 -71 34 -90 38 -84 19 -266 23
-440 12 -153 -10 -192 -5 -182 22 4 9 11 20 17 24 18 13 -14 9 -99 -11 -44
-10 -118 -24 -165 -30 -47 -6 -101 -16 -120 -21 -123 -31 -220 -63 -264 -86
-150 -77 -307 -241 -397 -413 -20 -39 -22 -54 -18 -160 9 -249 -5 -432 -43
-581 -10 -41 -27 -136 -37 -210 -11 -74 -24 -155 -29 -180 -6 -25 -9 -56 -7
-70 2 -14 4 -56 4 -95 1 -38 5 -65 9 -60 23 28 62 202 62 278 0 45 34 244 60
347 32 130 43 201 32 212 -21 21 -15 208 7 270 11 29 22 72 26 96 10 63 73
149 187 257 120 113 166 140 318 188 204 64 494 75 585 21 29 -16 73 -28 138
-37 53 -8 102 -18 109 -24 35 -29 127 -43 227 -37 90 6 101 5 101 -9 0 -13 -9
-17 -34 -17 -33 0 -136 -19 -146 -27 -12 -10 26 -20 47 -12 14 5 49 9 80 9 50
0 55 -2 50 -20 -3 -11 -1 -20 4 -20 11 0 12 -39 2 -41 -33 -6 -57 -9 -115 -18
-74 -10 -88 -16 -88 -36 0 -8 -12 -21 -27 -29 -27 -14 -32 -12 -113 31 -47 25
-119 56 -160 70 -73 24 -80 25 -270 18 -124 -4 -215 -12 -250 -22 -30 -8 -72
-20 -93 -26 -21 -6 -60 -24 -86 -41 -57 -37 -231 -185 -231 -197 0 -4 -36 -40
-81 -79 -55 -49 -87 -70 -100 -67 -10 3 -25 -3 -35 -14 -21 -23 -58 -196 -38
-176 11 11 43 110 44 133 0 18 17 34 36 34 11 0 2 -63 -14 -102 -11 -24 -23
-61 -27 -83 -5 -22 -9 -44 -11 -50 -5 -17 -53 -234 -79 -350 -13 -60 -27 -118
-30 -127 -4 -9 -4 -22 0 -29 13 -20 42 42 54 111 14 85 52 209 74 243 9 14 17
36 17 47 0 11 10 34 22 51 12 16 25 50 28 76 5 46 30 74 30 34 0 -29 21 -26
65 9 21 17 43 30 49 30 25 0 86 22 86 30 0 16 -113 11 -134 -5 -22 -17 -64
-19 -85 -6 -22 14 -5 41 25 41 36 0 93 61 93 98 -1 40 16 99 35 117 9 9 16 20
16 24 0 20 122 130 177 159 75 39 166 72 203 72 14 0 30 4 36 9 18 17 106 29
229 30 98 2 126 -1 138 -13 8 -9 41 -18 74 -22 82 -8 145 -30 182 -63 43 -38
105 -48 171 -26 27 9 64 15 82 13 31 -3 33 -5 32 -43 0 -29 -11 -56 -37 -95
-20 -30 -37 -61 -37 -68 0 -7 -5 -23 -12 -35 -6 -12 -13 -37 -14 -55 -5 -51
-48 -118 -84 -131 -17 -5 -43 -19 -57 -31 -14 -11 -39 -20 -54 -20 -28 0 -99
-16 -205 -46 -29 -8 -94 -19 -145 -24 -130 -13 -210 -26 -239 -39 -14 -6 -83
-20 -155 -31 -192 -31 -237 -49 -217 -86 6 -11 13 -27 16 -37 5 -16 8 -17 21
-4 8 9 32 21 52 27 21 7 45 18 53 25 26 21 143 48 200 45 30 -1 102 -2 159 -1
94 1 129 -6 69 -15 -57 -8 -211 -23 -291 -29 -48 -4 -85 -11 -81 -16 3 -5 15
-9 28 -9 52 0 32 -15 -35 -27 -96 -16 -159 -40 -159 -61 0 -9 7 -55 15 -102
30 -172 54 -440 57 -615 0 -63 -24 -192 -44 -230 -8 -17 -21 -43 -29 -60 -18
-36 -44 -43 -58 -17 -6 11 -12 58 -13 106 -1 47 -6 86 -10 86 -23 0 -31 -50
-25 -165 7 -158 -4 -189 -87 -229 -31 -15 -56 -31 -56 -35 0 -4 -19 -13 -42
-20 -76 -23 -88 -30 -88 -52 0 -20 0 -20 24 -1 17 13 43 19 87 21 35 1 66 4
71 7 16 10 8 22 -12 17 -11 -3 -20 0 -20 6 0 13 77 54 84 43 2 -4 -2 -43 -9
-87 -7 -44 -16 -107 -20 -140 -4 -33 -13 -74 -20 -91 -12 -29 -16 -31 -67 -33
-30 -1 -85 -8 -121 -15 -107 -23 -139 -14 -199 56 l-51 58 -22 -20 c-11 -11
-42 -26 -68 -34 -26 -8 -70 -28 -97 -46 -82 -52 -123 -12 -65 64 l25 33 -20
119 c-27 155 -40 366 -31 497 7 106 0 218 -18 292 -6 22 -15 65 -21 95 -9 50
-15 58 -56 85 -44 29 -45 31 -40 75 3 25 12 124 21 220 9 96 32 270 51 385 19
116 38 266 44 335 15 182 38 298 84 421 58 155 126 371 142 451 20 93 20 80
-21 438 -17 150 -18 242 -5 292 11 39 15 42 183 153 37 25 92 65 121 89 56 46
158 98 266 136 36 13 71 28 78 33 6 5 63 13 125 18 61 4 130 11 151 15 l39 7
-21 -21 c-27 -27 -27 -34 -3 -63 18 -22 19 -23 92 -9 40 8 83 14 94 13 79 -2
79 -5 1 -29 -44 -13 -81 -26 -84 -29 -3 -3 14 -5 37 -5 50 0 154 25 185 45 11
7 63 25 114 39 52 15 130 40 175 56 44 17 89 30 99 30 29 0 148 39 216 71 67
31 135 42 96 15 -11 -8 -38 -19 -61 -25 -39 -11 -61 -26 -51 -36 6 -6 120 26
136 38 7 6 47 25 90 44 115 50 282 64 423 36 38 -7 33 -20 -19 -48 -23 -12
-59 -37 -80 -56 -21 -19 -64 -52 -96 -74 -31 -22 -107 -78 -169 -125 -62 -47
-134 -101 -160 -120 -31 -23 -46 -41 -43 -52 2 -9 -2 -25 -9 -35 -10 -14 -10
-19 0 -28 7 -6 16 -62 23 -145 18 -205 30 -224 31 -48 1 151 5 178 25 178 18
0 125 81 178 134 25 26 79 91 119 144 84 113 136 170 164 183 27 12 59 32 66
41 3 5 66 13 140 20 74 6 136 14 139 17 3 3 15 14 27 24 20 18 23 18 55 1 54
-28 151 -96 174 -122 12 -14 42 -64 67 -112 l45 -87 -132 -7 c-161 -8 -243
-26 -272 -59 -32 -37 -48 -138 -39 -249 4 -51 13 -106 21 -122 8 -16 14 -34
14 -41 0 -6 21 -21 46 -33 37 -18 61 -23 117 -21 47 1 72 -2 75 -9 2 -7 24
-12 51 -12 27 0 62 -5 80 -11 17 -6 43 -8 56 -5 33 8 33 36 1 36 -41 0 -79 19
-72 35 4 12 -6 15 -57 15 -77 0 -108 15 -53 26 57 10 175 -4 222 -26 46 -23
78 -81 89 -165 4 -27 14 -77 22 -110 8 -33 17 -72 20 -87 3 -16 9 -28 13 -28
4 0 1 35 -6 78 -7 42 -18 106 -24 142 -30 184 -44 211 -117 225 -45 8 -77 37
-60 54 6 6 14 37 18 68 3 32 10 79 14 106 4 26 3 47 -2 47 -8 0 -53 -188 -53
-223 0 -20 -39 -24 -58 -5 -6 6 -41 19 -76 28 -61 16 -198 93 -232 131 -14 15
-14 22 1 70 24 83 23 82 117 84 46 1 115 5 154 10 70 7 73 7 117 -24 26 -18
58 -31 76 -31 23 0 38 -11 74 -52 65 -79 81 -110 152 -294 35 -93 85 -218 110
-279 64 -150 74 -210 86 -484 12 -309 21 -352 49 -258 7 23 16 55 21 71 5 16
9 68 9 116 0 70 -4 92 -19 111 -13 17 -20 50 -25 110 -8 100 -47 297 -70 351
-9 20 -32 106 -51 190 -20 84 -43 184 -52 223 -28 116 -69 170 -259 341 -68
62 -81 79 -95 125 -10 35 -22 55 -33 57 -21 4 -79 63 -111 112 -51 79 -172
166 -285 204 -39 13 -74 26 -77 30 -4 3 -19 6 -35 6 -16 0 -45 7 -65 15 -19 8
-44 15 -54 15 -20 0 -137 38 -154 49 -5 4 -35 16 -67 26 l-56 19 -124 -33
c-96 -25 -155 -49 -266 -107 -121 -63 -150 -74 -192 -74 -27 0 -73 -9 -102
-21 -29 -12 -80 -30 -112 -40 -33 -11 -64 -23 -70 -28 -6 -5 -40 -18 -76 -29
-60 -19 -263 -117 -324 -158 -30 -19 -164 -47 -185 -39 -11 4 -3 17 28 45 24
22 47 40 51 40 16 0 233 122 281 159 29 22 64 43 78 46 14 4 40 17 58 31 17
13 35 24 39 24 4 0 33 19 63 43 48 37 110 75 231 142 14 8 46 20 72 27 45 11
46 13 31 30 -15 17 -14 18 13 19 47 1 85 6 146 18 48 10 60 17 72 43 10 20 12
36 7 47 -5 9 -9 23 -8 31 0 8 -3 35 -8 59 l-8 44 -166 -8 c-91 -4 -174 -7
-183 -6 -46 4 -67 2 -123 -7 -103 -18 -261 -83 -347 -143 -14 -11 -35 -19 -46
-19 -11 0 -39 -7 -63 -16 -24 -8 -62 -19 -84 -24 -22 -5 -80 -18 -130 -29 -95
-21 -112 -26 -160 -46 -33 -14 -135 -29 -298 -45 -86 -8 -119 -15 -158 -36
-26 -15 -47 -30 -44 -33 2 -4 36 -8 77 -9 40 -1 88 -7 106 -13 18 -6 48 -8 65
-5 18 3 72 6 122 7 91 2 174 16 210 37 11 6 49 18 84 26 38 9 69 23 77 34 18
27 146 101 186 109 18 3 78 28 133 54 119 57 143 64 193 53 l37 -7 -40 -9
c-22 -4 -56 -11 -77 -14 -21 -4 -38 -13 -41 -23 -2 -9 -28 -24 -58 -35 -30
-10 -61 -24 -69 -31 -8 -7 -34 -21 -57 -30 -23 -9 -44 -23 -47 -30 -3 -8 -28
-26 -55 -40 -28 -13 -74 -44 -103 -68 -73 -59 -308 -168 -414 -192 -16 -4 -42
-13 -59 -20 -16 -7 -91 -21 -165 -30 -185 -22 -218 -39 -391 -202 -92 -88
-177 -157 -267 -217 -163 -109 -220 -168 -261 -275 -17 -44 -53 -128 -81 -187
-27 -59 -50 -111 -50 -117 0 -5 18 11 41 37 22 25 46 46 53 46 7 0 21 9 31 20
10 11 25 20 33 20 18 0 14 -17 -27 -130 -18 -46 -41 -125 -52 -175 -25 -111
-57 -201 -76 -216 -23 -20 -83 -115 -83 -132 0 -8 -9 -36 -20 -61 -11 -27 -15
-48 -9 -51 5 -4 12 2 16 12 51 144 132 253 189 253 18 0 35 -4 38 -8 3 -5 12
-55 22 -113 15 -96 61 -292 78 -330 5 -12 1 -18 -16 -23 -23 -6 -22 -7 13 -39
89 -79 118 -189 138 -518 9 -140 6 -169 -14 -169 -22 0 -38 30 -41 77 -3 48
-14 63 -51 63 -41 0 -128 -22 -164 -42 -31 -17 -45 -19 -126 -11 -50 5 -103 5
-118 2 -22 -7 -29 -3 -45 23 -46 75 -49 160 -38 823 7 391 9 409 87 737 45
192 52 213 96 280 25 40 98 154 160 253 154 244 143 230 298 374 132 123 231
191 317 216 14 4 53 23 88 44 51 29 71 48 100 96 42 70 131 168 184 201 20 13
81 47 135 75 54 28 105 57 113 64 36 31 392 212 481 245 109 41 272 57 409 41
117 -13 150 -27 289 -120 46 -31 100 -67 120 -80 20 -13 49 -35 65 -48 26 -22
35 -24 95 -18 36 3 77 8 91 11 l25 6 -25 13 c-14 8 -37 14 -52 15 -24 0 -28 4
-28 29 0 17 5 33 10 36 6 3 10 21 10 40 0 45 27 96 68 128 19 14 42 41 51 59
10 18 28 37 39 43 26 11 29 30 6 39 -29 11 -114 6 -151 -9 -85 -36 -103 -13
-56 74 19 36 41 73 49 82 8 8 14 19 14 24 0 10 127 202 140 210 5 3 26 32 47
63 20 31 41 63 46 70 18 24 -46 11 -193 -39z m-170 -1007 c0 -14 -98 -33 -190
-37 l-85 -5 50 15 c28 8 66 15 85 15 19 0 42 5 50 10 18 12 90 13 90 2z m1
-59 c6 -42 6 -61 0 -72 -10 -16 -87 -34 -112 -26 -11 4 -58 -1 -104 -10 -47
-10 -96 -15 -109 -13 -20 4 -25 0 -29 -22 -12 -56 -71 -89 -317 -177 -133 -47
-319 -133 -385 -179 -51 -34 -273 -147 -390 -198 -305 -132 -335 -148 -424
-227 -47 -42 -98 -91 -113 -109 -48 -56 -75 -30 -77 75 -1 63 18 95 101 168
101 89 169 126 257 138 79 11 131 26 131 39 0 4 -10 6 -22 4 -64 -9 -109 -12
-104 -7 5 6 31 12 141 33 98 18 439 173 521 236 130 99 513 277 629 291 28 3
59 12 71 20 33 21 332 53 335 36z m-1296 -262 c17 -7 15 -9 -15 -19 -40 -12
-148 -27 -140 -19 7 7 112 45 125 45 6 1 19 -3 30 -7z m1882 -93 c10 -10 57
-25 103 -34 49 -10 94 -24 106 -35 11 -11 24 -19 30 -19 27 -2 114 -103 100
-117 -23 -24 -368 14 -391 43 -14 18 -111 44 -161 44 -50 0 -197 -47 -300 -95
-39 -19 -84 -37 -100 -41 -16 -4 -61 -22 -100 -40 -38 -18 -82 -36 -97 -39
-24 -6 -27 -4 -27 19 0 15 6 34 13 43 36 47 93 93 135 108 26 10 49 21 52 25
3 3 32 15 65 25 70 21 190 77 214 99 28 26 90 35 217 33 99 -2 125 -5 141 -19z
m-884 -158 c36 0 35 -20 -5 -54 -37 -30 -145 -96 -159 -96 -5 0 -33 -11 -62
-25 -28 -14 -86 -34 -127 -45 -41 -11 -110 -31 -153 -45 -43 -14 -79 -25 -81
-25 -2 0 -2 9 1 20 4 14 0 20 -11 20 -29 0 -17 29 22 55 39 26 247 114 342
146 30 10 80 27 110 38 30 12 64 19 75 16 11 -3 32 -5 48 -5z m1147 -80 c0 -5
-10 -10 -22 -10 -19 0 -20 2 -8 10 19 13 30 13 30 0z m-1445 -197 c-21 -14
-55 -18 -55 -5 0 11 52 30 64 24 5 -3 1 -11 -9 -19z m-1508 -214 c-9 -73 -46
-119 -96 -119 -21 0 -40 3 -43 6 -12 11 24 92 56 128 23 25 42 36 61 36 27 0
28 -1 22 -51z m-288 -146 c-1 -16 -18 -47 -18 -36 -1 7 -8 10 -18 6 -16 -5
-15 -3 2 15 21 21 36 28 34 15z m213 -49 c-11 -61 7 -276 38 -455 15 -81 12
-207 -5 -263 -8 -27 -15 -70 -14 -95 1 -44 2 -42 20 34 28 117 37 398 16 485
-8 36 -19 107 -22 157 l-7 93 27 10 c14 5 38 10 52 10 21 0 24 -4 20 -20 -3
-12 3 -67 13 -123 25 -144 44 -374 37 -460 -15 -203 -51 -362 -111 -491 -18
-39 -45 -110 -60 -159 -27 -84 -28 -93 -22 -235 3 -81 9 -177 12 -214 6 -72
-7 -92 -27 -41 -12 31 -36 266 -49 468 -12 192 -27 315 -52 414 -21 81 -21 86
-5 146 18 66 23 165 9 165 -5 0 -7 -24 -4 -53 4 -46 1 -57 -20 -80 l-24 -26
-22 22 c-21 20 -23 20 -39 4 -16 -16 -16 -22 -1 -99 10 -46 22 -135 28 -198
23 -258 28 -334 23 -343 -8 -12 -31 23 -43 65 -6 21 -22 50 -35 64 -14 15 -25
38 -25 51 0 13 -8 45 -19 71 -17 43 -38 137 -74 332 -17 87 -14 99 57 238 64
126 96 199 96 216 0 28 51 181 78 231 14 27 40 64 57 81 28 28 37 31 66 25 26
-6 33 -12 31 -27z m-289 -63 c-3 -10 0 -22 5 -25 12 -7 -28 -89 -43 -88 -18 2
-17 48 2 91 18 41 46 58 36 22z m65 -39 c-5 -52 -40 -130 -59 -132 -8 0 3 46
25 110 9 25 19 53 22 63 12 33 17 16 12 -41z m-47 -178 c11 -6 -3 -55 -15 -51
-10 3 -36 -53 -36 -82 0 -8 -6 -22 -14 -30 -7 -9 -28 -50 -46 -91 -19 -41 -42
-84 -52 -96 -10 -11 -18 -26 -18 -32 0 -7 -5 -12 -11 -12 -7 0 -8 7 -4 18 4 9
23 62 42 117 33 95 44 130 62 200 15 60 29 76 59 69 15 -4 30 -8 33 -10z
m1724 -649 c-28 -10 -85 -23 -85 -19 0 8 45 23 70 23 14 -1 21 -2 15 -4z
m-1798 -919 c-4 -10 2 -16 21 -18 41 -5 107 -109 121 -190 32 -187 41 -483 20
-623 -6 -39 -11 -199 -11 -363 l1 -294 -27 8 c-40 12 -115 11 -119 -2 -3 -10
32 -20 107 -28 38 -5 37 -5 44 -22 3 -9 15 -86 26 -172 28 -226 34 -251 64
-276 32 -26 69 -113 61 -143 -5 -22 -35 -33 -35 -13 0 6 -7 10 -15 10 -20 0
-19 34 1 54 8 9 12 16 7 16 -20 -1 -33 -18 -38 -52 -5 -30 0 -43 31 -84 21
-27 64 -87 96 -134 32 -47 83 -114 113 -150 30 -35 80 -108 111 -162 53 -93
122 -179 208 -257 22 -20 44 -41 50 -46 6 -6 40 -33 76 -60 36 -27 91 -68 122
-92 31 -24 83 -55 115 -70 80 -35 155 -83 287 -184 120 -91 231 -169 241 -169
4 0 19 -9 34 -19 51 -37 143 -80 192 -90 26 -6 79 -26 117 -46 l69 -35 174 -1
c133 -1 166 -3 139 -11 -30 -8 -32 -11 -16 -20 34 -19 243 -7 351 21 92 23
193 41 232 41 40 0 55 4 128 36 17 7 51 18 75 23 57 13 177 77 193 102 11 18
46 27 48 12 0 -5 2 -205 4 -445 l4 -438 25 -42 c14 -24 61 -76 105 -115 57
-53 88 -90 110 -135 30 -59 31 -66 31 -192 -1 -176 -23 -266 -119 -476 -33
-74 -61 -138 -61 -142 0 -5 -9 -27 -19 -51 -23 -49 -68 -172 -101 -275 -23
-71 -27 -77 -142 -187 -158 -151 -234 -205 -413 -292 -90 -44 -178 -60 -394
-72 -212 -11 -635 16 -691 44 -14 7 -52 18 -85 25 -149 30 -358 103 -585 205
-52 24 -120 53 -150 65 -139 55 -414 226 -498 309 -26 26 -61 67 -79 91 -17
25 -73 90 -123 145 -50 55 -104 125 -120 155 -39 77 -77 126 -172 225 -125
130 -164 195 -216 355 -62 192 -67 232 -31 302 32 62 102 151 154 194 67 55
88 95 164 324 37 111 38 118 51 300 6 85 15 184 20 220 29 199 32 308 21 733
-14 537 -38 764 -114 1077 -8 30 -13 65 -12 78 1 19 -3 22 -39 22 -25 0 -74
14 -122 34 -43 18 -94 37 -111 40 -17 4 -36 13 -42 20 -10 11 -71 132 -204
406 -26 52 -67 122 -92 155 -90 118 -132 233 -142 385 -4 75 -2 93 22 160 35
96 87 198 119 237 45 53 71 58 181 33 57 -13 106 -31 123 -44 15 -12 39 -30
54 -39 15 -9 32 -25 37 -35 5 -10 17 -84 26 -164 9 -81 20 -161 26 -180 5 -18
12 -121 15 -228 6 -190 5 -196 -18 -240 -17 -33 -34 -50 -65 -64 -45 -20 -53
-35 -28 -56 12 -10 25 -10 61 -1 48 12 102 7 145 -15 27 -13 99 -88 99 -103 0
-4 -15 -23 -32 -42 -32 -33 -35 -34 -103 -32 -126 5 -128 -31 -2 -43 37 -4 70
-11 73 -16 10 -16 86 113 101 171 14 53 11 128 -7 176 -4 11 -26 38 -49 60
-50 48 -56 73 -42 172 20 139 20 141 41 146 11 3 20 10 20 15 0 5 -33 35 -74
65 l-74 56 -6 108 c-4 59 -9 134 -12 166 l-6 59 66 64 c36 36 66 69 66 74 0 6
5 10 11 10 6 0 9 -6 6 -14z m305 -847 c23 -32 38 -158 39 -339 0 -80 4 -167 9
-195 25 -152 31 -200 35 -305 3 -63 8 -133 12 -155 6 -36 5 -136 -2 -143 -10
-11 -55 14 -64 36 -15 40 -40 214 -56 382 -21 225 -33 719 -18 743 8 12 25 3
45 -24z m920 -1156 c9 -54 31 -167 48 -252 17 -84 29 -164 26 -177 -8 -29 -63
-94 -81 -94 -15 0 -17 14 -36 220 -16 175 -17 212 -7 290 18 141 27 144 50 13z
m-411 -52 c6 -14 16 -33 23 -41 16 -20 43 -112 52 -177 8 -64 -19 -128 -74
-173 l-36 -30 -14 26 c-11 20 -12 48 -8 108 6 73 -12 217 -30 235 -2 3 -19 0
-37 -7 -17 -6 -57 -14 -87 -18 -67 -8 -72 -11 -65 -34 5 -17 2 -18 -29 -13
-28 4 -36 1 -45 -16 -17 -30 6 -36 81 -21 86 17 109 26 102 45 -4 9 -1 15 7
15 22 0 35 -13 42 -41 9 -34 -6 -46 -70 -58 -27 -6 -73 -19 -103 -31 -91 -36
-94 -33 -101 95 -3 61 -3 113 1 118 3 4 14 -1 24 -12 16 -18 21 -18 56 -6 22
8 52 24 69 36 21 15 50 23 107 28 103 8 123 4 135 -28z m268 25 c-11 -9 -69
-15 -64 -6 3 6 20 10 37 10 17 0 29 -2 27 -4z m-19 -60 c0 -13 -21 -19 -152
-43 -17 -3 -28 -1 -28 6 0 13 0 13 90 34 83 20 90 20 90 3z m0 -96 c0 -35 -3
-40 -27 -45 -16 -3 -45 -11 -66 -16 -47 -13 -56 -6 -31 23 17 20 18 21 1 15
-11 -4 -20 -1 -24 9 -7 18 -2 23 26 29 11 2 26 7 31 10 9 6 14 -8 11 -27 -1
-8 12 -10 26 -5 5 1 6 8 5 16 -4 15 15 31 36 31 7 0 12 -15 12 -40z m-478 8
c-6 -6 -15 -8 -19 -4 -4 4 -1 11 7 16 19 12 27 3 12 -12z m61 -105 c-7 -2 -19
-2 -25 0 -7 3 -2 5 12 5 14 0 19 -2 13 -5z m422 -13 c8 -12 -42 -33 -57 -24
-7 5 -4 12 7 21 22 16 41 17 50 3z m25 -120 c0 -110 -8 -131 -91 -235 -75 -93
-114 -153 -105 -162 3 -4 7 -4 9 -2 5 9 113 136 139 164 15 17 28 33 28 38 0
4 4 7 10 7 5 0 13 -16 19 -35 7 -28 6 -48 -8 -90 -22 -65 -7 -75 32 -22 27 35
40 71 57 160 6 31 14 57 18 57 9 0 52 -74 70 -120 20 -50 27 -316 10 -350 -16
-29 -54 -37 -82 -17 -21 15 -23 43 -12 132 l7 60 -25 -30 c-24 -28 -31 -30
-107 -34 -85 -3 -159 17 -159 45 0 8 -16 20 -35 28 -43 18 -57 51 -79 178 -22
131 -21 158 4 158 11 0 49 18 84 40 77 49 117 58 151 36 24 -16 25 -15 25 2 0
10 -6 27 -14 37 -12 17 -12 21 3 32 9 7 24 13 34 13 15 0 17 -11 17 -90z m550
66 c0 -15 -21 -26 -51 -26 -26 0 -24 19 4 30 32 13 47 12 47 -4z m-313 -238
c-3 -7 -5 -2 -5 12 0 14 2 19 5 13 2 -7 2 -19 0 -25z m354 -54 c3 -27 7 -157
8 -289 1 -132 6 -257 12 -278 12 -44 6 -55 -44 -96 -46 -36 -75 -47 -90 -32
-5 5 -14 54 -18 108 -15 191 -30 339 -40 398 -25 147 -28 130 34 160 31 15 68
41 83 56 16 16 33 28 39 26 5 -2 13 -26 16 -53z m-289 -57 c44 -24 62 -62 77
-167 6 -41 16 -111 22 -155 20 -141 26 -130 -63 -133 l-77 -3 -10 38 c-5 21
-12 110 -15 198 -3 88 -10 178 -15 199 -5 22 -7 44 -5 48 7 11 38 2 86 -25z
m451 -129 c4 -24 13 -88 22 -142 24 -161 25 -157 -50 -210 -36 -25 -70 -46
-75 -46 -16 0 -11 70 9 141 10 37 24 109 31 160 6 52 16 104 21 117 14 36 36
27 42 -20z m61 -421 c4 -34 3 -72 -1 -84 -4 -12 -6 -47 -5 -78 3 -43 7 -55 18
-51 9 3 14 -1 14 -12 0 -10 10 -26 23 -37 l22 -20 -26 -3 c-32 -4 -175 62
-183 85 -4 9 -9 49 -13 90 -5 63 -3 76 13 94 26 29 116 89 125 84 3 -3 10 -33
13 -68z m1091 -326 c-12 -10 -126 -33 -133 -27 -6 7 88 34 118 35 14 1 20 -3
15 -8z m-163 -63 c-10 -10 -127 -28 -172 -27 -17 1 -7 7 30 19 58 19 159 25
142 8z m-205 -34 c-3 -3 -12 -4 -19 -1 -8 3 -5 6 6 6 11 1 17 -2 13 -5z
m-4092 -1245 c-8 -11 -41 -25 -83 -35 -20 -4 -15 1 18 20 47 26 76 33 65 15z
m-115 -53 c0 -7 -10 -17 -22 -21 -97 -29 -120 -21 -40 13 56 25 62 26 62 8z
m-175 -65 c-8 -14 -101 -43 -122 -39 -12 2 -4 10 27 25 45 22 106 31 95 14z
m1478 -56 c18 -48 38 -159 51 -275 6 -57 -5 -93 -23 -75 -18 18 -59 109 -86
190 -22 65 -26 91 -21 138 7 71 12 79 39 75 15 -2 27 -17 40 -53z m-1673 -19
c-14 -7 -41 -16 -60 -20 l-35 -6 25 20 c14 11 40 19 60 19 35 0 35 0 10 -13z
m1290 -61 c0 -8 -9 -15 -20 -15 -13 0 -18 5 -14 15 4 8 12 15 20 15 8 0 14 -7
14 -15z m577 -325 c16 0 43 35 43 57 0 28 15 30 30 4 26 -49 -9 -96 -66 -88
-27 3 -29 7 -32 57 -2 30 0 65 5 79 6 20 9 10 11 -41 2 -38 6 -68 9 -68z m157
-47 c14 -42 65 -110 97 -130 178 -115 203 -152 147 -212 l-21 -23 -33 38 c-20
24 -33 33 -34 24 0 -9 9 -23 20 -33 21 -18 29 -97 10 -97 -5 0 -10 -11 -10
-25 0 -34 -15 -31 -62 13 -57 54 -77 92 -104 193 -26 102 -43 269 -27 269 6 0
13 -8 17 -17z m408 -373 c41 -44 44 -61 29 -170 -9 -62 9 -234 35 -342 9 -38
14 -74 11 -82 -6 -15 -66 -36 -103 -36 -19 0 -21 5 -20 48 2 50 -18 165 -34
194 -6 10 -10 28 -10 42 0 13 -7 29 -15 36 -25 20 -17 29 28 32 50 4 57 27 12
40 -37 12 -134 58 -140 68 -6 9 33 131 48 151 18 24 79 59 101 59 11 0 36 -18
58 -40z m253 -191 c28 -25 70 -39 118 -41 23 0 80 -16 126 -35 46 -18 98 -36
115 -38 54 -9 64 -33 59 -132 -8 -150 -42 -386 -58 -402 -12 -12 -19 -10 -52
15 -51 38 -70 62 -84 104 -16 50 -29 60 -29 22 0 -25 -5 -33 -22 -36 -42 -9
-132 -25 -180 -31 -25 -3 -56 -15 -69 -26 -52 -45 -66 -14 -68 146 -1 61 -8
139 -16 175 -18 78 -31 282 -21 333 l7 36 77 -36 c42 -20 86 -44 97 -54z
m1965 -288 c-26 -14 -70 -22 -70 -12 0 10 26 17 65 19 16 1 17 0 5 -7z m-3546
-87 c3 -9 6 -37 6 -62 0 -35 -5 -50 -19 -59 -10 -7 -22 -9 -25 -6 -8 8 -8 72
0 112 7 33 28 42 38 15z m3374 9 c-10 -2 -28 -2 -40 0 -13 2 -5 4 17 4 22 1
32 -1 23 -4z m179 -71 c1 -36 -3 -45 -24 -59 -14 -9 -40 -16 -58 -15 -23 2
-47 -7 -78 -28 -25 -16 -52 -30 -61 -30 -9 0 -16 -8 -16 -19 0 -44 -227 -218
-251 -194 -17 17 -49 198 -49 276 0 59 3 79 15 83 22 9 70 -11 70 -29 0 -24
10 -28 40 -17 16 6 56 12 91 14 35 3 69 8 76 12 29 18 166 52 203 51 40 -2 40
-2 42 -45z m-3474 29 c25 -10 77 -88 77 -116 0 -9 7 -30 16 -46 18 -36 16 -39
-28 -48 -38 -8 -45 -34 -10 -39 21 -3 22 -7 21 -95 -1 -81 -2 -87 -10 -48 -5
25 -13 49 -19 55 -12 12 -12 1 -1 -67 7 -40 5 -49 -9 -57 -10 -5 -20 -7 -23
-3 -4 3 -13 0 -22 -7 -10 -8 -51 -13 -119 -13 l-104 -1 44 -49 c24 -27 46 -59
48 -71 3 -11 11 -55 19 -96 9 -41 20 -106 27 -145 16 -99 28 -153 65 -292 l32
-123 -32 -6 c-18 -3 -42 -1 -53 5 -12 6 -38 11 -59 11 -49 0 -77 20 -80 56 -1
16 -5 121 -9 234 -5 148 -11 211 -21 226 -18 28 -7 104 15 104 9 0 28 -12 44
-27 30 -29 44 -26 33 6 -7 22 -32 40 -67 46 -30 6 -31 8 -41 83 -13 91 -13
124 2 161 l13 31 73 -3 c40 -1 73 -6 72 -11 -1 -5 14 -13 33 -17 27 -6 41 -4
60 10 22 16 25 25 22 67 -2 27 -12 88 -23 136 -18 81 -25 158 -15 158 3 0 16
-4 29 -9z m2897 -15 c0 -9 -21 -18 -62 -25 -65 -11 -75 -10 -63 9 18 29 125
42 125 16z m4 -98 c11 -94 8 -106 -30 -143 -20 -19 -41 -35 -48 -35 -16 0 -29
93 -20 139 4 18 2 31 -4 31 -5 0 -12 9 -15 20 -6 23 3 26 22 8 9 -9 12 -9 7
-1 -3 7 5 15 21 21 54 20 60 16 67 -40z m-1598 33 c-3 -4 3 -16 14 -26 26 -24
17 -35 -31 -35 -37 0 -99 32 -99 51 0 4 19 10 43 12 23 2 50 4 60 5 10 1 16
-2 13 -7z m-676 -11 c0 -5 -2 -10 -4 -10 -3 0 -8 5 -11 10 -3 6 -1 10 4 10 6
0 11 -4 11 -10z m-105 -55 c-42 -20 -61 -20 -45 0 7 8 27 15 44 14 l31 -1 -30
-13z m66 -116 c19 -73 34 -308 22 -325 -4 -5 -23 -16 -40 -23 -35 -14 -42 -26
-20 -34 24 -9 75 3 133 31 32 16 73 34 90 41 34 13 89 12 89 -3 0 -9 -78 -40
-129 -51 -20 -4 -26 -9 -18 -17 7 -7 24 -6 58 6 87 30 139 12 82 -28 -17 -12
-18 -16 -6 -16 19 0 26 -22 38 -120 5 -41 14 -118 20 -170 6 -52 18 -113 26
-134 9 -23 12 -51 9 -68 -4 -16 -1 -59 5 -95 11 -54 10 -67 -1 -74 -32 -20
-53 47 -28 92 5 11 8 32 6 47 -4 26 -4 26 -12 4 -4 -12 -17 -24 -29 -27 -11
-2 -47 -9 -79 -15 -38 -8 -60 -17 -64 -28 -18 -53 -85 -81 -112 -48 -7 8 -16
43 -22 77 -6 35 -17 71 -25 80 -8 8 -14 24 -14 35 -1 10 -8 37 -16 59 -31 81
-35 123 -39 439 -4 313 -5 321 -26 339 -12 9 -27 17 -35 17 -15 0 -18 21 -8
58 6 21 11 23 68 20 l61 -3 16 -66z m-771 42 c0 -11 5 -23 12 -27 14 -9 -18
-34 -44 -34 -22 0 -22 1 -1 45 18 39 33 46 33 16z m85 -41 c3 -5 -3 -10 -15
-10 -12 0 -18 5 -15 10 3 6 10 10 15 10 5 0 12 -4 15 -10z m359 -34 c22 -24
53 -58 68 -75 26 -31 28 -32 50 -17 12 9 28 26 36 38 12 21 13 20 8 -17 -3
-22 -6 -47 -6 -55 0 -8 -4 -21 -9 -28 -8 -13 -125 -42 -168 -42 -25 0 -30 -12
-10 -27 8 -7 36 -4 86 8 41 11 77 16 80 13 10 -9 27 -204 19 -217 -5 -8 -43
-12 -119 -12 -81 0 -113 -3 -116 -13 -3 -6 -8 -10 -13 -7 -5 3 -12 -5 -16 -17
-4 -13 -14 -28 -22 -34 -21 -15 -18 -76 4 -89 9 -5 31 -21 48 -35 17 -14 43
-31 57 -37 41 -18 99 -73 99 -94 0 -10 -4 -19 -9 -19 -5 0 -12 -10 -15 -22 -7
-28 -98 -86 -105 -67 -2 7 -14 22 -25 33 -12 12 -30 48 -41 81 -17 52 -20 56
-23 31 -6 -51 8 -96 43 -134 28 -31 32 -41 22 -57 -25 -47 -89 -84 -121 -72
-39 15 -86 208 -135 550 -10 70 -23 133 -29 139 -7 7 -12 22 -12 34 0 19 10
25 54 38 30 9 61 16 69 16 24 0 50 -89 74 -252 3 -21 9 -38 13 -38 16 0 19 33
10 98 -12 87 -13 199 0 207 12 7 44 -25 64 -64 15 -29 51 -49 64 -36 3 3 1 14
-6 23 -7 9 -17 29 -23 43 -5 14 -21 31 -34 37 -14 7 -25 16 -25 22 0 5 -7 10
-15 10 -19 0 -20 58 -1 85 7 11 19 38 26 60 7 22 15 43 17 48 11 19 49 3 87
-37z m2674 -53 c6 -21 10 -38 8 -40 -3 -3 -42 -14 -116 -34 -11 -3 -16 6 -18
30 -7 66 1 76 61 78 l54 2 11 -36z m-637 -143 c26 0 76 -73 94 -138 29 -97 49
-127 112 -162 53 -30 58 -31 68 -15 18 32 57 76 63 71 2 -3 6 -22 8 -43 2 -21
7 -61 10 -89 l6 -52 -98 -17 c-55 -10 -107 -22 -117 -27 -13 -7 -24 -5 -35 5
-9 8 -27 18 -39 21 -20 6 -23 4 -23 -19 0 -17 -5 -25 -12 -23 -8 3 -16 33 -20
76 -4 40 -14 99 -23 131 -10 40 -15 101 -14 187 1 71 3 121 6 112 2 -10 9 -18
14 -18z m1189 -20 c0 -5 -17 -12 -37 -15 -21 -4 -47 -10 -58 -15 -11 -4 -28
-11 -37 -14 -10 -3 -18 -12 -18 -20 0 -15 -17 -20 -92 -31 -68 -10 -62 11 10
31 31 9 61 20 67 25 5 5 18 9 30 9 11 1 36 9 55 20 38 21 80 26 80 10z m-1460
-20 c0 -5 -6 -10 -12 -13 -18 -6 -4 -18 24 -21 53 -7 109 -30 104 -43 -4 -8 3
-13 17 -13 26 0 65 -25 55 -35 -3 -3 -28 -8 -55 -9 -26 -2 -72 -6 -100 -11
-41 -6 -54 -5 -57 6 -12 41 -33 145 -30 150 5 9 54 -2 54 -11z m598 -80 c12
-16 22 -34 22 -40 0 -7 -19 -29 -42 -51 -66 -61 -137 -51 -158 22 -6 19 -7 42
-4 52 8 25 59 46 115 47 39 0 48 -4 67 -30z m-1645 -48 c27 -12 53 -22 58 -22
32 0 66 -130 88 -340 12 -119 20 -299 14 -317 -5 -14 -61 -17 -79 -5 -6 4 -14
32 -18 62 -9 71 -35 161 -51 180 -21 24 -37 136 -39 272 0 71 -4 128 -8 128
-5 0 -9 -8 -9 -17 -2 -22 -16 33 -18 65 0 13 2 22 7 20 4 -2 29 -14 55 -26z
m1218 -49 c-45 -12 -131 -17 -101 -6 8 3 17 10 20 14 3 4 27 9 54 10 40 2 50
7 54 23 5 19 6 19 12 -4 6 -23 2 -26 -39 -37z m3397 38 c25 -21 29 -41 9 -41
-8 0 -19 11 -25 25 -19 41 -16 44 16 16z m-107 -58 c9 -8 27 -34 40 -58 l24
-44 -35 -36 c-19 -19 -43 -35 -55 -35 -12 0 -26 -5 -32 -11 -6 -6 -26 -9 -44
-7 l-34 3 -3 107 -3 108 63 -6 c35 -4 70 -13 79 -21z m-3471 -19 c9 -23 14
-25 43 -20 75 15 115 17 148 9 33 -9 34 -10 42 -79 5 -38 15 -89 22 -114 29
-98 29 -124 0 -158 -28 -34 -49 -40 -62 -19 -4 7 -33 26 -63 41 -85 43 -148
85 -155 104 -16 41 -6 262 11 262 2 0 9 -12 14 -26z m3710 -4 c0 -5 7 -10 15
-10 8 0 15 -7 15 -15 0 -9 -6 -12 -17 -8 -39 14 -58 43 -28 43 8 0 15 -4 15
-10z m-5305 -17 c4 -10 17 -56 30 -103 12 -47 36 -129 53 -182 16 -54 28 -99
26 -99 -2 -1 -7 -2 -11 -3 -38 -10 -66 -35 -83 -73 -11 -25 -19 -47 -19 -51 3
-22 -4 -30 -33 -35 -56 -8 -68 5 -68 78 0 53 6 75 30 120 25 46 30 67 30 123
0 68 -13 174 -24 202 -4 10 2 19 16 26 34 17 45 16 53 -3z m-712 -66 c-10 -37
-21 -67 -24 -67 -8 0 6 75 21 114 19 51 21 21 3 -47z m2244 48 c8 -37 4 -135
-6 -153 -10 -18 13 -65 54 -109 40 -43 128 -101 161 -108 25 -4 38 -13 44 -31
6 -14 14 -23 18 -20 10 6 34 -143 26 -156 -3 -4 -10 -5 -17 -2 -8 3 -11 23 -9
63 l4 59 -32 7 c-18 4 -49 22 -69 40 -20 17 -48 34 -63 37 -22 4 -29 0 -41
-24 l-14 -29 -16 25 c-14 21 -14 26 -2 36 37 31 7 43 -77 31 -3 -1 4 -20 16
-43 12 -24 28 -59 36 -78 8 -19 24 -52 37 -72 13 -21 23 -40 23 -43 0 -8 -140
-6 -141 3 -1 7 -3 19 -14 79 -3 18 -12 39 -20 47 -8 8 -21 52 -29 98 -8 46
-20 97 -26 113 -10 26 -42 218 -37 221 1 0 31 8 67 17 84 21 122 18 127 -8z
m-1702 5 c3 -6 -5 -14 -18 -19 -31 -12 -43 -29 -28 -44 8 -8 22 -5 52 12 39
22 41 22 54 5 8 -11 15 -28 15 -39 0 -11 3 -31 7 -44 5 -21 3 -23 -18 -16 -13
4 -57 22 -97 41 -80 38 -79 34 -28 92 20 23 50 29 61 12z m4521 -10 c31 -164
32 -200 3 -200 -47 0 -56 15 -64 105 -5 63 -4 90 6 101 15 18 51 15 55 -6z
m194 -29 c0 -13 -24 -31 -42 -31 -24 0 -24 37 0 42 20 5 42 -1 42 -11z m-47
-111 c3 -11 12 -20 21 -20 12 0 16 -10 16 -37 0 -54 -10 -66 -43 -54 -24 9
-27 16 -27 55 0 68 21 103 33 56z m-1878 -32 c6 0 25 3 43 7 18 4 32 4 32 -2
0 -5 -37 -15 -82 -21 -46 -7 -98 -15 -117 -19 -25 -4 -32 -3 -26 7 14 22 69
40 105 34 19 -3 40 -6 45 -6z m-3404 -114 c-6 -32 -11 -75 -11 -96 0 -21 -4
-38 -10 -38 -16 0 -12 101 7 152 9 26 18 46 21 44 2 -2 -1 -30 -7 -62z m2974
47 c-9 -8 -73 -22 -170 -38 -30 -5 -30 -5 -8 11 31 23 201 49 178 27z m-2911
-96 c3 -8 1 -15 -4 -15 -6 0 -10 7 -10 15 0 8 2 15 4 15 2 0 6 -7 10 -15z
m2375 -102 c18 -40 27 -133 12 -133 -6 0 -11 9 -11 20 0 11 -4 20 -9 20 -5 0
-14 15 -21 33 -6 17 -15 39 -19 47 -8 16 6 39 25 40 6 0 16 -12 23 -27z
m-1557 -15 c-7 -7 -12 -20 -12 -30 0 -10 -2 -18 -4 -18 -2 0 -11 -3 -20 -6
-12 -4 -16 0 -16 15 0 12 5 21 10 21 6 0 10 7 10 15 0 9 9 15 22 15 17 0 19
-3 10 -12z m-282 -28 c0 -15 -7 -20 -24 -20 -32 0 -42 16 -19 29 28 16 43 13
43 -9z m640 -9 c0 -16 -24 -29 -67 -36 -29 -4 -43 -3 -43 4 0 6 1 11 3 11 1 0
20 7 42 15 47 17 65 18 65 6z m958 -5 c11 -7 10 -61 -1 -72 -3 -3 -11 -3 -18
2 -7 4 -29 8 -48 8 -34 1 -36 3 -39 39 l-3 38 49 -4 c27 -2 54 -7 60 -11z"/>
<path d="M6490 11021 c0 -5 9 -7 20 -4 11 3 20 7 20 9 0 2 -9 4 -20 4 -11 0
-20 -4 -20 -9z"/>
<path d="M7180 10733 c-14 -2 -52 -8 -84 -15 -51 -10 -57 -13 -38 -21 24 -11
138 9 148 25 8 13 3 14 -26 11z"/>
<path d="M7000 10649 c0 -5 5 -7 10 -4 6 3 10 8 10 11 0 2 -4 4 -10 4 -5 0
-10 -5 -10 -11z"/>
<path d="M6650 10505 c-10 -12 -10 -15 3 -15 19 0 31 16 18 24 -5 3 -14 -1
-21 -9z"/>
<path d="M4330 9386 c0 -14 5 -28 10 -31 6 -3 10 -30 11 -58 0 -47 2 -49 11
-25 6 19 6 45 -2 83 -12 56 -30 75 -30 31z"/>
<path d="M3792 7255 c0 -16 2 -22 5 -12 2 9 2 23 0 30 -3 6 -5 -1 -5 -18z"/>
<path d="M3812 7130 c0 -19 2 -27 5 -17 2 9 2 25 0 35 -3 9 -5 1 -5 -18z"/>
<path d="M3950 6821 c0 -15 54 -41 86 -41 33 0 26 9 -19 26 -17 6 -40 15 -49
19 -11 4 -18 3 -18 -4z"/>
<path d="M4472 4857 c-1 -71 -6 -126 -11 -123 -5 3 -11 -13 -15 -35 -9 -59
-26 -319 -26 -417 0 -45 -4 -90 -9 -100 -64 -122 -94 -272 -95 -472 -1 -153
27 -415 49 -463 l12 -28 14 33 c20 47 17 334 -5 452 -9 49 -16 121 -16 161 0
73 22 208 41 254 13 30 36 239 44 396 3 66 10 149 16 185 5 36 8 115 6 175
l-3 110 -2 -128z"/>
<path d="M5417 4743 c-14 -22 44 -358 76 -443 25 -69 31 -75 68 -75 35 0 38
12 4 21 -13 3 -27 16 -31 27 -4 12 -15 34 -25 49 -11 14 -19 39 -19 55 0 15
-9 75 -21 133 -11 58 -23 128 -26 155 -7 62 -17 92 -26 78z"/>
<path d="M5150 4715 c0 -27 33 -99 50 -110 11 -7 32 -51 53 -115 60 -175 75
-210 94 -210 20 0 19 4 -22 105 -7 17 -16 47 -20 69 -3 21 -15 55 -26 75 -10
19 -22 50 -25 68 -3 18 -10 33 -14 33 -4 0 -15 16 -24 35 -9 19 -21 35 -26 35
-5 0 -12 9 -15 20 -9 28 -25 25 -25 -5z"/>
<path d="M5130 4561 c0 -30 18 -71 31 -71 7 0 5 9 -5 24 -9 14 -13 31 -10 39
3 8 1 18 -5 22 -7 3 -11 -2 -11 -14z"/>
<path d="M5161 4471 c-1 -22 21 -91 30 -91 5 0 11 -15 15 -34 3 -19 15 -42 25
-52 23 -21 24 -6 2 38 -31 61 -33 68 -33 87 0 11 -6 24 -14 28 -7 4 -16 15
-19 23 -4 12 -6 12 -6 1z"/>
<path d="M7119 4214 c-108 -112 -219 -200 -261 -209 -18 -4 -60 -15 -93 -25
-33 -10 -84 -26 -114 -35 -58 -18 -110 -50 -206 -128 -33 -27 -74 -55 -92 -63
-37 -16 -98 -72 -89 -81 3 -4 16 3 29 14 12 11 38 28 57 38 19 10 42 23 50 30
8 7 25 16 38 20 23 7 23 6 17 -55 -4 -34 -12 -78 -20 -99 -7 -21 -18 -64 -24
-97 -7 -32 -16 -70 -21 -84 -5 -14 -11 -46 -15 -72 -5 -38 -10 -48 -25 -48
-10 0 -20 10 -24 23 -3 13 -16 28 -29 34 -27 13 -37 51 -37 144 0 38 -5 61
-15 69 -10 8 -15 9 -15 2 0 -6 -7 -9 -15 -6 -8 3 -17 0 -20 -8 -7 -18 41 -447
54 -481 6 -15 15 -27 21 -27 5 0 10 -4 10 -10 0 -5 -7 -10 -15 -10 -25 0 -17
-25 15 -43 16 -10 33 -17 37 -15 4 2 9 -6 11 -17 2 -11 17 -32 33 -47 l29 -27
42 36 c85 70 100 93 174 276 26 66 78 127 107 127 16 0 113 47 150 73 16 10
31 17 34 14 9 -9 -7 -77 -17 -77 -6 0 -10 -7 -10 -16 0 -9 -16 -43 -35 -76
-38 -64 -43 -102 -8 -52 39 55 144 265 168 333 31 91 36 131 39 274 4 167 32
249 158 458 10 16 16 29 14 29 -2 0 -42 -39 -87 -86z m-85 -182 c3 -5 -12 -67
-33 -138 -21 -71 -44 -160 -50 -198 -7 -38 -21 -86 -31 -106 -18 -35 -52 -56
-72 -44 -21 13 -2 171 34 279 27 81 43 109 89 158 21 23 39 45 39 49 0 11 18
10 24 0z m-241 -116 c25 -19 5 -33 -58 -39 -94 -11 -125 -19 -125 -33 0 -18
20 -17 105 4 110 28 104 36 98 -146 -2 -86 -9 -167 -15 -178 -6 -12 -22 -28
-37 -35 -14 -8 -35 -22 -45 -31 -11 -10 -28 -21 -39 -24 -11 -3 -46 -27 -79
-53 -117 -90 -121 -93 -156 -87 -52 8 -64 22 -48 55 7 14 19 49 26 76 7 28 23
82 35 120 12 39 32 104 45 145 38 129 46 144 81 167 19 13 39 27 45 32 12 10
72 28 114 35 14 2 27 4 30 4 3 1 13 -5 23 -12z m-303 -678 c0 -7 3 -22 6 -33
3 -11 -2 -29 -9 -40 -13 -16 -17 -17 -31 -6 -18 15 -21 44 -6 72 12 21 40 26
40 7z"/>
<path d="M6923 3805 c-22 -40 -43 -130 -42 -174 1 -25 3 -37 6 -26 2 11 10 34
18 50 30 69 47 205 18 150z"/>
<path d="M5620 4082 c0 -7 19 -32 43 -56 33 -35 53 -46 95 -55 64 -13 102 -14
102 -2 0 5 -17 12 -38 16 -20 3 -55 17 -77 30 -22 14 -56 32 -75 41 -19 9 -38
21 -42 28 -6 8 -8 7 -8 -2z"/>
<path d="M6015 3920 c3 -5 10 -10 16 -10 5 0 9 5 9 10 0 6 -7 10 -16 10 -8 0
-12 -4 -9 -10z"/>
<path d="M6350 3678 c-59 -16 -62 -31 -5 -23 55 8 65 12 65 26 0 11 -14 10
-60 -3z"/>
<path d="M5530 3660 c0 -5 6 -10 13 -10 15 0 27 -14 108 -120 71 -93 188 -209
249 -248 48 -30 204 -179 211 -201 3 -8 24 -14 57 -16 47 -2 51 -1 41 16 -5
11 -13 19 -17 19 -4 0 -14 11 -22 24 -8 14 -46 47 -85 75 -38 28 -75 55 -81
60 -6 5 -33 25 -60 45 -27 20 -58 48 -69 62 -11 14 -32 41 -47 59 -16 18 -28
35 -28 39 0 15 -155 146 -173 146 -7 1 -28 14 -47 30 -36 31 -50 37 -50 20z"/>
<path d="M7374 3595 c22 -157 27 -207 36 -345 11 -171 30 -310 41 -310 15 0
19 35 19 155 0 68 -7 162 -16 211 -9 49 -21 127 -29 174 -7 46 -17 86 -24 88
-6 2 -11 11 -11 20 0 10 -5 24 -11 32 -8 11 -9 5 -5 -25z"/>
<path d="M6354 3546 c-15 -12 -17 -17 -6 -28 11 -11 14 -10 22 2 9 14 14 40 7
40 -2 0 -12 -6 -23 -14z"/>
<path d="M6324 3416 c-8 -22 3 -33 18 -18 9 9 9 15 0 24 -9 9 -13 7 -18 -6z"/>
<path d="M7050 3291 c0 -6 4 -13 10 -16 6 -3 7 1 4 9 -7 18 -14 21 -14 7z"/>
<path d="M7057 3240 c-3 -14 -13 -72 -22 -130 -58 -361 -66 -397 -132 -608
-24 -79 -61 -219 -83 -310 -21 -92 -48 -201 -60 -242 -12 -41 -24 -88 -26
-105 -5 -29 -4 -28 17 9 11 22 32 51 45 65 14 14 27 37 31 51 32 137 102 360
146 465 20 49 38 124 58 250 32 198 56 535 40 563 -8 15 -10 13 -14 -8z"/>
<path d="M6835 3029 c-82 -18 -205 -86 -281 -153 -42 -37 -91 -103 -82 -111 2
-3 38 27 79 65 41 38 77 70 81 70 3 0 20 12 37 26 31 25 168 82 224 91 15 3
30 9 33 14 6 11 -38 10 -91 -2z"/>
<path d="M7551 2972 c-6 -12 -11 -28 -11 -38 0 -9 -9 -47 -19 -83 -11 -36 -22
-111 -25 -166 -5 -99 -5 -100 9 -50 13 45 20 84 56 289 11 62 7 80 -10 48z"/>
<path d="M5000 2953 c0 -15 5 -35 10 -43 8 -11 10 -5 8 23 -3 45 -18 62 -18
20z"/>
<path d="M5031 2762 c15 -97 49 -244 63 -270 l15 -27 1 29 c0 16 -4 45 -9 65
-5 20 -15 70 -22 111 -11 71 -29 123 -47 134 -5 3 -5 -16 -1 -42z"/>
<path d="M7362 2493 c0 -94 3 -184 8 -200 l8 -28 1 29 c1 16 10 67 20 115 35
156 44 218 33 238 -10 17 -11 17 -18 -2 -12 -33 -28 -36 -39 -7 -9 21 -12 -10
-13 -145z"/>
<path d="M6731 2454 c0 -11 3 -14 6 -6 3 7 2 16 -1 19 -3 4 -6 -2 -5 -13z"/>
<path d="M6530 2164 c-3 -7 -54 -28 -115 -49 -135 -45 -305 -124 -305 -142 0
-19 19 -16 75 12 28 13 58 25 67 25 9 0 38 11 65 25 35 19 60 25 92 23 46 -3
72 -28 30 -28 -34 0 -167 -44 -146 -48 10 -2 50 4 89 13 46 12 73 14 80 7 5
-5 16 -63 23 -127 8 -65 19 -123 25 -129 8 -8 10 -4 6 14 -3 14 -7 77 -8 140
-2 87 2 129 15 173 15 50 21 125 7 91z"/>
<path d="M4476 2272 c-2 -4 -1 -14 3 -21 6 -9 11 -10 15 -2 4 6 2 11 -4 11 -6
0 -8 5 -5 10 3 6 4 10 1 10 -3 0 -7 -4 -10 -8z"/>
<path d="M4650 2100 c0 -59 21 -120 41 -120 22 0 26 28 5 36 -7 3 -16 27 -20
54 -7 56 -26 77 -26 30z"/>
<path d="M4878 1933 c6 -2 12 -19 13 -36 0 -27 2 -29 9 -12 16 37 12 55 -12
54 -13 0 -17 -3 -10 -6z"/>
<path d="M4926 1843 c-4 -43 -12 -95 -17 -117 -7 -27 -7 -42 0 -49 17 -17 24
-2 42 86 16 80 17 82 48 87 17 3 32 8 31 13 0 4 0 11 0 15 0 5 -17 14 -37 21
-21 7 -43 14 -49 17 -7 3 -14 -22 -18 -73z"/>
<path d="M5248 1783 c5 -10 8 -23 5 -29 -2 -7 12 -11 38 -10 27 1 44 6 47 15
3 10 -3 13 -27 9 -17 -2 -31 -1 -31 3 0 5 -9 13 -21 19 -18 10 -19 9 -11 -7z"/>
<path d="M5008 1752 c-20 -5 -25 -11 -19 -20 10 -17 83 -27 104 -16 39 22 -28
50 -85 36z"/>
<path d="M5240 1698 c-66 -12 -89 -12 -115 -4 -15 5 -23 1 -30 -16 -7 -16 -22
-25 -50 -30 -22 -4 -54 -11 -72 -14 -25 -5 -32 -3 -35 12 -3 13 -7 6 -13 -19
-11 -55 1 -62 71 -38 70 24 104 27 164 18 49 -8 150 11 153 28 0 6 -12 12 -29
15 -19 4 -25 8 -16 13 6 5 16 6 21 3 11 -7 43 28 34 37 -7 8 -9 8 -83 -5z
m-10 -58 c-14 -4 -32 -8 -40 -9 -13 -1 -13 0 0 9 8 5 26 9 40 9 l25 -1 -25 -8z"/>
<path d="M5182 1495 c0 -16 2 -22 5 -12 2 9 2 23 0 30 -3 6 -5 -1 -5 -18z"/>
<path d="M6714 1465 c-4 -15 0 -38 9 -56 l15 -31 4 38 c8 66 -14 104 -28 49z"/>
<path d="M4290 815 c-8 -2 -50 -9 -93 -16 -54 -8 -81 -17 -87 -29 -5 -10 -6
-20 -3 -24 3 -3 -5 -6 -19 -6 -14 0 -31 -7 -38 -15 -16 -19 -1 -20 42 -1 41
18 161 52 211 61 23 4 37 11 34 18 -4 13 -22 17 -47 12z"/>
<path d="M4100 462 c0 -5 15 -13 34 -16 19 -4 40 -13 47 -22 21 -25 81 -47 90
-32 5 7 -1 16 -14 23 -12 6 -33 19 -47 28 -31 20 -110 34 -110 19z"/>
<path d="M3705 1170 c-3 -5 -2 -10 4 -10 5 0 13 5 16 10 3 6 2 10 -4 10 -5 0
-13 -4 -16 -10z"/>
<path d="M3778 983 c12 -2 30 -2 40 0 9 3 -1 5 -23 4 -22 0 -30 -2 -17 -4z"/>
<path d="M3710 871 c0 -5 -9 -11 -21 -14 -26 -7 -20 -31 9 -35 19 -3 22 1 22
27 0 17 -2 31 -5 31 -3 0 -5 -4 -5 -9z"/>
<path d="M3620 790 c0 -11 5 -20 10 -20 6 0 10 9 10 20 0 11 -4 20 -10 20 -5
0 -10 -9 -10 -20z"/>
<path d="M5922 695 c0 -16 2 -22 5 -12 2 9 2 23 0 30 -3 6 -5 -1 -5 -18z"/>
<path d="M5520 901 c0 -14 28 -21 60 -14 45 9 36 23 -15 23 -25 0 -45 -4 -45
-9z"/>
<path d="M4504 740 c-31 -12 -39 -30 -14 -30 29 0 62 19 55 31 -7 11 -13 11
-41 -1z"/>
<path d="M3877 351 c-16 -6 -14 -10 13 -36 27 -26 30 -27 30 -9 0 30 -22 53
-43 45z"/>
<path d="M5385 590 c-3 -5 -1 -10 4 -10 6 0 11 5 11 10 0 6 -2 10 -4 10 -3 0
-8 -4 -11 -10z"/>
<path d="M8226 721 c-4 -5 -2 -12 3 -15 5 -4 12 -2 15 3 4 5 2 12 -3 15 -5 4
-12 2 -15 -3z"/>
<path d="M6400 11433 c14 -3 33 -13 43 -24 17 -19 16 -19 -65 -20 -148 -3
-182 -5 -268 -21 -97 -18 -151 -38 -305 -113 -60 -30 -135 -63 -165 -75 -69
-27 -141 -73 -158 -101 -19 -31 -11 -32 31 -3 57 38 228 98 238 82 6 -9 22 -9
76 1 93 17 147 37 196 75 89 67 204 104 357 115 l95 6 1 28 c1 39 -20 57 -64
56 -28 -1 -31 -3 -12 -6z m-544 -228 c-11 -8 -28 -15 -39 -15 -10 0 -27 -5
-38 -10 -30 -16 -23 3 9 22 15 10 41 17 57 17 29 0 29 0 11 -14z"/>
<path d="M7063 11293 c-65 -6 -51 -23 17 -23 33 0 77 -7 98 -16 20 -9 61 -22
90 -30 55 -15 70 -22 162 -79 30 -19 74 -44 97 -55 23 -11 48 -26 55 -33 7 -6
32 -25 56 -41 23 -16 42 -32 42 -36 0 -5 18 -17 39 -28 l39 -21 -9 31 c-10 38
-7 45 31 53 38 8 38 17 -2 55 -55 51 -174 106 -247 114 -36 3 -74 12 -85 20
-12 7 -39 19 -61 26 -22 7 -63 26 -92 41 -53 30 -97 34 -230 22z"/>
<path d="M7775 10910 c3 -5 13 -10 21 -10 8 0 12 5 9 10 -3 6 -13 10 -21 10
-8 0 -12 -4 -9 -10z"/>
<path d="M8370 10878 c0 -19 2 -20 10 -8 13 19 13 30 0 30 -5 0 -10 -10 -10
-22z"/>
<path d="M7819 10867 c-8 -18 -7 -33 5 -60 16 -40 33 -48 42 -19 3 9 11 29 19
44 12 25 12 28 -10 42 -33 22 -44 20 -56 -7z"/>
<path d="M4834 10633 c-70 -58 -97 -83 -86 -83 23 0 162 104 162 121 0 18 -18
9 -76 -38z"/>
<path d="M4675 10490 c-16 -17 -16 -20 -3 -15 9 4 19 13 22 21 7 19 2 18 -19
-6z"/>
<path d="M4578 10405 c-51 -40 -71 -65 -52 -65 7 0 63 39 80 55 11 11 37 55
32 55 -2 0 -29 -20 -60 -45z"/>
<path d="M7545 10280 c-22 -5 -57 -9 -79 -9 -41 -1 -142 -49 -172 -82 -27 -30
-14 -29 55 3 91 42 163 58 258 58 75 0 108 10 83 25 -18 11 -104 14 -145 5z"/>
<path d="M6365 10161 c-16 -4 -50 -17 -74 -29 -24 -12 -98 -31 -165 -43 -66
-11 -130 -26 -141 -31 -23 -13 -116 -25 -275 -37 -63 -4 -131 -15 -150 -23
-19 -8 -53 -18 -74 -22 -43 -8 -195 -77 -196 -88 0 -13 64 4 140 37 95 42 204
65 300 65 98 0 284 24 338 44 23 8 79 22 124 31 45 8 88 21 96 28 8 6 38 21
65 32 28 12 52 26 55 33 4 13 1 13 -43 3z"/>
<path d="M7445 10059 c-44 -22 -95 -54 -113 -72 -33 -31 -92 -142 -92 -171 0
-16 -30 -73 -62 -118 -11 -16 -16 -28 -12 -28 12 0 64 59 64 73 0 8 21 55 46
106 49 97 66 114 203 194 49 29 77 58 54 57 -4 -1 -44 -19 -88 -41z"/>
<path d="M6694 10012 c-12 -2 -32 -14 -44 -27 l-22 -24 23 7 c27 8 75 40 68
45 -2 1 -14 1 -25 -1z"/>
<path d="M5655 9950 c-8 -13 35 -13 55 0 11 7 7 10 -17 10 -17 0 -35 -4 -38
-10z"/>
<path d="M5470 9890 c-11 -7 -7 -10 17 -10 17 0 35 5 38 10 8 13 -35 13 -55 0z"/>
<path d="M5230 9850 c-13 -8 -12 -10 3 -10 9 0 17 5 17 10 0 12 -1 12 -20 0z"/>
<path d="M6604 9785 c-6 -19 -10 -35 -8 -35 1 0 9 -3 18 -6 12 -5 16 0 15 17
0 13 -4 32 -7 41 -6 14 -10 10 -18 -17z"/>
<path d="M6940 9603 c0 -134 23 -445 36 -490 3 -13 10 -23 15 -23 5 0 9 -9 9
-20 0 -11 5 -20 10 -20 13 0 13 99 -1 175 -22 128 -38 270 -45 390 -4 69 -11
125 -15 125 -5 0 -9 -62 -9 -137z"/>
<path d="M6571 9714 c0 -11 3 -14 6 -6 3 7 2 16 -1 19 -3 4 -6 -2 -5 -13z"/>
<path d="M6625 9663 c3 -38 10 -93 15 -123 5 -30 12 -98 15 -150 3 -52 11
-124 18 -160 10 -60 12 -62 18 -31 4 18 1 78 -7 134 -8 56 -19 161 -24 232
-11 139 -16 165 -31 165 -6 0 -7 -27 -4 -67z"/>
<path d="M7444 9708 c-70 -77 -131 -224 -122 -293 4 -28 4 -28 16 15 31 115
69 203 109 250 30 36 27 61 -3 28z"/>
<path d="M7565 9650 c-3 -6 -4 -18 -1 -28 3 -9 10 -66 16 -127 6 -60 18 -135
26 -165 11 -44 13 -47 9 -15 -3 22 -8 70 -11 108 -7 63 -6 67 14 67 30 0 93
-81 103 -133 4 -23 6 -64 3 -92 -4 -41 -3 -47 7 -31 6 10 15 57 18 104 l7 86
-77 77 c-59 58 -79 85 -84 113 -8 38 -20 53 -30 36z"/>
<path d="M6531 9594 c0 -11 3 -14 6 -6 3 7 2 16 -1 19 -3 4 -6 -2 -5 -13z"/>
<path d="M7816 9450 c-17 -5 -15 -8 10 -18 16 -6 47 -14 68 -18 35 -6 111 -48
144 -80 6 -7 12 -28 12 -47 0 -38 -27 -124 -42 -133 -6 -4 -52 -15 -104 -25
-95 -18 -128 -16 -182 13 -17 9 -25 9 -34 0 -16 -16 -2 -27 54 -41 57 -14 122
-14 167 -1 19 5 73 10 121 11 92 1 153 19 68 19 -45 0 -48 2 -48 27 0 14 8 50
17 78 l18 53 57 -6 c63 -5 82 11 26 22 -18 3 -60 24 -93 47 -33 22 -76 48 -95
59 -49 25 -141 48 -164 40z"/>
<path d="M8977 9382 c-16 -3 -18 -14 -15 -105 2 -101 -7 -150 -60 -302 -33
-93 -94 -303 -96 -324 -1 -20 4 -24 33 -25 24 -1 38 5 47 20 23 34 73 188 84
259 6 36 17 92 25 123 18 67 25 337 10 350 -6 5 -18 7 -28 4z"/>
<path d="M7291 9324 c0 -11 3 -14 6 -6 3 7 2 16 -1 19 -3 4 -6 -2 -5 -13z"/>
<path d="M7320 9291 c0 -37 46 -89 64 -71 5 5 21 10 34 10 41 0 23 34 -22 41
-23 4 -47 16 -58 29 l-18 22 0 -31z"/>
<path d="M7470 9272 c0 -24 5 -52 11 -64 14 -25 24 -178 11 -160 -7 10 -30 13
-78 12 -109 -3 -102 -8 -110 68 l-7 67 -13 -65 c-7 -36 -13 -92 -14 -125 0
-33 -5 -76 -10 -95 -5 -19 -20 -80 -35 -135 -14 -55 -31 -120 -36 -145 -5 -25
-16 -65 -24 -90 -12 -36 -13 -69 -6 -165 9 -134 -3 -623 -17 -670 -8 -27 -14
-31 -68 -42 -131 -25 -176 -49 -308 -163 -123 -106 -171 -163 -161 -188 4 -9
20 -75 37 -147 55 -247 58 -266 47 -287 -6 -11 -48 -37 -93 -58 -67 -31 -103
-41 -210 -54 -174 -23 -283 -49 -373 -91 -77 -36 -113 -43 -113 -25 0 40 80
124 152 161 42 21 57 39 33 39 -21 0 -112 -59 -150 -97 -44 -44 -143 -184
-171 -243 -37 -77 -50 -173 -36 -267 6 -43 14 -123 17 -178 3 -55 8 -101 10
-103 17 -18 17 122 -1 215 -6 29 -2 34 36 58 109 69 296 117 383 98 17 -4 80
-6 140 -4 70 1 107 -1 107 -8 0 -6 -9 -11 -19 -11 -11 0 -22 -4 -25 -9 -7 -11
253 -2 276 10 25 13 117 12 98 -2 -11 -7 8 -9 65 -6 47 3 81 9 83 16 2 6 18
11 35 10 31 -1 31 -1 7 -9 -24 -8 -23 -8 8 -9 17 -1 32 4 32 9 0 6 28 10 64
10 46 0 70 -5 87 -18 23 -18 147 -42 214 -42 17 0 41 -7 55 -15 50 -29 76 -37
141 -46 48 -6 79 -17 116 -41 28 -18 76 -48 105 -66 30 -18 63 -40 74 -50 10
-10 35 -29 54 -42 60 -42 60 -42 57 -195 -2 -77 -8 -153 -12 -169 -12 -43 10
-24 40 34 23 46 52 138 111 355 15 55 31 104 35 109 35 38 -29 319 -89 394
-33 41 -122 102 -151 102 -25 0 -135 54 -210 102 -72 47 -74 48 -101 31 -16
-9 -33 -26 -39 -37 -6 -14 -10 -16 -10 -6 -1 8 8 30 20 49 11 19 29 62 40 96
21 69 31 80 107 121 65 34 73 48 75 127 l2 62 -52 3 c-35 2 -53 7 -53 16 0 7
13 37 30 67 40 73 41 123 1 143 -45 24 -89 64 -105 97 -8 17 -20 67 -26 112
-11 89 -40 234 -70 362 -55 230 -70 284 -88 330 -11 28 -25 63 -31 79 -6 16
-13 27 -15 25 -5 -4 2 -29 54 -214 31 -111 70 -323 90 -490 14 -117 61 -253
111 -319 50 -65 55 -87 35 -139 -9 -24 -16 -52 -16 -64 0 -25 -22 -45 -54 -48
-54 -6 -94 -19 -142 -46 -60 -34 -94 -38 -94 -10 0 25 -28 92 -48 115 -29 32
-89 56 -140 56 -78 0 -140 -25 -262 -105 -63 -41 -119 -74 -125 -72 -5 2 -16
20 -24 41 -13 33 -12 45 7 121 21 87 56 148 115 206 44 42 158 95 242 113 38
8 74 22 81 31 7 9 17 46 24 83 6 37 19 103 27 146 18 93 13 218 -17 391 -24
139 -33 280 -21 325 5 19 21 73 36 120 15 47 39 123 53 169 35 118 56 151 95
152 18 0 50 2 73 5 52 6 69 -11 61 -64 -3 -20 -11 -65 -16 -100 -5 -35 -14
-69 -19 -75 -12 -15 -34 -108 -28 -114 9 -9 38 71 86 230 l20 67 -20 103 c-33
170 -40 200 -55 242 l-14 40 -1 -43z m-352 -1644 c-3 -7 -24 -18 -49 -24 -24
-7 -53 -15 -64 -20 -35 -13 -8 7 42 32 54 26 77 30 71 12z m-158 -537 c0 -5
-15 -11 -32 -14 -18 -3 -46 -9 -63 -13 l-30 -7 19 22 c14 15 31 21 63 21 23 0
43 -4 43 -9z m300 -20 c25 -13 57 -29 71 -37 23 -12 32 -12 67 0 23 8 73 18
111 22 62 6 71 5 71 -10 0 -9 -7 -19 -16 -23 -15 -5 -15 -7 1 -15 12 -7 15
-17 10 -41 -4 -18 -11 -36 -16 -41 -5 -6 -9 -17 -9 -25 0 -13 -14 -16 -78 -16
-64 -1 -90 -6 -151 -33 l-74 -31 -89 55 c-76 47 -103 57 -188 75 -55 10 -111
17 -124 13 -37 -9 -47 1 -34 36 6 18 17 30 28 30 17 0 71 19 115 41 72 35 235
35 305 0z m-480 -125 c0 -8 -7 -16 -15 -20 -10 -4 -15 1 -15 14 0 11 7 20 15
20 8 0 15 -6 15 -14z m460 -202 c0 -26 -7 -38 -27 -51 -16 -10 -31 -22 -35
-27 -15 -21 -23 8 -20 72 1 17 11 41 23 53 20 20 22 20 40 3 11 -10 19 -30 19
-50z m-760 -34 c-30 -10 -68 -19 -85 -19 -26 1 -24 3 20 19 28 10 66 19 85 19
33 0 31 -2 -20 -19z m-197 -67 c-7 -2 -19 -2 -25 0 -7 3 -2 5 12 5 14 0 19 -2
13 -5z m632 -35 c33 -5 83 -14 110 -19 28 -5 158 -9 291 -9 218 0 243 -2 265
-18 31 -23 115 -42 190 -42 65 0 81 -13 94 -80 4 -19 22 -92 41 -161 19 -69
34 -132 34 -139 0 -8 -13 -1 -29 16 -45 46 -119 81 -200 94 -41 7 -104 25
-140 40 -39 17 -101 33 -151 39 -47 6 -108 17 -136 25 -28 8 -93 19 -144 25
-51 7 -106 19 -124 29 -28 15 -72 17 -416 18 -212 0 -406 4 -431 8 -49 8 -195
-10 -205 -25 -11 -19 -34 -8 -34 16 0 63 24 82 135 109 33 8 80 21 105 30 50
17 216 41 385 55 120 10 265 6 360 -11z m-72 -225 c-7 -2 -21 -2 -30 0 -10 3
-4 5 12 5 17 0 24 -2 18 -5z m-386 -59 c-3 -3 -12 -4 -19 -1 -8 3 -5 6 6 6 11
1 17 -2 13 -5z"/>
<path d="M7455 7000 c-3 -5 -2 -10 4 -10 5 0 13 5 16 10 3 6 2 10 -4 10 -5 0
-13 -4 -16 -10z"/>
<path d="M8250 9276 c0 -27 22 -49 44 -44 11 2 7 11 -15 36 -28 31 -29 32 -29
8z"/>
<path d="M7621 9268 c-1 -4 4 -30 10 -58 7 -35 15 -50 27 -50 12 0 13 3 4 12
-7 7 -12 19 -12 28 -1 16 -28 80 -29 68z"/>
<path d="M8912 9238 c-1 -14 -5 -33 -8 -42 -5 -14 -8 -14 -21 0 -14 13 -17 13
-36 -3 -20 -18 -20 -18 -13 20 5 27 4 37 -3 32 -13 -7 -14 -64 -3 -97 9 -24
-30 -294 -48 -333 -5 -11 -14 -45 -20 -75 -7 -30 -20 -81 -31 -113 -10 -31
-19 -71 -19 -89 0 -31 0 -31 21 -12 30 27 47 64 58 125 5 30 21 98 35 152 14
53 37 139 50 191 13 52 29 104 36 115 6 12 9 51 7 89 -2 37 -4 55 -5 40z"/>
<path d="M8336 9213 c13 -53 23 -60 24 -15 0 31 -4 42 -15 42 -12 0 -14 -7 -9
-27z"/>
<path d="M7695 9170 c-3 -5 -1 -10 4 -10 6 0 11 5 11 10 0 6 -2 10 -4 10 -3 0
-8 -4 -11 -10z"/>
<path d="M7320 9118 c0 -49 5 -47 13 5 3 20 2 37 -4 37 -5 0 -9 -19 -9 -42z"/>
<path d="M8246 9071 c18 -16 84 -37 84 -26 0 7 -40 26 -73 36 -30 8 -30 8 -11
-10z"/>
<path d="M7438 8883 c-24 -6 -23 -33 1 -33 23 0 38 18 25 29 -5 4 -17 6 -26 4z"/>
<path d="M3952 8868 c3 -7 13 -15 24 -17 16 -3 17 -1 5 13 -16 19 -34 21 -29
4z"/>
<path d="M7365 8813 c-11 -86 -13 -143 -4 -149 9 -5 16 32 24 134 6 85 -9 97
-20 15z"/>
<path d="M7810 8810 c-43 -7 -121 -59 -148 -98 -30 -41 -97 -180 -116 -239
-10 -29 -23 -53 -30 -53 -20 0 -67 116 -68 171 -1 21 -6 29 -20 29 -10 0 -18
-3 -18 -7 1 -38 32 -119 96 -251 91 -186 114 -251 143 -398 43 -211 37 -201
168 -274 l41 -23 31 22 c33 23 180 81 207 81 9 0 37 23 64 50 27 28 50 50 52
51 1 0 47 6 101 12 l99 12 3 55 c2 30 1 80 -3 110 -6 47 -10 55 -32 60 -25 6
-34 19 -67 95 -14 30 -30 46 -63 62 -25 12 -56 22 -70 23 -25 0 -25 0 4 -15
15 -8 36 -15 46 -15 25 0 41 -23 95 -135 52 -110 63 -170 31 -170 -12 0 -34
19 -54 45 -63 85 -97 113 -188 157 -121 57 -258 87 -371 80 -64 -4 -83 -2 -83
8 0 30 15 48 59 68 l46 21 -65 6 c-76 7 -130 28 -130 50 0 9 14 35 30 57 l31
41 137 5 c75 2 188 10 250 17 103 13 120 12 205 -5 50 -10 103 -25 117 -32 31
-16 112 -17 128 -1 32 32 -7 127 -78 191 -51 46 -141 80 -192 74 -49 -6 -155
12 -215 36 -66 28 -122 36 -173 27z m329 -730 c21 -10 35 -77 25 -115 -5 -20
-19 -28 -78 -46 -130 -39 -161 -47 -201 -54 -22 -4 -53 -10 -70 -15 -81 -22
-83 -22 -100 9 -8 17 -15 55 -15 86 0 54 1 56 23 50 12 -4 40 -17 62 -30 47
-26 160 -40 175 -22 6 7 26 32 46 57 20 25 52 55 73 67 42 27 37 26 60 13z m0
-204 c-2 -2 -15 -7 -29 -10 l-25 -7 25 15 c21 12 42 14 29 2z m-54 -65 c-3 -5
-31 -13 -63 -17 -31 -4 -68 -11 -80 -15 -13 -5 -28 -6 -34 -3 -18 12 24 28 87
35 95 10 96 10 90 0z"/>
<path d="M8008 7953 c7 -3 16 -2 19 1 4 3 -2 6 -13 5 -11 0 -14 -3 -6 -6z"/>
<path d="M3880 8760 c0 -27 5 -50 10 -50 6 0 10 23 10 50 0 28 -4 50 -10 50
-5 0 -10 -22 -10 -50z"/>
<path d="M7086 8745 c-11 -8 -17 -18 -13 -21 10 -11 37 4 37 21 0 18 0 18 -24
0z"/>
<path d="M7144 8706 c-6 -18 -8 -51 -6 -72 l5 -39 13 55 c7 30 13 63 14 73 0
29 -14 19 -26 -17z"/>
<path d="M6840 8621 c0 -6 5 -13 10 -16 6 -3 10 1 10 9 0 9 -4 16 -10 16 -5 0
-10 -4 -10 -9z"/>
<path d="M5949 8539 c14 -5 41 -6 70 0 46 9 46 9 -24 9 -53 1 -64 -1 -46 -9z"/>
<path d="M7343 8470 c0 -25 2 -35 4 -22 2 12 2 32 0 45 -2 12 -4 2 -4 -23z"/>
<path d="M3880 8428 c0 -62 36 -296 47 -308 13 -13 14 -6 10 55 -4 69 -21 199
-32 243 -6 23 -25 31 -25 10z"/>
<path d="M6040 8425 c-84 -11 -169 -31 -278 -64 -49 -15 -149 -79 -170 -109
-11 -15 -28 -52 -37 -84 -18 -55 -19 -56 -51 -51 -24 4 -38 0 -55 -16 -31 -28
-19 -36 41 -24 43 9 52 8 66 -8 12 -14 31 -19 66 -19 28 0 55 -6 63 -13 16
-17 245 -31 259 -17 5 5 8 11 5 12 -62 38 -123 58 -194 63 -44 4 -95 8 -113
11 -32 5 -32 5 -15 28 18 24 50 41 105 57 18 5 59 33 91 62 39 37 60 50 67 43
11 -14 49 -145 60 -204 10 -63 20 -69 77 -45 51 22 115 34 204 38 30 1 69 10
86 19 20 10 53 15 95 14 37 -1 83 6 111 15 26 9 56 17 67 17 10 0 22 5 26 11
3 6 26 20 50 31 24 10 44 22 44 26 0 4 -21 28 -48 53 -35 34 -75 57 -162 94
-63 26 -135 54 -159 61 -53 17 -171 16 -301 -1z m390 -138 c13 -23 13 -29 -2
-60 -14 -29 -26 -37 -88 -56 -50 -16 -75 -20 -83 -12 -11 11 25 159 50 198
l13 23 48 -33 c26 -19 54 -45 62 -60z"/>
<path d="M6598 8398 c9 -9 15 -9 24 0 9 9 7 12 -12 12 -19 0 -21 -3 -12 -12z"/>
<path d="M5830 8186 c0 -8 -3 -21 -6 -29 -3 -9 3 -16 17 -20 34 -9 41 1 22 34
-19 31 -33 38 -33 15z"/>
<path d="M8637 7980 c-9 -41 1 -64 19 -49 18 15 18 53 0 68 -11 9 -15 5 -19
-19z"/>
<path d="M5081 7964 c0 -11 3 -14 6 -6 3 7 2 16 -1 19 -3 4 -6 -2 -5 -13z"/>
<path d="M6524 7920 c-54 -12 -64 -18 -58 -34 5 -13 11 -13 44 4 21 11 41 24
45 30 3 5 5 10 3 9 -2 -1 -17 -4 -34 -9z"/>
<path d="M5486 7781 c-4 -5 3 -7 14 -4 23 6 26 13 6 13 -8 0 -17 -4 -20 -9z"/>
<path d="M5435 7770 c-3 -5 -1 -10 4 -10 6 0 11 5 11 10 0 6 -2 10 -4 10 -3 0
-8 -4 -11 -10z"/>
<path d="M6188 7713 c-27 -7 -22 -23 7 -23 16 0 25 6 25 15 0 15 -2 16 -32 8z"/>
<path d="M5970 7661 c-58 -4 -104 -9 -102 -13 1 -5 2 -12 2 -17 0 -20 108 -28
140 -11 10 6 31 10 47 10 15 0 46 5 68 11 34 10 37 13 20 20 -11 4 -31 7 -45
6 -14 0 -72 -3 -130 -6z"/>
<path d="M5235 7623 c-3 -21 -10 -54 -15 -73 -5 -19 -15 -69 -21 -110 -6 -41
-18 -94 -25 -118 -8 -23 -14 -47 -14 -52 0 -17 19 -11 30 10 14 27 39 170 33
187 -3 7 2 20 11 28 16 17 18 23 21 108 2 59 -12 72 -20 20z"/>
<path d="M5764 7632 c-6 -4 -15 -22 -19 -40 l-7 -33 47 3 c45 3 49 1 67 -32
32 -57 68 -100 84 -100 21 0 17 28 -5 35 -10 3 -24 19 -31 35 -6 16 -18 31
-26 34 -8 3 -14 16 -14 28 0 26 -49 51 -78 41 -15 -5 -14 -3 2 15 14 17 16 22
5 22 -8 0 -19 -4 -25 -8z"/>
<path d="M7868 7613 c-8 -18 -11 -73 -9 -153 5 -209 4 -232 -14 -315 -38 -179
-30 -224 54 -293 59 -50 81 -58 81 -32 0 11 -4 20 -10 20 -5 0 -10 6 -10 14 0
8 -9 17 -19 21 -29 9 -39 49 -46 185 -8 158 -5 168 40 126 54 -51 58 -67 59
-228 1 -94 5 -148 11 -148 6 0 22 14 37 30 20 23 28 46 33 95 12 113 -15 193
-97 278 -40 42 -48 57 -46 81 4 45 39 56 206 68 184 12 229 7 259 -30 l22 -27
1 28 c0 15 1 30 3 34 1 4 -20 15 -48 25 -43 16 -76 18 -237 15 -103 -2 -192
-1 -198 3 -12 7 -31 118 -25 147 16 80 16 83 -10 83 -18 0 -29 -8 -37 -27z"/>
<path d="M7831 7614 c0 -11 3 -14 6 -6 3 7 2 16 -1 19 -3 4 -6 -2 -5 -13z"/>
<path d="M7692 7580 c0 -14 2 -19 5 -12 2 6 2 18 0 25 -3 6 -5 1 -5 -13z"/>
<path d="M6150 7533 c0 -5 20 -16 44 -26 25 -10 52 -29 60 -42 9 -14 30 -32
46 -40 17 -9 30 -22 30 -31 0 -14 45 -37 62 -32 6 2 -14 25 -44 52 -29 26 -66
60 -83 76 -16 15 -40 33 -52 39 -25 13 -63 15 -63 4z"/>
<path d="M5740 7451 c0 -5 5 -13 10 -16 6 -3 10 -2 10 4 0 5 -4 13 -10 16 -5
3 -10 2 -10 -4z"/>
<path d="M5965 7450 c-9 -15 -1 -23 21 -18 15 3 16 4 1 16 -11 9 -17 10 -22 2z"/>
<path d="M6009 7404 c-10 -12 -9 -18 3 -30 16 -16 48 -9 48 10 0 6 -9 17 -19
23 -16 10 -22 9 -32 -3z"/>
<path d="M5760 7400 c0 -9 32 -30 46 -30 4 0 -1 9 -11 20 -19 21 -35 26 -35
10z"/>
<path d="M6105 7390 c-8 -13 3 -30 20 -30 7 0 15 -6 18 -14 6 -15 62 -46 84
-46 7 0 13 -9 13 -20 0 -26 43 -54 70 -45 22 7 28 25 8 25 -7 0 -33 16 -57 35
-24 19 -47 35 -51 35 -4 0 -23 16 -43 35 -37 36 -51 42 -62 25z"/>
<path d="M5960 7381 c0 -6 5 -13 10 -16 6 -3 10 1 10 9 0 9 -4 16 -10 16 -5 0
-10 -4 -10 -9z"/>
<path d="M5840 7331 c0 -12 12 -26 30 -35 37 -18 41 0 7 32 -29 27 -37 28 -37
3z"/>
<path d="M6437 7329 c-9 -6 -15 -14 -12 -18 7 -12 56 0 52 12 -5 16 -20 18
-40 6z"/>
<path d="M6545 7280 c-10 -11 -16 -23 -13 -26 7 -6 38 24 38 37 0 13 -5 11
-25 -11z"/>
<path d="M6013 7230 c11 -28 12 -29 19 -9 9 24 3 39 -17 39 -11 0 -11 -6 -2
-30z"/>
<path d="M6362 7211 c-18 -3 -33 -10 -33 -16 0 -15 50 -18 67 -4 15 12 19 30
7 28 -5 -1 -23 -4 -41 -8z"/>
<path d="M5172 7198 c-7 -7 -12 -29 -12 -49 0 -21 -4 -40 -9 -43 -5 -3 -12
-27 -16 -53 -3 -27 -9 -58 -12 -70 -3 -13 -1 -23 4 -23 10 0 44 125 47 175 2
17 6 38 11 48 9 22 2 30 -13 15z"/>
<path d="M5060 7009 c0 -11 5 -17 10 -14 6 3 10 13 10 21 0 8 -4 14 -10 14 -5
0 -10 -9 -10 -21z"/>
<path d="M7937 7018 c-21 -12 -22 -48 -1 -48 17 0 44 23 44 38 0 15 -24 21
-43 10z"/>
<path d="M5112 6925 c0 -16 2 -22 5 -12 2 9 2 23 0 30 -3 6 -5 -1 -5 -18z"/>
<path d="M5495 6870 c3 -5 8 -10 11 -10 2 0 4 5 4 10 0 6 -5 10 -11 10 -5 0
-7 -4 -4 -10z"/>
<path d="M6165 6313 c-64 -7 -60 -18 6 -15 32 2 57 8 53 13 -3 5 -8 8 -12 7
-4 -1 -25 -3 -47 -5z"/>
<path d="M6022 6265 c0 -16 2 -22 5 -12 2 9 2 23 0 30 -3 6 -5 -1 -5 -18z"/>
<path d="M5154 6259 c-3 -6 -2 -15 4 -21 13 -13 32 -2 32 18 0 16 -26 19 -36
3z"/>
<path d="M5108 6233 c-15 -4 -18 -16 -18 -63 0 -36 5 -62 14 -69 11 -9 15 -1
20 49 4 32 11 62 16 65 6 4 10 10 10 16 0 9 -12 10 -42 2z"/>
<path d="M6042 6110 c0 -19 2 -27 5 -17 2 9 2 25 0 35 -3 9 -5 1 -5 -18z"/>
<path d="M8150 6131 c0 -5 -3 -16 -6 -25 -3 -9 -2 -16 4 -16 13 0 23 38 11 46
-5 3 -9 1 -9 -5z"/>
<path d="M6600 6059 c-25 -5 -74 -13 -110 -17 l-65 -8 54 -12 c47 -11 61 -20
113 -77 33 -36 64 -65 70 -65 14 0 104 -66 156 -114 78 -74 79 -172 2 -273
-21 -29 -45 -65 -53 -80 -25 -49 -59 -169 -55 -194 l4 -24 11 26 c11 24 82 89
98 89 4 0 20 11 36 24 29 25 162 62 180 50 20 -12 -14 -34 -52 -34 -21 0 -41
-4 -44 -10 -3 -5 -22 -10 -41 -10 -19 0 -34 -4 -34 -8 0 -7 119 0 160 10 11 2
16 -7 18 -33 4 -46 -16 -62 -96 -78 -88 -17 -220 -69 -232 -91 -13 -24 -13
-70 0 -70 6 0 8 10 5 23 -5 19 0 25 28 35 61 22 62 22 65 -91 1 -56 7 -128 13
-159 13 -77 5 -105 -32 -110 -17 -3 -32 -1 -35 4 -3 5 -6 54 -6 109 0 54 -4
102 -9 105 -5 3 -9 15 -9 27 0 12 -5 29 -10 37 -7 11 -10 -1 -9 -40 1 -136
-30 -335 -71 -463 -12 -38 -21 -70 -19 -72 2 -1 21 4 42 12 23 9 37 22 37 33
0 18 41 30 102 30 21 0 28 6 33 28 8 36 70 101 115 119 65 27 164 74 221 103
31 17 63 30 71 30 18 0 38 -55 39 -106 0 -48 20 -106 37 -112 16 -5 15 37 -3
113 -19 78 -19 93 3 97 25 6 62 -12 102 -48 26 -24 44 -32 72 -32 20 0 41 -3
47 -7 6 -3 11 0 11 8 0 19 -36 50 -87 76 -24 12 -64 35 -90 51 -55 35 -98 39
-113 10 -6 -11 -19 -20 -28 -20 -10 0 -22 -4 -28 -8 -5 -4 -34 -17 -64 -29
-146 -55 -177 -68 -205 -85 -55 -33 -58 -29 -50 85 4 63 2 134 -5 187 -11 73
-19 160 -16 160 1 0 26 9 56 20 30 11 67 20 82 20 29 0 33 -11 58 -172 7 -43
19 -86 26 -95 12 -16 13 -12 14 32 0 28 -7 71 -15 97 -15 50 -21 186 -11 250
18 118 84 278 115 278 4 0 13 11 19 25 6 14 16 25 22 25 18 0 11 -44 -17 -98
-20 -40 -24 -55 -15 -61 10 -6 10 -15 2 -36 -6 -16 -8 -36 -4 -44 7 -18 44
-211 48 -252 1 -14 6 -30 9 -36 4 -6 8 -32 9 -57 2 -53 12 -66 28 -36 6 12 21
20 37 20 42 0 164 49 218 87 71 52 179 112 228 127 9 3 21 16 26 29 10 26 28
42 74 67 24 13 31 24 29 41 -2 13 -6 60 -10 104 -5 44 -11 73 -14 65 -14 -37
-28 -112 -23 -121 4 -5 -10 -9 -29 -9 -27 0 -50 -12 -108 -58 -150 -118 -220
-164 -231 -153 -6 6 -27 11 -46 11 -20 0 -61 13 -91 28 l-55 27 -1 145 c-2
175 6 232 52 373 19 59 32 112 29 117 -13 21 -105 52 -195 65 -103 15 -139 24
-155 35 -46 35 -337 61 -435 39z m690 -277 c0 -24 -23 -72 -34 -72 -5 0 -17
-6 -25 -14 -9 -7 -37 -21 -64 -31 -36 -14 -46 -22 -42 -35 5 -15 -55 -76 -182
-183 -21 -18 -127 -52 -121 -39 2 4 20 41 41 82 39 81 71 117 128 147 82 41
144 76 169 94 26 19 109 65 123 68 4 0 7 -7 7 -17z m208 -598 c-2 -9 -23 -25
-48 -35 -25 -10 -36 -18 -25 -18 13 -1 16 -4 8 -12 -11 -11 -125 -40 -132 -34
-6 7 -3 84 4 95 5 8 11 8 19 1 7 -6 15 -9 18 -6 3 3 38 9 79 14 41 5 75 9 77
10 2 0 2 -6 0 -15z m-678 -524 c0 -5 -4 -10 -10 -10 -5 0 -10 5 -10 10 0 6 5
10 10 10 6 0 10 -4 10 -10z m-125 -140 c3 -5 -1 -10 -10 -10 -9 0 -13 5 -10
10 3 6 8 10 10 10 2 0 7 -4 10 -10z"/>
<path d="M8310 5840 c0 -5 7 -10 15 -10 8 0 15 5 15 10 0 6 -7 10 -15 10 -8 0
-15 -4 -15 -10z"/>
<path d="M6210 5531 c0 -6 4 -13 10 -16 6 -3 7 1 4 9 -7 18 -14 21 -14 7z"/>
<path d="M7147 5388 c-30 -42 -42 -71 -25 -66 13 5 67 77 68 91 0 17 -21 5
-43 -25z"/>
<path d="M7970 5334 c56 -17 58 -17 34 1 -10 8 -32 14 -49 14 -27 0 -25 -2 15
-15z"/>
<path d="M6973 5161 c-29 -9 -55 -19 -58 -22 -5 -6 35 -5 45 1 7 4 23 8 41 9
9 0 19 8 23 16 3 8 4 15 3 14 -1 -1 -25 -9 -54 -18z"/>
<path d="M6657 4893 c-3 -5 -10 -35 -17 -68 -6 -33 -18 -85 -26 -116 -8 -30
-14 -68 -14 -83 0 -15 -5 -36 -11 -48 -11 -20 -5 -68 9 -68 9 0 59 182 66 240
2 25 8 69 12 98 4 35 3 52 -4 52 -6 0 -13 -3 -15 -7z"/>
<path d="M7218 4763 c7 -3 16 -2 19 1 4 3 -2 6 -13 5 -11 0 -14 -3 -6 -6z"/>
<path d="M7103 4713 c-24 -8 -43 -19 -43 -24 0 -10 69 16 85 32 11 11 10 11
-42 -8z"/>
<path d="M2877 3358 c-15 -11 -27 -27 -27 -37 0 -9 -5 -22 -12 -29 -9 -9 -8
-12 4 -12 13 0 48 37 71 77 13 21 -8 22 -36 1z"/>
<path d="M3465 3095 c-21 -17 -25 -24 -14 -25 16 0 56 37 48 45 -3 2 -18 -7
-34 -20z"/>
<path d="M8695 2995 c73 -188 156 -434 170 -499 8 -39 21 -76 30 -82 8 -6 15
-16 15 -23 0 -14 10 -14 51 3 19 8 59 17 89 20 l55 7 -35 -18 -35 -17 39 -4
c22 -2 58 3 80 12 58 22 192 56 218 56 12 0 31 8 42 18 21 19 85 35 184 47 82
11 51 25 -54 25 -96 0 -234 -24 -234 -41 0 -5 5 -9 12 -9 6 0 9 -3 6 -6 -11
-10 -179 -31 -184 -22 -7 11 53 36 114 48 26 5 60 16 77 24 46 24 135 40 148
27 6 -6 15 -11 19 -11 16 0 7 18 -16 34 -23 14 -32 14 -113 -4 -144 -32 -173
-38 -280 -55 -57 -9 -107 -13 -113 -10 -15 9 -3 43 31 86 l29 36 -43 46 c-42
45 -120 87 -162 87 -13 0 -26 9 -32 23 -28 57 -53 117 -58 138 -4 13 -18 38
-32 54 -17 20 -23 23 -18 10z m239 -327 c13 -17 17 -33 13 -66 -6 -51 -7 -53
-34 -46 -14 4 -26 22 -39 62 -10 31 -22 62 -26 68 -24 34 57 16 86 -18z"/>
<path d="M2732 2942 c-34 -34 -114 -88 -210 -142 -15 -8 -43 -24 -62 -35 -19
-12 -64 -31 -99 -44 -35 -13 -89 -39 -120 -59 -65 -41 -191 -165 -241 -237
-103 -150 -178 -267 -192 -301 -22 -53 -48 -142 -48 -165 0 -10 -4 -20 -8 -23
-9 -5 -28 -109 -36 -193 -4 -46 -47 -206 -65 -243 -4 -8 -15 -42 -25 -75 -11
-33 -22 -69 -26 -80 -4 -11 -15 -46 -24 -77 -9 -32 -21 -60 -26 -63 -6 -4 -10
-15 -10 -25 0 -11 -13 -35 -30 -53 -16 -19 -30 -40 -30 -46 0 -6 -4 -11 -10
-11 -5 0 -10 -6 -10 -13 0 -8 -15 -29 -34 -48 -44 -45 -69 -86 -58 -93 5 -3
15 1 22 9 7 8 18 15 25 15 13 0 38 27 100 104 17 21 42 52 58 69 34 40 96 145
126 217 13 30 32 74 42 97 11 23 19 46 19 51 0 4 8 26 19 48 10 21 22 55 26
74 4 19 16 52 26 72 11 21 19 44 19 53 0 33 53 170 91 235 5 8 13 24 18 35 5
11 18 31 30 44 12 14 24 36 28 50 25 109 203 372 310 458 70 57 169 155 182
181 7 13 45 44 84 70 111 73 135 92 163 135 35 53 24 57 -24 9z"/>
<path d="M2848 2903 c-13 -16 -35 -44 -48 -63 -13 -19 -65 -78 -115 -130 -49
-53 -126 -140 -170 -194 -72 -89 -150 -180 -329 -384 -75 -86 -151 -238 -141
-282 4 -20 0 -44 -12 -73 -54 -118 -57 -136 -60 -312 -2 -93 -8 -215 -14 -270
-7 -55 -11 -108 -11 -118 0 -10 -6 -36 -14 -59 -8 -22 -14 -49 -14 -60 0 -10
-25 -71 -55 -134 -51 -104 -74 -131 -89 -105 -4 5 -24 12 -46 16 -22 4 -42 11
-46 16 -7 11 -44 12 -44 0 0 -4 26 -16 58 -25 59 -18 79 -25 122 -44 49 -22
176 -64 208 -69 l32 -5 -4 308 c-3 170 -10 338 -16 374 -30 170 -38 268 -29
344 8 72 32 133 63 161 25 22 86 103 86 114 0 6 4 11 8 11 4 0 15 13 24 28 10
16 60 72 113 124 79 78 104 98 141 107 41 11 150 94 219 168 24 25 126 103
136 103 4 0 10 16 13 35 9 44 17 48 52 30 16 -8 37 -15 46 -15 10 0 32 -16 49
-35 18 -19 40 -35 51 -35 13 0 18 -8 18 -30 0 -27 3 -30 31 -30 l30 0 -23 41
c-15 27 -35 47 -58 56 -19 8 -50 28 -69 44 -20 16 -40 29 -45 29 -5 0 -19 9
-30 19 -28 26 -71 32 -71 9 0 -9 -29 -50 -65 -92 -60 -71 -90 -92 -90 -64 0
15 50 88 61 88 4 0 12 15 19 34 12 38 98 152 111 149 12 -4 11 15 -2 76 -10
49 -9 52 25 104 20 30 36 57 36 61 0 14 -17 5 -42 -21z"/>
<path d="M8548 2924 c-5 -4 -8 -21 -8 -38 1 -26 2 -28 11 -13 11 19 8 63 -3
51z"/>
<path d="M8516 2783 c-3 -10 -8 -36 -11 -58 -7 -40 -19 -83 -36 -120 -13 -30
-48 -169 -65 -260 -8 -44 -24 -98 -34 -120 -11 -22 -23 -56 -26 -75 -4 -19
-12 -42 -19 -50 -7 -8 -15 -24 -19 -35 -3 -11 -3 5 0 35 3 30 8 57 12 60 16
11 32 63 26 84 -4 17 -11 22 -24 19 -12 -3 -34 7 -57 26 -82 66 -148 111 -165
111 -22 0 -13 -27 12 -35 11 -3 22 -14 25 -24 3 -9 19 -27 35 -39 17 -13 30
-27 30 -33 0 -19 53 -59 70 -54 13 4 19 -2 24 -25 5 -26 0 -37 -29 -67 -32
-33 -48 -83 -27 -83 18 0 52 -42 52 -64 0 -21 -5 -24 -45 -28 -25 -2 -50 1
-55 6 -7 7 -14 6 -21 -1 -8 -8 8 -40 58 -117 37 -58 73 -116 79 -128 16 -31
60 -136 73 -173 l11 -30 -6 30 c-6 31 -24 273 -25 335 0 19 7 67 16 105 58
253 78 354 93 460 9 66 20 125 23 130 4 6 9 37 13 70 4 33 12 82 17 108 11 46
7 78 -5 40z"/>
<path d="M2865 2630 c-4 -6 -4 -10 -1 -10 2 0 11 -3 20 -6 9 -3 16 -2 16 4 0
14 -28 23 -35 12z"/>
<path d="M3580 2590 c0 -5 7 -10 15 -10 8 0 15 5 15 10 0 6 -7 10 -15 10 -8 0
-15 -4 -15 -10z"/>
<path d="M8310 2499 c0 -5 5 -7 10 -4 6 3 10 8 10 11 0 2 -4 4 -10 4 -5 0 -10
-5 -10 -11z"/>
<path d="M8370 2447 c0 -7 -9 -30 -20 -52 -22 -43 -26 -90 -9 -100 6 -4 12 -5
15 -2 9 9 30 167 22 167 -4 0 -8 -6 -8 -13z"/>
<path d="M8040 2440 c0 -5 5 -10 10 -10 6 0 10 5 10 10 0 6 -4 10 -10 10 -5 0
-10 -4 -10 -10z"/>
<path d="M7905 2400 c-6 -9 64 -44 72 -36 5 5 -47 46 -58 46 -4 0 -11 -4 -14
-10z"/>
<path d="M7990 2346 c0 -8 14 -24 30 -36 18 -13 30 -30 30 -44 0 -55 85 -166
126 -166 27 0 73 37 59 47 -6 5 -18 21 -28 36 -10 15 -29 33 -43 39 -13 6 -24
17 -24 25 0 7 -5 13 -10 13 -6 0 -29 17 -53 39 -55 50 -87 67 -87 47z"/>
<path d="M8071 2073 c27 -34 34 -40 47 -35 9 3 13 -3 10 -19 -2 -16 2 -24 12
-24 9 0 16 11 18 27 4 30 -26 55 -74 64 -25 5 -26 4 -13 -13z"/>
<path d="M9320 2051 c0 -5 5 -13 10 -16 6 -3 10 -2 10 4 0 5 -4 13 -10 16 -5
3 -10 2 -10 -4z"/>
<path d="M9350 2022 c0 -4 14 -16 30 -25 35 -21 40 -13 8 14 -25 20 -38 24
-38 11z"/>
<path d="M8180 2001 c0 -12 5 -21 10 -21 6 0 10 6 10 14 0 8 -4 18 -10 21 -5
3 -10 -3 -10 -14z"/>
<path d="M2473 1983 c9 -2 23 -2 30 0 6 3 -1 5 -18 5 -16 0 -22 -2 -12 -5z"/>
<path d="M9250 1940 c0 -5 5 -10 10 -10 6 0 10 5 10 10 0 6 -4 10 -10 10 -5 0
-10 -4 -10 -10z"/>
<path d="M9450 1943 c0 -5 11 -13 25 -20 29 -13 34 1 6 17 -23 12 -31 13 -31
3z"/>
<path d="M2350 1919 c-19 -10 -46 -19 -60 -19 -14 0 -38 -9 -55 -20 -16 -11
-45 -30 -63 -41 -21 -14 -31 -27 -28 -36 3 -8 6 -17 6 -19 0 -15 33 1 51 26
14 18 47 39 88 56 36 15 75 35 86 45 11 9 27 19 35 22 11 4 9 5 -5 6 -11 0
-36 -9 -55 -20z"/>
<path d="M9266 1885 c-4 -12 9 -48 32 -84 5 -9 20 14 26 42 5 20 3 27 -9 27
-9 0 -18 7 -21 15 -8 19 -20 19 -28 0z"/>
<path d="M9540 1880 c0 -4 9 -10 20 -13 11 -3 20 -2 20 3 0 4 -9 10 -20 13
-11 3 -20 2 -20 -3z"/>
<path d="M3008 1838 c-35 -45 -61 -89 -55 -95 2 -2 20 13 41 33 29 28 42 35
61 30 29 -7 35 14 10 34 -9 7 -14 19 -11 27 11 27 -13 12 -46 -29z"/>
<path d="M383 1825 c-7 -8 -13 -19 -13 -25 0 -5 -6 -10 -13 -10 -32 0 -132
-152 -125 -188 5 -24 28 -26 28 -3 0 11 5 33 12 48 12 27 96 135 110 141 5 2
8 10 8 18 0 8 5 14 10 14 6 0 10 5 10 10 0 14 -13 12 -27 -5z"/>
<path d="M9640 1816 c0 -2 8 -10 18 -17 15 -13 16 -12 3 4 -13 16 -21 21 -21
13z"/>
<path d="M8893 1765 c0 -27 2 -38 4 -22 2 15 2 37 0 50 -2 12 -4 0 -4 -28z"/>
<path d="M2140 1743 c1 -27 1 -27 15 -9 19 25 19 36 0 36 -10 0 -15 -10 -15
-27z"/>
<path d="M9300 1751 c0 -6 4 -12 9 -16 5 -3 12 -18 16 -34 7 -34 33 -48 42
-24 4 10 -3 22 -20 35 -15 11 -27 26 -27 34 0 8 -4 14 -10 14 -5 0 -10 -4 -10
-9z"/>
<path d="M3043 1717 c-12 -12 -41 -28 -63 -35 -90 -28 -136 -58 -244 -163
l-110 -107 -1 -135 c0 -124 -2 -138 -22 -166 -13 -16 -23 -34 -23 -39 0 -5 -7
-15 -16 -23 -8 -7 -13 -20 -11 -29 2 -10 0 -26 -6 -36 -6 -10 -11 -23 -12 -29
0 -5 -13 -37 -29 -70 -16 -33 -34 -71 -40 -84 -6 -14 -32 -45 -57 -70 -26 -25
-68 -75 -94 -111 -48 -67 -59 -72 -110 -51 -84 34 -135 47 -135 34 0 -5 28
-17 63 -27 34 -10 71 -22 82 -26 11 -5 40 -18 65 -28 73 -32 217 -78 335 -107
60 -15 137 -38 171 -51 69 -26 211 -44 200 -25 -4 6 -20 11 -37 11 -61 0 -65
8 -58 143 8 140 24 275 43 362 28 125 46 213 61 310 14 92 35 208 71 392 15
77 19 183 7 182 -5 0 -18 -10 -30 -22z m-143 -248 c0 -6 -11 -42 -24 -79 -14
-37 -28 -99 -32 -139 -4 -45 -11 -70 -18 -68 -22 7 15 262 42 285 20 15 32 16
32 1z m33 -76 c-3 -38 -12 -84 -19 -103 -12 -33 -13 -34 -13 -8 -1 46 21 178
30 178 4 0 5 -30 2 -67z m-52 -234 l-10 -24 0 26 c-1 14 2 29 6 33 12 12 14
-9 4 -35z m-176 1 c3 -5 1 -10 -4 -10 -6 0 -11 5 -11 10 0 6 2 10 4 10 3 0 8
-4 11 -10z m163 -143 c-3 -41 -8 -79 -12 -86 -16 -26 -26 4 -26 80 0 74 1 79
21 79 21 0 21 -4 17 -73z m-178 -77 c0 -5 -17 -10 -37 -9 -34 1 -35 2 -13 9
36 11 50 11 50 0z m20 -48 c0 -4 -15 -13 -32 -19 -71 -24 -78 -25 -78 -8 0 8
10 20 23 25 28 11 87 13 87 2z m16 -91 c-3 -14 -3 -20 0 -13 4 9 11 7 25 -9
10 -12 19 -25 19 -28 1 -3 3 -50 6 -103 l5 -98 -29 0 c-17 0 -44 12 -67 30
-35 27 -43 31 -61 29 -4 0 -15 13 -25 30 -19 32 -64 60 -76 48 -4 -4 5 -20 19
-35 17 -18 28 -44 32 -77 3 -27 12 -56 20 -63 15 -15 9 -62 -8 -62 -6 0 -33 8
-61 18 l-50 18 3 45 c7 88 51 212 82 229 10 5 26 18 36 27 20 21 103 51 122
45 9 -3 12 -14 8 -31z m-81 -241 c19 0 19 -16 1 -23 -18 -7 -36 12 -36 38 1
18 1 18 11 3 5 -10 17 -18 24 -18z m-224 -33 c-9 -23 -32 -30 -38 -11 -5 15
26 46 37 39 5 -3 5 -16 1 -28z m353 -29 c9 -35 7 -86 -4 -93 -5 -3 -33 2 -61
12 -41 14 -54 25 -65 52 -8 18 -11 37 -8 42 3 5 34 9 68 9 58 0 64 -2 70 -22z"/>
<path d="M8901 1701 c-8 -5 -10 -14 -6 -22 5 -7 12 -26 16 -43 6 -27 7 -23 8
22 1 28 0 52 -1 52 -2 0 -9 -4 -17 -9z"/>
<path d="M2080 1655 c0 -22 53 -70 59 -54 2 7 -3 17 -11 23 -8 6 -17 19 -21
29 -8 21 -27 23 -27 2z"/>
<path d="M9375 1620 c-3 -6 0 -13 9 -16 8 -3 18 -19 21 -36 4 -18 15 -32 26
-35 10 -3 19 -9 19 -14 0 -5 6 -9 14 -9 7 0 16 -9 19 -19 3 -11 17 -22 36 -26
17 -4 31 -13 31 -21 0 -7 18 -33 41 -58 40 -43 49 -46 112 -37 4 1 7 10 7 21
0 14 -7 20 -23 20 -15 0 -36 17 -66 55 -24 30 -52 57 -62 60 -10 4 -27 17 -38
31 -10 13 -34 31 -53 38 -18 8 -42 24 -52 35 -21 23 -32 26 -41 11z"/>
<path d="M10853 1575 c-3 -9 -3 -19 1 -22 7 -7 36 16 36 28 0 15 -30 10 -37
-6z"/>
<path d="M2160 1555 c7 -8 17 -15 22 -15 6 0 5 7 -2 15 -7 8 -17 15 -22 15 -6
0 -5 -7 2 -15z"/>
<path d="M5925 1560 c-3 -5 1 -10 9 -10 9 0 16 5 16 10 0 6 -4 10 -9 10 -6 0
-13 -4 -16 -10z"/>
<path d="M8931 1565 c1 -19 18 -51 18 -35 0 8 -4 22 -9 30 -5 8 -9 11 -9 5z"/>
<path d="M10762 1520 c-23 -16 -45 -30 -48 -30 -4 0 -16 -9 -28 -21 -12 -11
-41 -35 -66 -52 -25 -18 -46 -41 -48 -50 -5 -24 9 -21 44 11 17 15 41 35 55
44 13 10 48 36 78 58 30 22 62 42 73 45 10 4 18 11 18 16 0 18 -38 8 -78 -21z"/>
<path d="M9710 1522 c0 -12 19 -26 26 -19 2 2 -2 10 -11 17 -9 8 -15 8 -15 2z"/>
<path d="M290 1516 c0 -2 7 -9 15 -16 13 -11 14 -10 9 4 -5 14 -24 23 -24 12z"/>
<path d="M334 1465 c8 -8 18 -15 22 -15 3 0 1 7 -6 15 -7 8 -17 15 -22 15 -5
0 -3 -7 6 -15z"/>
<path d="M9809 1428 c51 -35 128 -110 135 -135 4 -11 18 -24 31 -27 14 -4 25
-11 25 -17 0 -5 16 -25 35 -45 19 -19 35 -39 35 -45 0 -6 10 -9 23 -7 17 2 26
-6 42 -39 11 -23 25 -42 30 -43 6 0 24 11 40 24 33 27 27 48 -7 27 -20 -12
-24 -11 -42 11 -12 14 -38 53 -58 86 -37 60 -112 126 -175 155 -15 6 -50 27
-76 45 -27 17 -54 32 -60 32 -7 0 3 -10 22 -22z"/>
<path d="M445 1380 c-3 -5 -1 -10 6 -10 7 0 21 -7 31 -17 10 -9 20 -14 22 -12
2 2 -9 14 -25 27 -17 13 -30 18 -34 12z"/>
<path d="M9486 1359 c12 -13 20 -16 22 -9 3 7 -2 16 -9 21 -25 16 -32 9 -13
-12z"/>
<path d="M10533 1352 c-8 -5 -7 -11 2 -19 10 -10 14 -9 19 2 6 17 -5 26 -21
17z"/>
<path d="M8911 1312 c-41 -20 -52 -42 -21 -42 28 0 80 31 80 47 0 17 -18 16
-59 -5z"/>
<path d="M10479 1310 c-18 -15 -20 -19 -8 -20 9 0 24 9 34 20 23 26 4 26 -26
0z"/>
<path d="M592 1280 c2 -8 15 -20 27 -26 13 -7 28 -17 34 -23 6 -6 15 -11 20
-11 8 0 -12 18 -67 60 -17 13 -19 13 -14 0z"/>
<path d="M10405 1266 c-11 -13 -35 -31 -52 -40 -29 -14 -45 -36 -27 -36 23 0
124 75 124 92 0 16 -25 7 -45 -16z"/>
<path d="M740 1183 c0 -12 79 -47 87 -40 3 4 -1 7 -10 7 -9 0 -17 5 -17 10 0
6 -7 10 -15 10 -8 0 -15 5 -15 10 0 6 -7 10 -15 10 -8 0 -15 -3 -15 -7z"/>
<path d="M10290 1174 c0 -8 5 -12 10 -9 6 3 10 10 10 16 0 5 -4 9 -10 9 -5 0
-10 -7 -10 -16z"/>
<path d="M9660 1155 c7 -8 17 -15 22 -15 6 0 5 7 -2 15 -7 8 -17 15 -22 15 -6
0 -5 -7 2 -15z"/>
<path d="M10250 1155 c-14 -16 -10 -18 14 -9 9 3 16 10 16 15 0 14 -16 11 -30
-6z"/>
<path d="M5200 1110 c0 -5 5 -10 10 -10 6 0 10 5 10 10 0 6 -4 10 -10 10 -5 0
-10 -4 -10 -10z"/>
<path d="M925 1087 c11 -8 31 -18 45 -22 24 -7 24 -6 5 8 -11 8 -31 18 -45 22
-24 7 -24 6 -5 -8z"/>
<path d="M10066 1044 c-27 -13 -56 -30 -65 -37 -9 -8 -25 -17 -35 -21 -13 -4
-16 -10 -9 -17 6 -6 26 0 59 17 27 15 61 33 76 41 65 34 40 49 -26 17z"/>
<path d="M1000 1053 c0 -9 29 -33 39 -33 19 0 11 15 -14 27 -14 6 -25 9 -25 6z"/>
<path d="M5111 1014 c0 -11 3 -14 6 -6 3 7 2 16 -1 19 -3 4 -6 -2 -5 -13z"/>
<path d="M1060 1015 c0 -4 79 -45 87 -45 2 0 3 4 3 9 0 5 -15 16 -34 25 -34
16 -56 20 -56 11z"/>
<path d="M1160 964 c0 -5 64 -34 77 -34 4 0 -5 9 -22 20 -29 19 -55 26 -55 14z"/>
<path d="M1310 897 c16 -16 230 -117 246 -117 19 1 19 1 0 15 -11 8 -28 15
-37 15 -10 0 -19 3 -21 8 -4 9 -64 38 -98 48 -14 4 -27 10 -30 14 -3 4 -18 10
-35 14 -16 4 -28 5 -25 3z"/>
<path d="M4699 865 c-3 -6 -3 -55 0 -110 l6 -100 14 41 c7 23 11 57 8 75 -10
61 -23 104 -28 94z"/>
<path d="M1580 770 c0 -5 12 -10 26 -10 14 0 23 4 19 10 -3 6 -15 10 -26 10
-10 0 -19 -4 -19 -10z"/>
<path d="M4755 573 c3 -21 13 -48 20 -59 8 -12 11 -31 8 -43 -3 -12 -1 -21 6
-21 14 0 14 25 -1 75 -15 51 -15 52 -17 70 0 8 -6 15 -12 15 -8 0 -9 -13 -4
-37z"/>
<path d="M6640 335 c7 -8 17 -15 22 -15 6 0 5 7 -2 15 -7 8 -17 15 -22 15 -6
0 -5 -7 2 -15z"/>
<path d="M5130 209 c0 -5 5 -7 10 -4 6 3 10 8 10 11 0 2 -4 4 -10 4 -5 0 -10
-5 -10 -11z"/>
</g>
</svg>
