<?xml version="1.0" standalone="no"?>
<!DOCTYPE svg PUBLIC "-//W3C//DTD SVG 20010904//EN"
 "http://www.w3.org/TR/2001/REC-SVG-20010904/DTD/svg10.dtd">
<svg version="1.0" xmlns="http://www.w3.org/2000/svg"
 width="1738.000000pt" height="852.000000pt" viewBox="0 0 1738.000000 852.000000"
 preserveAspectRatio="xMidYMid meet">

<g transform="translate(0.000000,852.000000) scale(0.100000,-0.100000)"
fill="#FFFFFF" stroke="none">
<path d="M3940 6014 c-307 -26 -573 -109 -845 -264 -98 -55 -275 -191 -374
-285 -202 -193 -383 -455 -466 -675 -16 -41 -32 -79 -37 -85 -4 -5 -8 -17 -8
-27 0 -10 -4 -26 -9 -36 -12 -21 -35 -101 -50 -167 -6 -27 -15 -70 -21 -95 -7
-25 -14 -171 -17 -325 -5 -284 0 -351 39 -520 45 -196 150 -436 272 -624 229
-351 613 -659 981 -785 28 -10 59 -22 70 -27 33 -15 173 -50 280 -70 209 -39
565 -35 754 8 36 8 86 19 110 24 45 9 99 25 136 40 11 4 46 17 79 29 67 24
142 55 171 72 11 7 46 25 79 41 l58 30 112 -56 c206 -103 334 -146 581 -194
73 -14 137 -17 335 -16 250 1 245 1 495 51 39 8 98 26 140 43 11 4 46 17 79
29 377 135 718 408 965 772 47 69 181 320 194 363 3 11 18 54 33 95 70 194 77
245 81 619 3 331 3 336 -23 455 -26 118 -66 254 -84 288 -6 10 -10 22 -10 27
0 12 -100 218 -139 287 -96 169 -308 416 -469 545 -181 145 -329 229 -587 328
-31 12 -97 33 -130 42 -16 4 -55 14 -85 22 -112 30 -236 41 -470 41 -246 0
-305 -6 -485 -50 -188 -47 -380 -123 -503 -201 -22 -14 -31 -11 -125 35 -129
63 -194 92 -208 92 -6 0 -25 6 -42 13 -78 34 -250 79 -367 97 -69 11 -414 21
-490 14z m445 -160 c198 -34 319 -68 445 -122 124 -53 140 -63 140 -80 0 -12
-30 -44 -75 -80 -306 -252 -519 -560 -639 -922 -46 -142 -70 -260 -97 -490
-12 -101 -6 -329 10 -402 6 -24 15 -74 22 -113 18 -111 67 -286 103 -370 7
-16 19 -46 26 -65 26 -66 113 -225 178 -325 100 -152 245 -309 405 -440 31
-26 57 -53 57 -60 0 -8 6 -15 13 -18 11 -4 -22 -21 -172 -89 -86 -39 -260 -88
-381 -109 -103 -18 -459 -23 -535 -9 -149 29 -212 42 -235 50 -14 4 -52 16
-85 25 -66 20 -99 34 -252 106 -56 27 -107 49 -113 49 -5 0 -10 5 -10 10 0 6
-6 10 -13 10 -19 0 -144 87 -255 178 -200 162 -379 394 -491 635 -64 137 -71
155 -120 322 -31 102 -70 450 -55 488 2 7 9 73 13 147 12 166 29 266 60 345 5
11 16 45 26 75 9 30 26 74 36 97 10 24 19 46 19 49 0 15 71 156 115 229 116
192 331 437 465 528 245 167 377 231 635 304 243 70 531 88 760 47z m2040 0
c190 -33 331 -71 445 -121 404 -178 696 -433 902 -788 55 -95 142 -286 159
-350 4 -16 15 -55 23 -85 84 -290 88 -681 10 -970 -37 -137 -63 -206 -134
-355 -191 -402 -562 -744 -985 -908 -147 -56 -247 -83 -436 -117 -84 -15 -411
-15 -486 0 -32 6 -83 16 -113 22 -99 18 -306 82 -324 99 -6 5 -16 9 -22 9 -7
0 -42 13 -77 30 -36 16 -70 30 -76 30 -24 0 -20 22 11 50 18 17 36 30 40 30 4
0 22 15 41 33 18 17 60 57 93 87 93 87 304 332 304 354 0 3 15 29 33 58 36 56
96 170 120 228 92 219 119 313 147 520 22 152 25 368 9 505 -23 195 -27 223
-52 315 -44 161 -94 284 -180 450 -37 70 -141 228 -183 277 -11 12 -48 56 -84
99 -67 80 -230 231 -281 261 -46 28 -37 47 39 78 37 16 85 36 107 46 22 9 65
25 95 34 30 10 64 21 75 26 49 19 189 47 320 65 120 15 331 10 460 -12z
m-1213 -341 c191 -144 384 -352 463 -498 15 -27 33 -57 40 -65 32 -38 95 -169
89 -184 -5 -12 -33 11 -123 102 -64 65 -232 232 -373 371 -142 140 -258 257
-258 261 0 15 61 60 81 60 10 0 47 -21 81 -47z m-222 -78 c0 -8 -9 -15 -20
-15 -11 0 -20 7 -20 15 0 8 9 15 20 15 11 0 20 -7 20 -15z m422 -542 c275
-274 507 -511 515 -528 10 -18 22 -88 30 -175 8 -80 17 -164 20 -187 4 -31 1
-43 -8 -43 -7 0 -284 271 -616 602 -668 668 -634 627 -572 698 54 62 120 130
126 130 3 0 230 -224 505 -497z m-124 -511 c357 -357 652 -658 656 -669 4 -13
-2 -48 -14 -84 -11 -34 -20 -73 -20 -85 0 -13 -4 -26 -10 -29 -5 -3 -10 -14
-10 -24 0 -10 -11 -28 -24 -40 l-24 -22 -16 23 c-9 13 -316 323 -682 689
l-666 667 32 58 c78 141 94 162 122 164 4 0 299 -292 656 -648z m-170 -454
c375 -376 682 -687 682 -692 0 -19 -104 -199 -128 -221 -34 -32 -38 -31 -57 5
-9 16 -299 313 -645 660 l-630 630 0 54 c0 30 4 57 9 60 4 3 11 30 15 59 8 71
37 126 66 127 3 0 312 -307 688 -682z m-766 132 c2 -5 270 -277 596 -603 467
-468 592 -598 592 -617 -1 -29 -136 -180 -161 -180 -18 0 -997 977 -1032 1030
-13 19 -29 62 -35 94 -13 63 -16 268 -5 279 10 10 41 8 45 -3z m493 -1132
c204 -205 375 -381 378 -390 7 -19 -48 -68 -76 -68 -57 0 -345 256 -450 400
-26 36 -52 70 -57 77 -21 25 -177 297 -198 346 -2 4 4 7 13 7 9 0 185 -168
390 -372z m-64 223 c52 -34 180 -164 201 -206 9 -16 33 -46 54 -65 36 -32 37
-35 17 -38 -32 -5 -60 14 -88 57 -13 22 -39 49 -57 61 -47 33 -128 112 -128
126 0 6 -16 24 -35 38 -35 27 -46 56 -22 56 7 0 33 -13 58 -29z"/>
<path d="M13450 5829 c-110 -17 -212 -40 -269 -59 -294 -99 -562 -335 -685
-603 -54 -118 -66 -147 -66 -162 0 -9 -4 -23 -10 -33 -18 -31 -49 -227 -56
-348 -30 -555 227 -1021 681 -1234 46 -22 90 -40 98 -40 7 0 17 -3 21 -7 8 -9
73 -27 181 -50 116 -26 457 -22 565 6 150 39 236 78 338 154 73 55 73 54 125
120 21 26 46 47 56 47 15 0 17 -14 15 -151 l-1 -151 24 -9 c35 -13 341 -3 359
12 12 10 14 113 14 658 0 490 -3 650 -12 659 -17 17 -1119 17 -1136 0 -8 -8
-12 -65 -12 -189 0 -159 2 -178 18 -184 9 -4 157 -6 327 -5 251 1 314 -2 329
-13 19 -14 18 -17 -17 -102 -52 -126 -93 -189 -169 -260 -74 -68 -150 -112
-243 -139 -33 -10 -73 -23 -90 -29 -41 -16 -256 -14 -330 2 -77 17 -157 41
-170 52 -5 5 -15 9 -22 9 -24 0 -158 93 -210 147 -81 83 -148 194 -183 304
-33 102 -43 180 -43 329 -1 229 34 364 130 510 57 87 96 129 174 187 113 85
224 127 375 143 281 29 532 -74 685 -282 61 -85 72 -85 202 -19 200 103 275
149 283 174 9 29 -121 190 -237 292 -44 39 -180 125 -244 154 -84 39 -103 46
-250 86 -120 32 -410 45 -545 24z"/>
<path d="M9148 5812 c-16 -2 -30 -11 -33 -23 -4 -11 -7 -572 -8 -1246 l-1
-1227 24 -5 c14 -3 338 -4 720 -1 l695 5 2 201 c1 110 -2 206 -7 213 -6 11
-93 14 -457 16 -246 1 -456 5 -465 9 -16 7 -18 34 -20 274 -2 202 0 272 10
290 l12 22 400 0 399 0 12 22 c16 29 14 387 -1 402 -8 7 -140 11 -398 11 -297
0 -392 3 -409 13 -23 13 -23 13 -23 277 l0 265 43 21 c41 22 51 22 457 23 228
1 421 5 428 9 18 12 17 400 -1 416 -9 7 -215 11 -683 13 -368 2 -681 2 -696 0z"/>
<path d="M11613 5812 c-12 -2 -26 -9 -32 -15 -6 -8 -11 -317 -14 -882 -3 -607
-8 -888 -16 -929 -22 -113 -77 -197 -149 -232 -63 -30 -151 -44 -202 -33 -105
24 -171 43 -176 51 -3 4 -12 8 -21 8 -8 0 -28 9 -44 21 -37 26 -91 35 -106 17
-6 -7 -52 -93 -102 -191 -67 -130 -89 -182 -82 -191 14 -16 82 -50 146 -71 28
-10 59 -21 70 -25 30 -12 123 -37 190 -52 71 -15 438 -16 457 -1 7 6 28 13 46
16 81 16 221 98 303 178 29 28 99 124 99 135 0 4 11 31 25 60 61 129 59 89 62
1144 2 531 0 970 -4 977 -6 8 -73 12 -218 15 -116 1 -220 2 -232 0z"/>
<path d="M9352 2578 c-15 -15 -16 -132 -2 -158 16 -30 47 -14 54 28 10 63 7
110 -10 126 -19 19 -26 20 -42 4z"/>
<path d="M11345 2566 c-30 -13 -55 -51 -55 -83 0 -9 -12 -29 -26 -44 l-26 -27
27 -18 27 -18 -7 -109 c-7 -117 -4 -127 41 -127 29 0 34 16 34 123 0 98 5 112
40 130 36 19 29 35 -22 51 -12 3 -18 15 -18 33 0 34 8 46 38 62 12 6 22 18 22
26 0 19 -34 19 -75 1z"/>
<path d="M13756 2564 c-19 -19 -17 -33 7 -48 24 -15 56 17 41 41 -15 24 -29
26 -48 7z"/>
<path d="M9183 2533 c-7 -3 -13 -20 -13 -38 0 -25 -7 -38 -27 -53 l-27 -20 27
-32 c24 -28 27 -40 27 -105 0 -41 5 -85 11 -99 13 -27 57 -50 86 -44 25 5 23
21 -9 56 -20 23 -29 46 -34 91 -6 58 -5 61 25 91 17 17 31 34 31 37 0 3 -13
18 -30 33 -18 17 -30 38 -30 53 0 25 -15 37 -37 30z"/>
<path d="M13594 2532 c-6 -4 -14 -20 -18 -36 -4 -16 -20 -41 -35 -57 -15 -15
-25 -32 -22 -37 3 -5 26 -21 50 -36 l44 -28 -27 -24 c-18 -18 -26 -35 -26 -59
0 -72 43 -115 115 -115 29 0 36 4 33 17 -2 9 -16 24 -33 33 -22 12 -32 26 -37
56 -11 62 -9 112 5 124 6 5 23 18 36 29 l25 18 -31 17 c-25 12 -34 25 -40 58
-8 42 -19 53 -39 40z"/>
<path d="M10646 2518 c-19 -70 -20 -72 -76 -89 -47 -14 -60 -15 -92 -3 -21 7
-39 10 -41 6 -2 -4 -4 -70 -3 -147 1 -133 2 -140 21 -140 18 0 21 8 25 80 6
92 28 139 73 155 43 15 60 13 80 -10 9 -11 23 -20 30 -20 21 0 72 27 91 49 16
18 16 20 -4 34 -12 8 -28 32 -35 54 -10 29 -19 39 -39 41 -15 2 -28 -2 -30
-10z"/>
<path d="M9455 2425 c-32 -7 -49 -17 -47 -25 4 -17 -18 -31 -40 -24 -14 4 -17
-6 -23 -58 -8 -75 -2 -155 13 -170 18 -18 47 -4 53 27 4 17 7 67 8 111 1 86 6
97 52 108 19 4 34 0 53 -15 26 -20 27 -23 24 -121 -3 -111 5 -127 55 -114 30
7 35 33 17 80 -11 30 -5 52 17 60 22 9 43 -12 43 -43 0 -77 102 -122 199 -87
19 7 41 22 49 34 13 19 12 22 -2 28 -9 3 -31 -1 -50 -10 -52 -24 -91 -20 -128
13 -32 29 -32 30 -15 48 15 15 35 18 120 18 l102 0 3 26 c8 65 -64 128 -143
128 -70 -1 -108 -20 -130 -67 -11 -23 -25 -42 -31 -42 -6 0 -21 19 -33 43 -16
30 -32 47 -55 55 -38 14 -44 14 -111 -3z m409 -46 c14 -11 26 -29 26 -40 0
-17 -8 -19 -74 -19 -68 0 -75 2 -82 22 -16 50 78 78 130 37z"/>
<path d="M10163 2424 c-18 -7 -37 -23 -43 -34 -10 -18 -8 -20 17 -20 15 0 37
7 47 15 28 21 79 19 100 -4 29 -31 7 -52 -80 -78 -114 -33 -146 -85 -87 -139
24 -23 34 -25 78 -20 64 7 72 7 123 0 l42 -6 0 85 c0 125 -15 184 -50 202 -36
18 -104 18 -147 -1z m131 -160 c8 -20 -15 -58 -49 -80 -26 -17 -65 -11 -65 11
0 7 -3 20 -6 29 -4 10 5 22 28 36 40 24 83 26 92 4z"/>
<path d="M10999 2424 c-25 -8 -55 -24 -65 -35 -26 -29 -32 -135 -10 -177 36
-69 167 -96 237 -49 45 30 59 61 59 132 0 82 -15 106 -75 127 -60 20 -86 20
-146 2z m118 -49 c12 -8 26 -30 32 -48 14 -42 -5 -103 -40 -129 -22 -17 -29
-17 -64 -6 -46 15 -65 45 -65 106 0 76 77 119 137 77z"/>
<path d="M11638 2424 c-68 -21 -88 -51 -88 -134 0 -53 4 -73 21 -94 42 -54
152 -73 213 -37 33 19 73 67 64 77 -8 7 -78 -16 -99 -33 -23 -19 -76 -16 -98
6 -11 11 -27 33 -35 50 -14 26 -14 33 -1 65 27 65 83 83 140 46 30 -20 85 -27
85 -11 0 20 -38 54 -75 67 -49 17 -67 17 -127 -2z"/>
<path d="M11962 2427 c-26 -8 -55 -26 -75 -47 -27 -30 -32 -43 -32 -85 0 -91
71 -155 172 -155 59 0 103 18 127 52 19 26 22 158 5 189 -13 24 -90 59 -127
58 -15 -1 -46 -6 -70 -12z m115 -59 c51 -56 53 -93 7 -147 -21 -25 -34 -31
-64 -31 -41 0 -79 28 -81 59 -5 60 4 107 23 124 30 25 90 22 115 -5z"/>
<path d="M12238 2433 c-2 -4 -4 -71 -3 -148 0 -133 1 -140 20 -140 18 0 21 10
30 90 10 83 25 129 50 147 17 13 72 9 83 -5 6 -7 13 -60 14 -117 3 -112 12
-129 60 -117 25 7 25 7 21 99 -6 142 -10 156 -46 179 -25 16 -41 19 -77 13
-63 -9 -112 -9 -131 0 -10 4 -19 4 -21 -1z"/>
<path d="M12579 2434 c-2 -5 -4 -72 -4 -149 l0 -140 25 -3 c48 -5 54 8 54 118
1 112 10 130 67 130 43 0 51 -19 44 -107 -3 -43 -2 -91 3 -108 7 -26 13 -30
42 -30 32 0 35 3 45 45 14 57 39 65 59 17 17 -42 63 -67 123 -67 56 0 123 33
123 60 0 24 -35 27 -64 5 -31 -24 -87 -19 -119 10 -15 14 -27 29 -27 33 1 26
22 31 122 33 112 2 138 -5 138 -42 0 -48 84 -99 164 -99 52 0 116 36 116 66 0
13 -4 25 -9 28 -10 6 -67 -20 -76 -35 -4 -5 -22 -9 -41 -9 -39 0 -73 29 -94
80 -11 25 -9 34 10 65 38 62 82 71 142 30 44 -30 59 -31 75 -6 17 28 -13 54
-80 71 -82 19 -139 2 -194 -59 -41 -44 -43 -45 -58 -27 -8 11 -15 30 -15 43 0
17 -10 27 -36 38 -44 18 -73 19 -128 3 -55 -15 -64 -24 -78 -70 -16 -55 -46
-50 -64 12 -17 57 -52 76 -122 64 -26 -4 -50 -7 -54 -6 -45 10 -86 12 -89 6z
m514 -57 c20 -16 26 -27 21 -40 -5 -15 -17 -17 -78 -15 -61 3 -71 6 -74 22 -5
25 35 56 73 56 17 0 43 -10 58 -23z"/>
<path d="M13761 2426 c-8 -10 -13 -58 -14 -136 -1 -99 2 -123 15 -137 9 -8 23
-13 31 -10 11 4 13 31 11 141 -2 75 -6 141 -9 146 -9 14 -21 12 -34 -4z"/>
<path d="M13895 2432 c-5 -4 -11 -66 -13 -138 -2 -108 0 -133 12 -144 9 -7 23
-10 31 -6 12 4 15 24 15 95 0 82 2 92 26 120 19 23 34 31 58 31 52 0 64 -22
71 -135 3 -55 10 -104 15 -108 4 -5 16 -7 26 -5 21 4 21 3 9 174 l-8 102 -38
12 c-22 8 -49 10 -66 5 -37 -10 -94 -11 -113 -2 -8 4 -19 3 -25 -1z"/>
<path d="M14269 2427 c-14 -7 -38 -26 -53 -43 -21 -25 -26 -42 -26 -83 0 -46
4 -56 41 -96 38 -42 45 -45 90 -45 27 0 58 5 68 12 15 9 23 9 35 -1 23 -20 19
-55 -10 -90 -31 -37 -70 -41 -132 -11 -49 24 -56 24 -71 6 -15 -18 8 -42 64
-67 50 -23 93 -24 144 -3 71 28 82 66 85 277 3 157 -1 165 -67 145 -28 -8 -43
-8 -62 0 -32 15 -72 14 -106 -1z m146 -62 c45 -44 24 -141 -35 -160 -42 -13
-130 52 -130 97 0 8 15 31 34 51 42 46 93 51 131 12z"/>
<path d="M10636 2314 c-9 -25 -7 -78 5 -113 12 -34 53 -61 93 -61 37 0 41 18
11 50 -17 17 -29 43 -32 70 -4 26 -12 44 -22 47 -9 2 -23 8 -33 13 -11 6 -18
4 -22 -6z"/>
</g>
</svg>
