<?xml version="1.0" standalone="no"?>
<!DOCTYPE svg PUBLIC "-//W3C//DTD SVG 20010904//EN"
 "http://www.w3.org/TR/2001/REC-SVG-20010904/DTD/svg10.dtd">
<svg version="1.0" xmlns="http://www.w3.org/2000/svg"
 width="978.000000pt" height="1172.000000pt" viewBox="0 0 978.000000 1172.000000"
 preserveAspectRatio="xMidYMid meet">

<g transform="translate(0.000000,1172.000000) scale(0.100000,-0.100000)"
fill="#000000" stroke="none">
<path d="M5850 11616 c0 -38 -44 -106 -99 -154 -33 -29 -64 -52 -70 -52 -6 0
-11 -4 -11 -10 0 -5 -11 -12 -25 -16 -14 -3 -25 -10 -25 -15 0 -5 -6 -9 -14
-9 -8 0 -16 -3 -18 -7 -4 -10 -65 -53 -73 -53 -4 0 -25 -13 -48 -29 -23 -15
-71 -44 -107 -64 -36 -19 -87 -47 -115 -62 -52 -29 -100 -54 -220 -113 -38
-19 -77 -39 -85 -43 -39 -20 -189 -79 -202 -79 -8 0 -18 -4 -23 -9 -6 -5 -26
-12 -46 -16 l-35 -7 -2 89 c-1 85 -18 188 -41 245 -7 19 -15 26 -26 22 -11 -5
-15 -22 -15 -69 0 -89 -26 -215 -59 -287 -16 -33 -30 -56 -32 -49 -3 7 -18 8
-42 4 -28 -4 -42 -13 -52 -34 -18 -34 -19 -63 -4 -87 9 -14 7 -37 -9 -98 -30
-116 -38 -133 -68 -140 -30 -8 -59 6 -59 27 0 8 -7 14 -15 15 -8 1 -20 2 -26
2 -6 1 -19 20 -29 42 -10 22 -23 40 -29 40 -14 0 -66 -61 -66 -78 0 -7 -32
-52 -71 -99 -49 -60 -68 -78 -63 -59 7 31 3 32 -34 9 -45 -29 -72 -56 -72 -70
0 -22 -49 -66 -66 -59 -24 9 -91 -33 -117 -73 -13 -20 -27 -52 -31 -72 -3 -20
-21 -56 -39 -79 -17 -24 -41 -60 -53 -80 -31 -54 -131 -185 -211 -275 -10 -11
-19 -28 -21 -37 -1 -10 -9 -32 -16 -50 l-14 -33 -12 27 c-12 24 -10 30 24 69
31 37 34 44 20 52 -27 15 -61 -1 -74 -35 -7 -18 -23 -55 -35 -83 -13 -27 -38
-84 -56 -125 -18 -41 -47 -99 -64 -130 -90 -162 -146 -325 -131 -385 12 -49
38 -23 106 110 154 298 158 305 203 305 24 0 28 -3 22 -17 -4 -10 -10 -26 -12
-35 -3 -10 -10 -18 -17 -19 -55 -4 -73 -20 -82 -75 -3 -24 -10 -41 -15 -38 -5
3 -9 0 -9 -5 0 -12 11 -14 34 -5 9 3 16 12 16 19 0 7 7 15 15 19 8 3 15 12 15
21 0 8 8 15 19 15 10 0 24 7 31 15 7 8 19 15 26 15 8 0 14 7 14 15 0 9 10 20
23 26 13 6 32 27 42 47 11 20 37 69 59 107 21 39 44 79 50 90 30 54 126 187
177 247 31 36 78 99 105 138 26 40 61 84 77 99 15 14 71 78 122 142 52 64 115
134 140 155 24 21 45 44 45 50 0 6 11 21 25 34 39 37 29 9 -24 -66 -44 -63
-77 -102 -144 -174 -13 -14 -50 -61 -82 -105 -83 -113 -210 -270 -238 -292
-32 -25 -97 -116 -139 -193 -19 -36 -71 -124 -116 -196 -72 -119 -79 -133 -65
-147 36 -35 66 -169 44 -192 -12 -14 -31 -72 -41 -125 -4 -25 -20 -78 -34
-118 -17 -44 -30 -109 -36 -170 -5 -53 -14 -152 -21 -220 -9 -87 -9 -126 -2
-133 21 -21 45 36 50 121 4 60 9 78 18 70 8 -7 14 27 24 137 7 81 16 168 21
193 11 54 39 204 51 280 23 137 133 335 320 575 38 50 121 158 184 240 145
190 208 258 326 345 80 61 94 68 100 53 4 -10 2 -27 -3 -37 -9 -16 -7 -18 7
-13 9 4 18 7 20 7 2 0 19 21 36 48 18 26 39 51 46 55 7 4 13 12 13 18 0 13 97
136 140 176 56 54 238 170 340 219 30 14 59 32 63 40 5 9 18 19 30 25 12 5 36
18 52 29 33 22 72 40 85 40 4 0 38 18 74 40 36 22 70 40 76 40 5 0 10 3 10 8
1 4 24 23 51 42 230 160 395 320 454 441 33 68 46 159 21 159 -9 0 -16 -6 -16
-14z m-1358 -998 c-7 -7 -12 -8 -12 -2 0 14 12 26 19 19 2 -3 -1 -11 -7 -17z
m-51 -75 c-8 -15 -10 -15 -11 -2 0 17 10 32 18 25 2 -3 -1 -13 -7 -23z m-581
-277 c0 -3 -4 -8 -10 -11 -5 -3 -10 -1 -10 4 0 6 5 11 10 11 6 0 10 -2 10 -4z
m-113 -128 c-29 -57 -53 -96 -55 -87 -5 26 84 189 103 189 2 0 -19 -46 -48
-102z"/>
<path d="M6335 11280 c-77 -27 -147 -51 -155 -54 -8 -3 -33 -12 -55 -21 -22
-9 -58 -22 -80 -30 -71 -24 -172 -63 -216 -84 -24 -11 -73 -32 -109 -46 -80
-32 -186 -84 -221 -107 -14 -10 -29 -15 -33 -11 -3 3 -6 1 -6 -5 0 -7 -6 -12
-13 -12 -7 0 -26 -13 -42 -30 -16 -16 -35 -30 -42 -30 -7 0 -13 -8 -13 -19 0
-18 -108 -77 -295 -160 -38 -18 -82 -38 -97 -46 -60 -32 -86 -45 -153 -75
-194 -88 -226 -112 -350 -260 -68 -80 -101 -109 -207 -180 -146 -99 -230 -169
-279 -235 -19 -25 -79 -103 -134 -173 -201 -254 -274 -363 -352 -522 -24 -49
-53 -150 -53 -184 0 -19 -5 -47 -10 -62 -6 -15 -17 -86 -25 -158 -8 -72 -18
-142 -21 -156 -24 -102 -37 -206 -34 -280 3 -47 4 -224 5 -395 l0 -309 -22
-12 c-41 -20 -120 -111 -169 -196 -27 -46 -54 -92 -61 -103 -7 -11 -18 -30
-24 -42 -7 -13 -16 -23 -20 -23 -4 0 -13 -15 -19 -34 -14 -43 -40 -68 -40 -39
0 24 32 91 76 161 19 29 34 56 34 61 0 16 99 159 115 164 16 7 65 80 65 99 0
6 7 19 16 29 9 10 16 34 15 56 0 21 -1 75 -2 121 -1 63 -4 82 -15 82 -10 0
-14 -12 -14 -40 0 -46 -21 -84 -71 -128 -39 -34 -193 -257 -267 -386 l-46 -81
-3 -142 c-1 -78 2 -145 7 -148 4 -3 19 -1 33 4 27 11 47 -2 47 -30 0 -9 9 -27
20 -40 l20 -24 -6 71 c-8 86 1 144 21 144 12 0 15 -17 16 -82 0 -46 5 -108 10
-138 5 -30 12 -81 15 -112 4 -32 11 -58 15 -58 5 0 9 -11 9 -25 0 -33 34 -91
71 -123 57 -47 181 -230 201 -297 9 -27 37 -65 93 -121 97 -97 116 -109 182
-119 47 -6 53 -10 82 -55 31 -48 38 -83 22 -109 -10 -16 -3 -44 9 -36 8 5 23
-44 40 -135 11 -56 43 -389 54 -560 29 -461 29 -411 -3 -860 -5 -63 -14 -128
-20 -143 -6 -16 -11 -44 -11 -62 0 -35 -37 -143 -83 -245 -32 -72 -75 -96
-142 -78 -32 9 -45 18 -47 32 -4 27 -67 40 -131 26 -45 -9 -101 -43 -137 -81
-44 -48 -108 -87 -150 -93 -80 -12 -133 -59 -210 -186 -18 -30 -38 -58 -44
-62 -6 -4 -7 -10 -3 -14 3 -4 25 5 47 20 22 14 43 26 46 26 4 0 21 11 38 24
17 13 42 27 56 31 14 4 41 21 60 36 19 16 38 29 42 29 4 0 29 13 55 30 26 16
53 30 61 30 8 0 27 11 44 25 16 14 40 25 53 25 13 0 37 12 54 26 33 27 81 37
88 17 3 -7 0 -13 -6 -13 -6 0 -40 -29 -76 -65 -57 -56 -205 -163 -286 -206
-107 -57 -189 -105 -269 -158 -56 -37 -70 -48 -124 -91 -17 -14 -44 -32 -59
-40 -16 -8 -32 -22 -37 -31 -20 -36 -320 -163 -520 -219 -36 -10 -92 -26 -125
-35 -48 -14 -81 -16 -167 -11 l-108 7 -12 -28 c-58 -132 -340 -474 -453 -551
-22 -14 -65 -45 -95 -67 -30 -22 -71 -49 -90 -59 -19 -11 -37 -22 -40 -25 -6
-7 -68 -31 -97 -38 -42 -10 -25 -26 20 -19 40 7 166 64 187 86 3 3 39 28 80
56 41 28 103 69 136 92 34 23 66 42 72 42 6 0 27 13 45 30 45 39 224 129 267
134 19 2 36 9 38 15 7 20 88 115 126 148 27 23 75 44 169 74 73 23 183 62 246
85 62 24 140 46 173 50 78 9 126 36 221 128 70 68 101 89 237 164 68 37 258
150 315 187 28 17 75 44 105 58 30 15 90 55 132 91 75 63 113 84 126 72 3 -4
-20 -56 -52 -116 -31 -60 -68 -148 -81 -195 -21 -78 -22 -93 -13 -183 5 -53
10 -108 11 -121 2 -18 -9 -33 -40 -57 -23 -17 -48 -34 -55 -37 -9 -3 0 -16 24
-38 36 -34 49 -57 113 -214 65 -158 118 -261 171 -332 30 -40 54 -76 54 -81 0
-5 43 -46 95 -93 52 -46 95 -86 95 -89 0 -3 16 -21 35 -40 78 -77 159 -190
203 -285 20 -42 24 -67 24 -160 1 -93 -2 -117 -20 -157 -12 -26 -22 -53 -22
-61 0 -7 -3 -17 -7 -21 -14 -13 -30 -84 -23 -96 4 -7 10 3 15 26 3 21 13 47
21 58 8 12 19 38 25 59 11 42 20 45 46 18 10 -11 32 -22 48 -26 58 -13 63 -16
73 -43 14 -36 25 -153 17 -184 -4 -15 -30 -43 -66 -69 -61 -46 -78 -75 -60
-106 9 -15 10 -15 11 -2 0 9 12 28 26 42 22 22 29 24 49 15 18 -8 28 -8 40 2
24 20 18 38 -10 32 -28 -5 -36 22 -10 32 29 11 46 72 39 136 l-6 58 45 21 c61
28 197 71 224 71 16 0 21 -4 17 -15 -4 -8 -17 -15 -30 -15 -13 0 -33 -4 -46
-9 -13 -5 -36 -12 -51 -16 -15 -3 -25 -10 -22 -15 8 -12 48 -13 60 -1 14 13
84 21 90 11 10 -16 -37 -33 -100 -36 -70 -3 -112 -19 -120 -46 -4 -10 -11 -18
-17 -18 -13 0 -5 -137 11 -198 5 -20 17 -70 27 -111 9 -41 32 -108 50 -150 36
-78 75 -210 75 -249 -1 -36 31 -24 47 18 12 32 5 50 -19 50 -10 0 -19 6 -20
13 -1 6 -2 59 -4 117 -1 70 -8 120 -19 150 -10 25 -19 70 -20 100 -2 30 -4 59
-5 64 0 6 -10 0 -21 -12 -33 -35 -48 -28 -55 26 -3 26 -8 58 -10 72 -4 29 13
64 22 42 2 -6 20 -12 39 -12 28 0 38 6 54 32 11 18 20 39 20 46 0 15 -27 16
-32 1 -2 -6 -14 -9 -26 -7 -29 4 -14 29 19 29 41 1 133 33 147 51 7 10 22 18
32 18 21 0 80 -31 80 -42 0 -5 8 -8 18 -8 13 0 21 13 29 53 45 205 52 251 53
325 0 58 4 84 13 88 32 12 174 -76 219 -136 21 -29 23 -29 46 -14 15 10 55 18
105 21 45 2 84 5 87 5 38 3 43 -2 37 -45 -3 -24 -2 -84 3 -133 5 -49 14 -141
20 -204 11 -123 17 -150 30 -150 17 0 19 33 4 107 -21 105 -25 369 -5 365 7
-1 19 2 27 9 8 7 29 8 54 4 37 -6 44 -12 59 -49 10 -22 26 -86 35 -141 10 -55
22 -116 27 -136 5 -20 10 -70 11 -110 0 -41 3 -58 5 -39 5 41 16 54 46 56 60
4 169 23 180 32 7 5 35 17 62 26 60 19 112 55 234 159 96 81 121 92 121 55 0
-13 7 -41 15 -63 14 -40 14 -40 15 -9 0 17 -4 53 -9 80 -5 27 -12 72 -16 100
-7 63 -1 68 139 116 70 25 115 48 164 86 37 28 92 69 122 91 143 103 206 159
245 214 11 16 32 45 48 65 15 19 30 47 34 61 3 14 15 60 26 101 10 41 25 105
33 142 19 93 43 163 69 202 45 66 60 163 59 376 -1 156 -5 203 -18 234 -9 21
-16 61 -16 89 0 36 -5 53 -17 63 -10 7 -15 15 -11 19 4 4 41 -17 82 -48 49
-35 89 -56 115 -61 23 -3 58 -16 78 -28 92 -51 152 -81 199 -98 28 -10 79 -40
113 -66 83 -65 100 -74 141 -74 19 0 46 -7 60 -15 14 -8 50 -14 80 -15 75 0
192 -24 221 -44 13 -9 33 -16 44 -16 11 0 56 -18 100 -40 44 -22 85 -40 91
-40 6 0 22 -9 36 -19 13 -11 38 -23 54 -27 28 -7 122 -50 215 -99 26 -14 54
-25 63 -25 26 0 19 -43 -18 -108 -19 -33 -32 -62 -30 -65 2 -2 -7 -26 -21 -54
-13 -28 -27 -63 -31 -77 -3 -14 -10 -29 -15 -32 -5 -3 -9 -13 -9 -22 -1 -9 -9
-35 -20 -57 -11 -22 -19 -48 -20 -57 0 -10 -4 -18 -10 -18 -5 0 -10 -5 -10
-12 0 -14 -61 -141 -71 -148 -4 -3 -11 -18 -14 -33 -4 -15 -16 -34 -27 -41
-14 -10 -18 -21 -13 -35 3 -11 0 -30 -8 -43 -8 -13 -22 -44 -32 -70 -9 -26
-26 -56 -38 -69 l-20 -22 -14 27 c-7 14 -18 26 -23 26 -15 0 -15 0 20 -70 13
-25 3 -85 -16 -101 -11 -9 -14 -8 -14 8 0 10 -7 29 -16 41 -8 12 -10 22 -5 22
13 0 15 67 2 74 -16 10 -39 -4 -45 -27 -3 -12 -6 -24 -7 -27 -1 -3 -9 -16 -19
-30 -9 -14 -40 -70 -68 -125 -27 -55 -66 -127 -85 -160 -19 -33 -45 -79 -57
-102 -12 -24 -26 -43 -31 -43 -4 0 -13 -18 -19 -40 -6 -21 -18 -46 -26 -55 -9
-8 -21 -32 -27 -53 -10 -32 -12 -7 -18 168 -3 113 -10 281 -14 374 l-8 168
-76 -7 c-59 -5 -73 -4 -64 5 6 7 41 15 77 17 38 3 66 10 67 17 0 6 2 21 3 34
2 18 -2 22 -25 22 -16 0 -48 -7 -73 -15 -25 -9 -80 -20 -123 -25 -132 -16
-153 -21 -153 -37 0 -12 7 -14 33 -9 17 4 60 9 95 13 63 5 68 3 63 -35 -2 -13
12 -108 29 -197 55 -287 73 -414 77 -550 6 -169 7 -165 -82 -291 -45 -62 -72
-90 -80 -82 -3 3 -9 54 -14 114 -5 60 -14 121 -20 136 -13 34 -151 107 -220
117 -48 7 -53 16 -40 76 2 12 -2 21 -12 23 -13 2 -15 -3 -12 -22 4 -20 0 -28
-18 -35 -29 -10 -64 10 -84 50 -13 24 -13 28 3 35 20 8 19 8 56 0 25 -6 26 -5
14 7 -17 17 -73 47 -88 47 -5 0 -18 7 -28 16 -31 28 -106 72 -134 79 -32 8
-39 -10 -8 -20 11 -4 51 -42 89 -85 52 -58 71 -89 76 -117 3 -21 11 -67 16
-103 23 -141 74 -319 98 -338 63 -50 66 -54 46 -68 -10 -7 -38 -16 -64 -20
-25 -4 -51 -10 -56 -15 -6 -4 -39 -12 -75 -18 -36 -5 -85 -14 -110 -20 -71
-16 -110 -14 -110 6 0 10 -12 28 -27 41 -29 25 -189 132 -198 132 -14 0 0 -27
43 -80 84 -105 93 -120 87 -130 -10 -16 -83 -12 -111 6 -29 20 -42 13 -19 -9
14 -14 13 -16 -2 -21 -62 -20 -277 -57 -468 -82 -80 -11 -195 -10 -203 1 -6
10 -137 100 -172 119 -8 5 -2 -4 13 -20 109 -113 111 -116 95 -125 -17 -10
-76 -14 -313 -25 -158 -7 -223 -6 -237 2 -4 3 -8 13 -8 23 0 32 -19 40 -92 34
-60 -5 -73 -3 -98 16 -20 14 -44 21 -75 21 -64 0 -85 13 -85 53 0 36 21 66 64
93 31 19 38 20 224 28 80 3 120 9 137 20 14 9 43 15 67 15 24 -1 33 -4 21 -6
-13 -2 -23 -9 -23 -14 0 -14 64 -11 78 3 16 16 120 36 226 44 l79 7 -7 66 c-3
36 -10 99 -16 138 -11 85 -7 101 29 109 14 3 51 11 81 19 30 8 71 17 89 20 33
5 141 71 141 85 0 4 17 14 38 23 62 28 125 78 113 90 -16 16 -13 27 7 28 11 0
13 2 4 6 -8 3 -24 1 -35 -5 -12 -6 -49 -18 -82 -27 -33 -9 -75 -25 -95 -35
-19 -10 -55 -21 -80 -24 -25 -4 -72 -16 -105 -26 -33 -10 -89 -21 -125 -24
-105 -11 -139 -33 -179 -118 -18 -40 -39 -80 -46 -88 -16 -20 -28 -70 -16 -70
5 0 26 24 47 53 52 72 121 138 138 131 15 -6 51 -157 44 -189 -2 -16 -19 -23
-78 -36 -41 -9 -91 -21 -110 -26 -19 -6 -62 -14 -95 -17 -33 -4 -77 -12 -98
-18 -31 -9 -40 -9 -52 3 -16 16 -33 186 -24 240 6 41 -6 83 -21 74 -5 -3 -7 0
-4 9 4 11 -7 19 -42 29 -42 12 -53 12 -92 -3 -25 -9 -49 -25 -54 -34 -5 -9
-14 -14 -19 -11 -5 4 -7 10 -5 14 3 4 -2 17 -12 27 -50 57 -64 88 -78 177 -8
51 -19 115 -24 142 -5 28 -12 75 -15 105 -9 80 -14 100 -27 100 -8 0 -9 -21
-3 -72 15 -141 25 -123 -110 -195 -118 -63 -165 -96 -152 -109 6 -6 33 5 151
62 57 27 86 31 86 10 0 -9 -15 -17 -40 -21 -22 -4 -40 -11 -40 -15 0 -5 -10
-10 -22 -12 -12 -2 -24 -9 -26 -17 -4 -11 0 -12 14 -6 42 17 115 28 125 18 11
-11 26 -193 15 -193 -8 0 -120 54 -156 75 -14 8 -40 15 -58 15 -28 0 -35 5
-48 36 -8 20 -17 34 -20 32 -2 -3 0 -36 5 -73 13 -89 5 -105 -53 -105 -23 0
-69 -5 -100 -12 -53 -10 -56 -12 -36 -23 15 -8 39 -9 78 -3 67 11 95 -5 44
-24 -43 -17 -40 -24 8 -20 35 4 40 7 41 31 1 25 2 25 8 -4 4 -16 4 -34 0 -39
-7 -8 -120 -35 -151 -36 -11 0 -30 21 -50 57 -17 31 -34 51 -36 44 -2 -6 3
-23 12 -36 10 -15 16 -46 16 -79 0 -30 8 -105 19 -168 25 -151 33 -245 22
-252 -5 -3 -60 -12 -122 -21 -117 -15 -140 -24 -116 -44 11 -9 32 -8 88 1 41
7 110 12 154 13 l80 0 3 -28 c5 -38 -5 -60 -20 -50 -15 9 -20 10 -53 12 -20 1
-25 6 -25 27 0 22 -3 25 -22 20 -13 -3 -26 -6 -30 -6 -15 0 -8 -20 7 -20 21 0
19 -20 -2 -21 -24 -2 -298 3 -300 4 0 1 -11 64 -24 139 -13 76 -26 133 -30
127 -3 -6 -4 -20 -2 -32 2 -12 9 -70 16 -129 l13 -108 -47 0 -47 0 -11 78 c-7
42 -15 135 -18 205 -3 71 -10 122 -14 115 -12 -18 -21 -4 -30 44 -4 24 -15 63
-24 87 -30 81 -55 231 -55 328 0 77 -3 99 -19 121 -22 30 -39 136 -23 145 5 4
25 -2 46 -12 35 -18 36 -18 36 -1 0 32 -12 50 -32 50 -16 0 -18 5 -12 38 4 20
11 38 15 40 12 5 12 32 0 32 -4 0 -11 18 -14 39 -3 22 -13 60 -22 84 -15 41
-23 48 -88 78 -80 36 -93 49 -102 97 -11 58 -42 99 -81 107 -20 3 -37 13 -40
23 -3 9 -12 31 -19 47 -8 17 -17 47 -21 67 -4 23 -11 35 -18 32 -25 -9 -58 13
-145 98 -48 48 -104 93 -123 101 -41 17 -59 43 -86 127 -28 86 -51 149 -62
170 -5 10 -19 62 -30 116 -29 133 -40 162 -59 159 -9 -2 -26 -4 -38 -4 -12 -1
-29 -9 -39 -18 -10 -10 -20 -18 -23 -19 -25 -3 -61 -31 -61 -46 0 -21 18 -19
74 8 16 8 39 11 52 8 16 -4 24 -2 24 7 0 9 4 8 11 -4 20 -33 3 -50 -42 -43
-28 5 -46 2 -62 -9 l-21 -15 24 0 c41 0 70 -11 70 -26 0 -21 16 -17 33 8 8 13
19 19 23 15 5 -4 2 -12 -5 -17 -11 -6 -10 -9 5 -13 15 -4 14 -5 -6 -6 -25 -2
-25 -2 -3 -11 13 -5 23 -16 23 -25 0 -15 -15 -18 -73 -17 -31 1 -65 27 -44 35
6 3 0 6 -15 6 -20 1 -26 -3 -22 -13 3 -8 -1 -26 -9 -41 l-14 -27 -15 32 c-8
17 -19 31 -24 31 -5 0 -9 20 -9 44 0 62 -19 57 -22 -6 -2 -28 -7 -67 -12 -85
-5 -18 -7 -43 -4 -54 3 -11 -1 -28 -9 -38 -17 -19 -32 -96 -17 -87 5 4 9 15 9
26 0 11 5 17 10 14 6 -3 10 1 10 10 0 9 6 15 13 12 20 -7 4 -157 -16 -157 -10
0 -11 -20 -6 -82 4 -45 5 -87 1 -93 -10 -15 -32 -149 -42 -255 -9 -93 -28
-196 -70 -375 -20 -86 -26 -138 -49 -395 -6 -63 -15 -133 -21 -155 -5 -22 -10
-69 -10 -105 0 -36 -5 -84 -10 -108 -6 -23 -15 -84 -20 -135 -5 -50 -16 -112
-24 -137 -8 -25 -17 -62 -21 -82 -4 -24 -11 -38 -20 -38 -8 0 -15 5 -15 10 0
6 -14 10 -31 10 -58 0 -70 14 -64 78 22 252 30 320 51 412 21 98 90 478 120
670 7 47 11 93 8 102 -5 16 -8 15 -32 -7 -15 -14 -34 -25 -42 -25 -8 0 -43
-13 -76 -29 -44 -21 -92 -58 -165 -128 l-103 -100 0 -125 c-1 -100 -4 -130
-17 -144 -22 -26 -49 -83 -49 -106 0 -10 -4 -18 -10 -18 -5 0 -10 -10 -10 -22
0 -13 -11 -41 -24 -64 -13 -22 -26 -52 -30 -67 -3 -14 -26 -45 -52 -69 -25
-24 -65 -71 -90 -105 -38 -52 -51 -63 -75 -63 -16 0 -29 5 -29 10 0 6 -9 10
-21 10 -12 0 -35 6 -52 14 -18 8 -39 16 -48 19 -15 5 -17 33 -17 249 0 134 -6
284 -12 333 -6 50 -17 137 -24 194 -21 174 -8 227 84 341 20 25 51 66 69 93
30 44 130 149 194 203 16 13 39 24 52 24 24 0 69 33 175 131 36 33 84 72 107
87 25 16 46 38 49 52 11 43 22 50 52 34 15 -8 35 -14 44 -14 10 0 25 -11 33
-24 9 -14 30 -29 46 -35 22 -7 29 -16 29 -35 0 -21 5 -26 26 -26 21 0 24 3 19
21 -8 26 -45 69 -58 69 -6 0 -44 23 -86 51 -42 29 -88 55 -103 60 -26 7 -28 6
-22 -15 8 -32 -114 -171 -133 -152 -9 9 7 41 34 71 15 16 38 51 50 77 12 26
26 48 31 48 5 0 15 14 22 30 11 27 21 34 41 32 4 -1 3 15 -2 35 -4 20 -7 39
-7 42 1 3 -2 13 -6 22 -5 12 6 34 33 70 22 29 38 55 36 57 -11 11 -36 -12 -87
-80 -31 -40 -77 -93 -102 -118 -26 -25 -72 -76 -104 -115 -31 -38 -70 -86 -87
-106 -16 -19 -49 -58 -71 -85 -23 -27 -87 -101 -143 -164 -96 -109 -161 -203
-161 -234 0 -7 -7 -20 -16 -27 -12 -10 -14 -23 -10 -51 4 -26 0 -51 -12 -80
-47 -107 -52 -138 -57 -343 -5 -204 -29 -381 -61 -452 -8 -18 -22 -50 -31 -70
-9 -21 -20 -45 -25 -53 -5 -8 -11 -23 -14 -32 -7 -21 -33 -31 -48 -19 -6 5
-27 12 -46 16 -19 4 -41 12 -48 18 -8 6 -16 7 -22 1 -6 -6 11 -17 48 -29 31
-10 61 -22 67 -27 5 -4 16 -8 25 -8 8 -1 33 -9 55 -20 22 -11 47 -19 56 -20 9
0 30 -7 45 -15 16 -8 41 -15 56 -15 15 0 29 -4 32 -9 3 -5 39 -19 78 -30 40
-12 84 -28 98 -35 28 -15 142 -54 235 -81 33 -9 80 -23 105 -30 25 -7 61 -16
80 -20 19 -4 40 -11 45 -15 9 -7 45 -17 98 -26 72 -12 130 -24 147 -29 34 -11
184 -36 270 -45 80 -9 110 -13 269 -41 64 -11 241 -28 336 -33 28 -2 97 -6
155 -10 106 -6 455 -14 895 -20 132 -2 357 -10 500 -17 143 -7 303 -13 355
-13 134 1 441 13 530 20 41 4 91 8 110 9 35 3 197 23 235 29 11 2 55 7 98 11
42 4 77 10 77 14 0 4 16 6 36 6 19 -1 65 4 102 12 37 7 128 24 202 38 74 13
160 30 190 36 30 6 78 15 105 20 28 5 57 11 65 13 8 1 36 6 63 11 26 4 50 11
53 16 3 5 22 9 42 9 20 0 53 5 72 10 19 6 64 17 100 25 62 13 143 34 202 52
18 5 56 47 114 123 49 63 92 116 96 118 4 2 8 8 8 13 0 5 14 28 30 51 16 22
30 45 30 51 0 14 63 141 72 145 5 2 8 10 8 17 0 12 12 40 41 95 5 8 20 38 34
65 14 28 30 57 35 65 6 8 33 65 62 125 29 61 58 116 65 123 7 7 13 21 13 31 0
9 6 25 13 35 15 20 11 26 48 -74 6 -16 17 -30 23 -30 10 0 83 141 142 275 47
108 65 149 109 240 23 50 57 126 75 170 38 96 32 82 114 276 36 86 66 165 66
176 0 15 -34 36 -152 96 -84 42 -179 86 -210 97 -32 12 -60 26 -63 31 -4 5
-13 9 -21 9 -8 0 -49 16 -90 35 -41 19 -79 35 -86 35 -6 0 -44 16 -84 35 -65
32 -81 35 -146 34 -68 -2 -78 1 -151 39 -43 23 -86 42 -96 42 -9 0 -21 4 -26
9 -6 5 -92 45 -191 89 -177 78 -253 124 -500 299 -34 23 -66 43 -72 43 -28 0
-32 37 -41 339 -6 171 -8 318 -4 326 3 8 38 31 78 51 63 32 77 45 114 101 47
72 99 181 138 288 33 91 85 201 116 247 31 44 99 188 133 277 14 36 49 156 77
266 l51 200 3 240 c2 212 5 247 23 300 20 58 20 58 14 15 -4 -25 -8 -151 -9
-280 -2 -229 -15 -351 -44 -420 -13 -31 -56 -208 -66 -270 -4 -25 -13 -58 -19
-75 -7 -16 -23 -55 -36 -85 -49 -118 -62 -163 -55 -197 13 -70 51 -51 102 52
114 229 118 242 86 296 l-17 28 -18 -27 c-26 -40 -22 -16 18 105 80 238 132
491 112 542 -6 14 -11 91 -11 171 -1 137 0 151 30 245 89 279 87 266 91 624 3
341 -1 381 -39 381 -11 0 -19 4 -19 8 0 5 -7 17 -15 28 -13 17 -14 4 -15 -127
0 -138 1 -147 20 -152 11 -3 20 -10 20 -16 0 -6 -9 -11 -20 -11 -18 0 -20 -6
-19 -82 1 -55 4 -71 8 -49 3 19 11 36 18 38 23 8 27 -46 13 -166 0 -2 -8 -1
-19 2 -17 4 -19 -3 -20 -102 -2 -134 -19 -329 -30 -348 -17 -31 -22 7 -12 89
6 46 13 353 15 683 3 517 6 611 21 680 10 44 22 89 27 99 6 11 14 45 19 75 4
31 17 97 28 146 11 50 29 131 40 180 11 50 23 124 27 165 3 41 11 80 16 87 6
8 6 24 0 45 -6 18 -13 87 -16 153 -11 207 -66 495 -95 495 -10 0 -71 85 -71
99 0 9 -34 85 -54 121 -15 27 -37 71 -94 190 l-36 75 -9 -35 c-6 -19 -11 -57
-12 -85 -1 -27 -3 -56 -3 -62 -3 -21 -35 -15 -85 17 -45 28 -47 31 -47 77 0
27 -7 79 -15 118 -8 38 -15 79 -15 91 0 35 -74 87 -180 127 -49 18 -120 23
-120 8 0 -41 89 -143 207 -239 52 -43 85 -93 97 -150 8 -36 47 -73 97 -91 19
-7 41 -16 49 -20 29 -15 70 -87 105 -186 20 -55 43 -118 51 -140 8 -22 20 -54
25 -72 9 -29 24 -52 104 -164 38 -53 55 -130 62 -270 5 -105 2 -137 -12 -183
-10 -30 -22 -53 -27 -50 -4 3 -8 40 -7 82 1 78 -3 105 -41 286 -18 86 -47 172
-56 164 -1 -2 4 -39 12 -83 22 -120 36 -452 24 -560 -12 -98 -38 -213 -52
-221 -4 -3 -8 -84 -8 -180 0 -133 -5 -204 -21 -292 -19 -109 -20 -150 -18
-602 2 -368 0 -493 -9 -520 -16 -42 -30 -118 -44 -225 -11 -89 -12 -132 -2
-218 9 -90 0 -120 -46 -151 -34 -22 -40 -32 -40 -61 0 -44 12 -44 36 0 10 19
22 35 26 35 16 0 8 -131 -11 -187 -38 -116 -71 -228 -71 -242 0 -8 -20 -46
-44 -85 -24 -39 -65 -111 -91 -161 -26 -49 -62 -115 -80 -145 -34 -59 -53
-109 -110 -291 l-37 -116 -100 -114 c-55 -63 -110 -126 -121 -141 -17 -22 -23
-25 -40 -17 -23 13 -275 -15 -342 -37 -22 -7 -58 -16 -80 -19 -22 -4 -74 -16
-115 -27 -108 -29 -140 -35 -287 -49 -101 -10 -138 -10 -157 -1 -30 13 -33 33
-10 57 9 9 20 30 25 48 33 126 40 162 45 237 8 106 -10 100 -31 -11 -40 -218
-49 -259 -57 -259 -14 0 -9 84 11 192 55 293 59 470 13 570 -14 31 -23 37 -57
42 -45 6 -118 -7 -123 -23 -2 -6 -11 -11 -20 -11 -9 0 -28 -9 -42 -20 -21 -16
-23 -20 -8 -25 9 -4 26 -2 37 5 47 24 161 -39 161 -89 0 -11 -6 -35 -14 -53
-37 -84 -76 -269 -76 -359 0 -82 -9 -117 -32 -125 -19 -6 -19 -6 1 -21 12 -8
25 -12 30 -9 5 3 14 -1 21 -9 24 -29 30 -15 9 21 -18 33 -19 40 -7 68 8 20 12
66 11 126 -2 102 10 152 33 143 11 -4 14 7 14 48 0 58 11 86 29 75 16 -10 13
-62 -5 -80 -8 -9 -13 -20 -9 -25 7 -12 -13 -291 -26 -358 -8 -43 -7 -57 6 -84
27 -51 9 -60 -107 -52 l-96 6 -5 46 c-2 25 -10 98 -18 161 l-13 115 27 58 c15
32 40 79 57 104 24 36 31 55 29 87 -1 23 -8 48 -14 56 -7 8 -16 28 -19 45 -6
24 -9 27 -17 13 -9 -16 5 -73 22 -92 14 -15 11 -31 -14 -67 -13 -19 -32 -55
-42 -81 -18 -42 -35 -62 -35 -40 0 4 -7 39 -15 77 -23 105 -45 288 -39 312 4
12 21 31 40 42 19 11 34 25 34 31 0 14 -33 13 -47 -1 -23 -23 -40 -1 -48 58
-4 32 -15 78 -26 103 -10 25 -22 68 -27 95 -8 42 -18 84 -38 162 -8 33 -157
-20 -257 -93 -51 -37 -57 -49 -28 -57 15 -3 20 -18 26 -67 9 -77 29 -131 39
-105 3 9 4 21 1 26 -7 10 22 70 39 81 23 15 35 7 42 -27 3 -19 4 -45 0 -58
-11 -46 -152 -164 -172 -145 -3 3 -9 37 -15 74 -26 187 -33 226 -54 309 -27
106 -70 352 -85 484 -13 114 -2 164 65 308 38 80 48 115 57 188 12 107 7 248
-11 268 -6 8 -18 71 -26 138 -8 68 -22 162 -30 208 -19 105 -15 120 30 117 19
-2 61 5 92 14 32 10 81 22 108 28 28 5 75 17 105 26 30 9 83 16 117 16 50 0
64 4 76 20 10 15 25 20 58 19 57 -1 179 33 190 53 5 9 22 21 39 28 38 16 40
35 3 25 -16 -4 -44 -11 -63 -15 -25 -5 -28 -8 -12 -9 42 -2 17 -26 -34 -33
-27 -3 -82 -11 -122 -17 -52 -8 -79 -8 -93 0 -12 6 -52 8 -102 4 -67 -4 -77
-3 -57 6 14 7 68 13 120 14 94 2 153 13 219 43 43 18 137 41 173 42 17 0 51
17 85 44 32 24 74 51 93 61 18 10 41 25 50 33 14 14 15 13 18 -14 1 -16 9 -58
17 -94 7 -36 15 -96 16 -135 1 -38 7 -79 13 -90 9 -17 12 -10 24 45 30 148 30
148 10 142 -16 -4 -18 3 -19 59 0 35 0 84 0 109 2 75 53 416 71 480 15 53 12
150 -6 201 -15 39 -25 50 -76 78 -40 21 -77 33 -116 36 -31 3 -84 7 -117 11
-33 3 -134 1 -224 -5 -168 -12 -197 -8 -184 25 6 17 -34 19 -86 4 -19 -5 -70
-14 -115 -21 -119 -16 -298 -64 -374 -101 -138 -67 -312 -248 -374 -388 -18
-41 -19 -59 -13 -220 6 -147 3 -197 -14 -315 -11 -78 -26 -161 -34 -185 -8
-25 -18 -76 -22 -115 -4 -38 -13 -103 -21 -143 -8 -41 -14 -119 -13 -175 l1
-102 20 43 c11 24 26 94 34 160 13 104 26 178 82 462 8 41 14 84 13 95 -16
193 -15 205 41 393 24 81 229 290 323 329 25 10 45 21 45 26 0 4 9 7 20 7 11
0 53 11 93 24 160 52 447 56 516 7 19 -14 52 -23 102 -27 41 -4 88 -12 104
-19 95 -40 124 -46 213 -43 113 4 123 -13 16 -27 -49 -6 -79 -15 -82 -24 -4
-11 6 -12 49 -6 102 15 112 13 120 -19 10 -35 -6 -60 -33 -53 -10 3 -21 1 -24
-4 -3 -5 -27 -9 -53 -9 -26 0 -56 -7 -67 -15 -10 -8 -15 -15 -10 -15 5 0 -3
-9 -18 -21 -30 -23 -13 -28 -151 44 -72 37 -141 58 -210 64 -71 6 -337 -12
-380 -26 -16 -5 -48 -15 -70 -21 -81 -24 -156 -82 -343 -263 -68 -65 -101 -90
-120 -91 -34 -1 -58 -47 -66 -126 l-6 -55 19 45 c11 25 20 56 20 70 1 25 17
50 33 50 11 0 10 -74 -1 -85 -10 -11 -32 -93 -76 -290 -15 -66 -36 -157 -46
-201 -11 -45 -19 -90 -19 -100 1 -40 38 25 48 84 14 77 60 230 73 237 5 4 9
17 9 29 0 13 9 35 21 50 11 14 24 48 27 74 5 32 12 48 24 50 12 2 15 -2 11
-17 -7 -29 15 -27 46 3 15 13 49 31 76 39 28 8 49 18 48 23 -3 10 -93 13 -93
3 0 -9 -71 -26 -92 -21 -10 2 -18 12 -18 23 0 14 7 19 26 19 34 0 98 62 90 87
-17 55 79 196 175 258 48 31 176 85 203 85 11 1 46 9 76 20 43 15 83 19 178
20 67 0 130 -4 140 -8 9 -5 27 -14 39 -20 13 -7 38 -12 57 -12 40 0 103 -24
133 -52 36 -33 89 -40 166 -21 50 13 72 15 85 7 26 -17 17 -67 -23 -123 -19
-26 -35 -58 -35 -69 0 -38 -20 -34 -74 15 -50 46 -104 72 -271 134 -151 57
-567 -22 -689 -129 -24 -21 -56 -96 -56 -129 0 -24 -3 -25 -35 -20 -25 4 -41
1 -57 -13 -21 -17 -21 -19 -6 -25 10 -4 31 -2 47 3 22 8 34 7 48 -3 11 -8 43
-17 71 -21 28 -3 50 -10 47 -14 -6 -10 231 -24 246 -14 7 4 -10 18 -46 35 -44
22 -77 31 -143 35 -48 4 -93 10 -100 13 -19 11 32 58 71 67 36 7 119 65 142
97 9 13 18 18 24 12 10 -11 51 -153 57 -198 5 -45 18 -54 57 -38 41 17 178 42
195 36 6 -2 40 4 74 15 33 10 73 16 88 14 33 -7 186 33 220 57 14 9 35 20 48
24 19 5 22 3 22 -20 0 -30 -36 -104 -59 -122 -9 -7 -23 -13 -32 -13 -9 0 -24
-9 -34 -20 -10 -11 -29 -20 -42 -20 -25 0 -123 -21 -208 -45 -27 -8 -99 -19
-160 -25 -60 -6 -128 -16 -150 -21 -22 -6 -83 -19 -135 -30 -52 -10 -117 -23
-145 -29 -27 -6 -60 -11 -72 -11 -34 1 -39 -49 -8 -87 1 -2 37 13 80 33 114
54 195 71 255 56 45 -11 131 -9 183 5 9 3 17 1 17 -4 0 -6 -17 -12 -37 -15
-99 -13 -125 -16 -224 -22 -109 -7 -172 -25 -91 -25 44 0 60 -19 17 -21 -14
-1 -28 -2 -32 -3 -5 -1 -30 -6 -57 -10 -27 -4 -61 -15 -75 -24 -14 -9 -27 -17
-28 -17 -2 -1 9 -69 23 -151 22 -131 44 -372 46 -519 2 -100 -62 -295 -96
-295 -29 0 -35 27 -36 168 0 28 -16 29 -31 1 -8 -15 -9 -56 -4 -134 8 -137 -1
-160 -75 -201 -27 -15 -50 -31 -50 -36 0 -4 -9 -8 -19 -8 -11 0 -23 -4 -26
-10 -3 -5 -20 -10 -36 -10 -17 0 -32 -6 -36 -15 -8 -22 2 -28 24 -17 10 6 45
12 77 14 38 3 61 9 64 18 3 9 -2 11 -17 7 -13 -3 -21 0 -21 7 0 12 76 44 84
35 2 -2 0 -24 -5 -49 -5 -25 -14 -83 -19 -130 -15 -121 -25 -140 -75 -140 -22
0 -74 -7 -115 -16 -49 -10 -76 -12 -78 -5 -2 6 -16 8 -31 5 -25 -5 -34 1 -76
50 l-48 55 -29 -24 c-16 -14 -38 -25 -47 -25 -20 0 -113 -47 -122 -62 -4 -5
-17 -8 -30 -6 -35 5 -38 49 -5 85 16 17 24 34 20 48 -25 102 -60 456 -48 477
14 22 3 249 -16 350 -22 114 -40 150 -81 163 -25 8 -27 22 -18 95 4 36 13 126
19 200 6 74 20 189 31 255 11 66 24 145 29 175 5 30 16 125 24 210 18 192 26
224 115 485 40 116 79 241 87 278 18 78 15 201 -10 392 -20 159 -20 278 -1
320 11 21 36 43 76 66 33 19 103 67 157 108 144 109 338 193 457 197 39 2 91
7 118 12 48 10 61 0 36 -25 -8 -8 -6 -18 7 -38 14 -21 23 -25 43 -21 77 17
172 29 178 22 11 -10 -11 -21 -75 -37 l-57 -14 40 -3 c44 -4 138 15 170 34 11
6 61 24 110 39 50 15 124 40 165 56 41 16 89 29 106 29 18 0 45 7 60 15 16 8
37 15 46 15 10 0 34 10 55 21 46 26 93 40 105 33 13 -8 -34 -32 -77 -40 -33
-6 -42 -14 -29 -27 12 -12 152 41 247 94 27 15 216 31 284 25 101 -10 118 -23
61 -47 -18 -7 -49 -28 -68 -45 -19 -17 -104 -82 -189 -144 -85 -61 -179 -132
-209 -156 -36 -29 -64 -44 -82 -44 -16 0 -32 -4 -35 -10 -3 -5 -15 -10 -26
-10 -11 0 -32 -12 -46 -26 l-26 -26 24 7 c13 4 38 18 56 31 49 37 102 29 75
-12 -4 -6 -14 -14 -22 -17 -10 -4 -8 -6 7 -6 19 -1 22 -8 28 -68 10 -105 26
-228 31 -232 2 -2 5 20 6 50 0 30 2 59 3 64 2 6 3 44 4 85 1 73 2 76 31 94 69
40 157 121 221 203 133 169 163 203 183 209 12 4 28 13 37 21 27 23 118 43
200 43 66 0 78 3 97 23 31 33 28 38 -25 34 -87 -7 -300 23 -313 43 -9 15 -106
40 -152 40 -39 0 -188 -46 -273 -85 -51 -23 -86 -37 -95 -39 -3 -1 -25 -11
-50 -22 -57 -27 -127 -54 -140 -54 -16 0 -11 43 9 73 30 46 101 88 226 132 61
22 157 68 205 98 31 20 48 22 166 22 107 0 135 -3 150 -16 11 -9 51 -22 89
-29 85 -15 163 -63 208 -126 19 -28 59 -60 113 -94 82 -50 129 -101 154 -166
6 -14 19 -39 30 -54 11 -16 20 -33 20 -38 0 -6 -44 -10 -112 -11 -135 0 -235
-21 -259 -52 -44 -59 -49 -281 -7 -360 23 -45 81 -73 141 -70 63 4 80 3 86 -7
3 -5 48 -12 99 -16 77 -6 92 -5 92 7 0 10 -15 17 -45 21 -36 6 -45 11 -45 27
0 17 -7 19 -65 19 -70 0 -87 14 -31 24 48 9 169 -4 181 -19 6 -7 19 -14 30
-16 31 -6 59 -69 79 -180 10 -57 25 -123 32 -147 8 -23 14 -49 14 -56 0 -18
36 -49 51 -44 7 2 1 17 -18 38 -20 23 -32 50 -36 80 -20 151 -57 323 -72 340
-10 11 -34 23 -54 26 -41 7 -74 32 -64 47 7 11 32 160 33 191 0 12 -3 16 -8
10 -10 -10 -42 -158 -42 -192 0 -17 -6 -22 -24 -22 -14 0 -27 4 -30 9 -3 4
-27 14 -53 21 -27 6 -59 17 -73 23 -46 21 -162 100 -167 114 -3 8 2 38 12 68
18 60 28 66 100 63 22 -1 81 2 130 6 87 8 91 7 124 -18 19 -14 45 -26 57 -26
54 0 133 -105 190 -252 20 -51 57 -142 81 -203 25 -60 54 -132 65 -160 44
-110 50 -148 58 -370 8 -221 17 -315 29 -315 9 0 27 54 41 123 13 67 4 207
-13 204 -7 -1 -14 30 -19 82 -10 105 -44 276 -63 317 -8 18 -21 60 -29 95 -46
211 -80 340 -100 384 -25 52 -80 113 -209 228 -63 57 -76 74 -82 108 -6 32
-15 45 -45 65 -21 14 -58 53 -83 87 -48 65 -78 91 -162 145 -62 39 -107 55
-260 93 -127 31 -156 41 -220 70 -22 10 -55 21 -72 25 -54 11 -214 -40 -368
-117 -112 -56 -149 -70 -185 -70 -25 0 -63 -7 -85 -17 -22 -10 -67 -26 -100
-36 -33 -11 -64 -22 -70 -26 -5 -4 -38 -17 -72 -29 -55 -18 -280 -129 -308
-150 -14 -12 -152 -44 -166 -39 -17 6 32 60 77 84 22 11 73 38 114 59 41 22
101 59 134 82 32 24 63 43 70 43 13 0 128 70 155 95 38 33 235 145 257 145 13
0 26 5 29 10 3 6 18 11 33 11 24 2 25 2 4 6 -46 9 -14 28 57 35 102 9 119 15
136 48 16 31 20 60 8 60 -5 0 -9 10 -9 23 -4 69 -9 81 -34 79 -3 0 -100 -3
-217 -6 -201 -6 -215 -7 -295 -35 -84 -30 -190 -82 -219 -107 -8 -8 -23 -14
-32 -14 -9 0 -56 -12 -104 -26 -49 -14 -127 -34 -175 -44 -47 -11 -102 -26
-122 -34 -39 -16 -129 -31 -281 -45 -97 -9 -185 -38 -185 -61 0 -6 30 -10 68
-10 37 0 81 -4 97 -8 17 -5 93 -6 170 -2 110 6 150 12 185 28 25 12 67 26 94
32 29 6 59 22 76 39 29 28 144 91 169 91 7 0 45 16 84 36 106 53 173 74 209
67 l32 -6 -45 -13 c-24 -8 -54 -14 -66 -14 -12 0 -27 -9 -33 -20 -6 -11 -34
-27 -65 -36 -30 -10 -55 -21 -55 -26 0 -5 -20 -17 -45 -28 -25 -11 -45 -23
-45 -28 0 -5 -25 -21 -55 -36 -30 -16 -74 -45 -97 -65 -103 -88 -382 -192
-583 -218 -163 -21 -208 -45 -365 -193 -68 -63 -161 -141 -209 -172 -187 -123
-221 -159 -277 -297 -17 -43 -52 -122 -78 -175 -41 -86 -59 -131 -38 -99 26
41 78 93 93 93 10 0 23 9 29 20 6 11 17 20 25 20 16 0 20 -30 6 -45 -13 -14
-69 -195 -87 -278 -16 -80 -43 -144 -69 -170 -32 -33 -65 -87 -65 -110 -1 -12
-7 -33 -15 -47 -8 -14 -14 -33 -15 -43 0 -25 30 -68 42 -60 6 3 1 13 -13 24
-20 15 -22 21 -12 41 6 12 23 50 38 82 15 32 47 80 71 106 41 44 47 47 96 41
4 -1 9 -27 13 -58 8 -70 60 -292 80 -338 12 -30 12 -34 -6 -38 -27 -7 -24 -20
9 -39 68 -40 106 -182 121 -447 9 -161 8 -181 -15 -181 -20 0 -34 33 -34 79 0
35 -4 42 -24 47 -32 8 -130 -13 -176 -37 -28 -15 -48 -18 -79 -13 -23 4 -71 7
-108 8 -82 1 -84 3 -109 160 -15 95 -16 131 -7 290 6 99 8 244 6 321 -6 160
16 412 46 533 10 42 29 122 41 177 32 144 44 174 114 277 34 51 95 147 136
213 41 66 87 138 104 160 30 41 143 153 231 229 53 46 161 109 208 120 60 14
136 75 186 150 64 94 130 153 232 206 45 23 117 64 161 90 122 75 416 218 483
236 82 22 298 30 377 14 71 -14 174 -71 343 -193 l66 -47 85 7 c88 6 94 17 19
33 -33 7 -34 13 -17 102 6 31 22 62 48 93 21 26 49 62 61 80 12 18 31 35 43
38 12 3 20 12 18 19 -7 20 -130 23 -166 4 -29 -15 -72 -12 -72 6 0 19 127 240
142 246 4 2 8 8 8 13 0 6 19 35 43 66 23 30 59 80 79 109 l37 54 -27 -1 c-15
-1 -90 -23 -167 -49z m-146 -919 c20 -13 -76 -32 -189 -36 -100 -4 -86 2 59
24 41 6 77 14 80 16 7 8 35 5 50 -4z m7 -89 c3 -43 -16 -52 -117 -58 -43 -2
-98 -8 -122 -14 -60 -14 -75 -12 -80 8 -3 12 -5 10 -6 -7 0 -13 -10 -38 -20
-55 -21 -34 -105 -74 -297 -142 -54 -19 -119 -44 -144 -56 -25 -12 -56 -26
-70 -32 -14 -6 -56 -30 -94 -55 -87 -54 -285 -154 -431 -216 -238 -101 -283
-128 -380 -225 -49 -49 -97 -90 -106 -90 -19 0 -29 38 -29 114 0 49 2 52 65
113 95 91 188 143 267 150 35 4 77 12 93 19 l30 13 -45 1 c-44 0 -44 1 -19 13
14 8 47 17 75 20 81 10 390 151 476 217 49 38 328 181 408 210 19 7 49 19 66
26 18 8 60 20 95 27 35 8 73 18 84 24 11 6 61 14 110 18 50 4 92 9 95 11 2 3
24 4 49 2 42 -3 45 -5 47 -36z m-408 21 c-10 -2 -26 -2 -35 0 -10 3 -2 5 17 5
19 0 27 -2 18 -5z m-768 -231 c0 -12 -99 -35 -135 -30 -28 3 -27 4 20 20 54
18 115 23 115 10z m916 -234 c9 -14 -48 -69 -98 -95 -103 -52 -188 -86 -272
-108 -50 -13 -110 -31 -134 -40 -42 -15 -68 -13 -57 5 3 5 -2 13 -12 18 -14 9
-15 13 -4 26 22 26 201 107 336 151 22 8 65 23 95 33 58 22 136 27 146 10z
m-1289 -94 c-3 -3 -12 -4 -19 -1 -8 3 -5 6 6 6 11 1 17 -2 13 -5z m1013 -143
c0 -5 -20 -14 -44 -20 -62 -15 -66 -14 -26 8 37 21 70 27 70 12z m-1400 -196
c0 -73 -45 -125 -107 -125 -24 0 -25 2 -18 37 6 33 45 97 70 115 5 4 20 8 33
8 19 0 22 -5 22 -35z m-270 -160 c0 -8 -7 -15 -15 -15 -16 0 -20 12 -8 23 11
12 23 8 23 -8z m203 -11 c3 -3 1 -16 -5 -29 -8 -17 -3 -82 17 -251 27 -225 29
-328 9 -459 -4 -27 -3 -37 4 -30 24 24 42 403 22 470 -17 57 -30 216 -18 238
6 12 21 17 49 17 34 0 39 -3 35 -17 -3 -10 4 -72 15 -138 30 -176 36 -411 15
-533 -28 -161 -43 -214 -79 -292 -66 -142 -87 -230 -87 -358 0 -63 5 -143 11
-177 7 -34 9 -75 5 -91 l-8 -29 -13 25 c-7 14 -18 83 -25 154 -6 72 -15 152
-21 179 -5 28 -9 86 -9 131 0 106 -25 315 -45 372 -19 57 -19 83 1 144 9 27
14 57 11 67 -3 13 -5 12 -6 -7 -1 -14 -12 -38 -25 -54 -23 -28 -24 -28 -35 -8
-7 14 -17 18 -31 15 -23 -6 -25 -31 -9 -103 8 -40 49 -436 49 -484 0 -31 -27
-1 -44 51 -9 26 -22 53 -30 62 -26 30 -87 256 -101 376 -4 33 -12 68 -17 78
-14 27 13 93 123 309 11 21 21 50 23 65 12 81 81 243 121 286 24 25 81 38 98
21z m-266 -68 c-3 -7 -1 -18 4 -23 11 -11 -26 -88 -44 -88 -15 0 -11 49 9 93
14 30 42 47 31 18z m52 -68 c-5 -29 -15 -56 -24 -60 -8 -5 -15 -16 -15 -23 0
-8 -4 -15 -9 -15 -11 0 -1 50 15 75 8 11 14 29 14 41 0 11 3 24 7 27 16 17 19
3 12 -45z m-37 -145 c2 -10 2 -29 -1 -43 -4 -22 -5 -23 -12 -5 -7 20 -7 20
-14 0 -4 -11 -9 -27 -12 -35 -3 -8 -7 -22 -8 -31 -1 -9 -11 -29 -23 -44 -12
-15 -22 -32 -22 -37 0 -26 -89 -182 -90 -157 0 3 20 64 44 135 24 71 47 145
51 164 12 55 23 70 55 70 19 0 30 -6 32 -17z m1583 -593 c-11 -5 -31 -9 -45
-9 -23 0 -23 1 -5 9 11 5 31 9 45 9 23 0 23 -1 5 -9z m265 -547 c0 -5 13 -15
29 -25 16 -9 37 -28 47 -43 17 -26 17 -28 0 -60 -14 -25 -30 -36 -68 -49 -57
-18 -98 -21 -98 -6 0 18 38 147 49 169 11 20 41 30 41 14z m-1910 -288 c-7 -8
-16 -15 -21 -15 -5 0 -9 7 -9 15 0 9 9 15 21 15 18 0 19 -2 9 -15z m-398 -35
c72 -19 164 -78 178 -114 4 -12 11 -58 15 -101 4 -44 15 -131 26 -194 13 -76
19 -162 19 -259 0 -137 -1 -148 -25 -188 -17 -29 -36 -47 -60 -55 -64 -23 -32
-64 36 -46 67 17 124 1 175 -47 24 -23 44 -50 44 -59 0 -9 -14 -30 -31 -47
-35 -33 -61 -36 -139 -19 -60 13 -62 13 -87 27 -12 7 -27 12 -34 12 -25 0 13
-30 47 -36 19 -3 34 -12 34 -18 0 -8 33 -19 82 -28 93 -18 85 -22 135 60 33
56 44 111 36 186 -5 53 -11 64 -49 103 -52 52 -58 79 -41 198 11 77 16 91 35
100 12 5 22 13 22 16 0 3 -26 25 -58 47 -32 23 -65 48 -72 57 -7 8 -14 48 -16
88 -2 39 -6 107 -9 150 l-6 79 50 49 c42 42 55 49 88 49 36 0 42 -4 75 -54 43
-64 52 -95 69 -238 8 -76 9 -166 4 -310 -5 -112 -9 -322 -9 -468 -1 -146 -5
-268 -10 -271 -4 -4 -26 0 -47 9 -33 13 -43 13 -67 2 l-27 -13 38 -9 c20 -4
54 -11 74 -16 42 -8 43 -11 62 -162 27 -218 32 -237 65 -274 38 -41 61 -102
49 -133 l-8 -21 -30 23 c-28 24 -29 24 -10 44 15 18 16 21 3 21 -40 0 -37 -72
5 -124 18 -23 59 -80 91 -128 31 -48 60 -88 64 -90 18 -8 93 -111 136 -186 54
-94 60 -103 136 -185 50 -54 91 -88 269 -225 31 -23 92 -61 136 -83 108 -54
134 -71 256 -165 57 -44 131 -98 164 -119 33 -21 76 -49 96 -62 19 -13 43 -23
52 -23 9 0 17 -4 17 -9 0 -5 33 -18 73 -30 39 -12 95 -34 122 -49 47 -25 61
-27 215 -33 91 -3 155 -6 143 -7 -38 -3 -35 -20 4 -26 44 -7 240 8 298 23 101
26 184 41 227 41 26 0 50 5 53 10 3 6 14 10 23 10 9 0 30 7 46 15 15 8 36 15
45 15 27 0 142 58 179 91 21 19 38 27 44 21 5 -5 10 -182 11 -418 l2 -409 25
-35 c14 -19 56 -64 94 -100 37 -35 81 -87 97 -115 28 -48 29 -55 29 -179 0
-159 -24 -257 -109 -444 -32 -70 -62 -138 -66 -152 -4 -14 -11 -29 -15 -35 -4
-5 -29 -75 -55 -155 l-48 -145 -81 -80 c-168 -166 -213 -199 -397 -291 -96
-48 -162 -61 -365 -72 -193 -11 -597 13 -644 38 -10 5 -79 25 -153 44 -143 37
-242 73 -427 155 -63 28 -118 51 -122 51 -5 0 -52 22 -106 49 -236 117 -381
220 -454 320 -23 31 -77 95 -121 142 -87 96 -111 128 -151 206 -15 29 -59 83
-97 120 -118 115 -177 207 -228 356 -44 131 -56 201 -42 247 14 48 97 160 158
215 56 49 79 95 137 266 41 124 46 146 55 289 6 85 15 189 21 230 27 209 29
275 20 642 -12 465 -38 716 -97 956 -14 56 -23 112 -20 122 5 18 0 20 -38 20
-23 0 -60 7 -81 17 -22 9 -68 26 -104 38 l-65 22 -82 164 c-45 90 -94 191
-110 224 -29 63 -46 90 -102 165 -62 84 -97 187 -107 315 -5 67 -3 91 15 144
29 85 94 211 120 235 52 47 59 48 183 16z m4456 -253 c2 -10 -3 -17 -12 -17
-10 0 -16 9 -16 21 0 24 23 21 28 -4z m-3790 -480 c21 -25 33 -111 38 -290 4
-100 13 -218 21 -262 8 -44 19 -154 24 -245 5 -91 10 -176 11 -190 3 -44 -2
-80 -11 -80 -5 0 -19 8 -31 18 -28 23 -51 149 -74 402 -15 173 -28 606 -18
642 5 21 25 24 40 5z m3699 -469 c-3 -8 -6 -5 -6 6 -1 11 2 17 5 13 3 -3 4
-12 1 -19z m-2833 -698 c60 -300 59 -287 34 -332 -13 -22 -33 -45 -45 -52 -22
-11 -22 -12 -6 -41 61 -112 58 -101 58 -258 0 -130 -2 -150 -18 -161 -9 -7
-28 -11 -42 -8 -39 7 -48 34 -36 106 15 84 14 85 -13 52 -21 -27 -31 -30 -89
-34 -84 -5 -110 1 -149 38 -17 17 -37 30 -43 30 -23 0 -56 71 -66 144 -24 168
-24 166 1 166 12 0 46 16 76 36 56 37 126 55 138 35 4 -6 11 -11 17 -11 14 0
11 27 -6 44 -14 14 -13 17 9 31 42 28 49 12 43 -86 -6 -101 -10 -109 -87 -204
-66 -82 -102 -139 -94 -148 4 -4 20 10 36 31 16 20 44 55 62 77 19 22 45 53
59 69 l24 30 7 -45 c4 -30 2 -59 -9 -88 -8 -24 -13 -46 -10 -49 17 -18 85 95
85 142 0 13 6 41 13 62 14 39 12 72 -17 371 -6 56 6 180 21 228 8 25 5 34 47
-175z m-415 68 c49 -60 59 -81 76 -158 10 -47 18 -97 17 -112 -3 -32 -51 -107
-83 -126 -33 -21 -41 0 -36 93 3 48 -1 100 -9 130 -7 28 -13 63 -14 79 0 26
-2 28 -27 21 -16 -3 -56 -11 -90 -17 -56 -10 -63 -14 -63 -35 0 -24 -15 -32
-22 -11 -6 18 -58 -6 -58 -27 0 -19 54 -20 124 -1 58 15 73 36 27 36 -17 0
-31 -5 -31 -11 0 -5 -5 -7 -10 -4 -21 13 3 25 50 25 44 0 49 -2 58 -29 13 -37
5 -48 -43 -56 -22 -4 -73 -19 -113 -32 -40 -14 -76 -23 -80 -19 -4 4 -8 58
-10 119 -3 110 -3 112 15 89 17 -21 21 -21 53 -10 19 6 50 21 69 31 28 17 84
29 173 36 10 0 22 -5 27 -11z m266 3 c-6 -5 -28 -11 -50 -14 l-40 -6 40 14
c49 16 62 18 50 6z m-15 -61 c0 -11 -146 -44 -160 -35 -18 11 0 25 33 26 18 0
50 6 72 13 41 13 55 12 55 -4z m-2 -87 c-3 -36 -5 -38 -43 -45 -22 -3 -50 -9
-62 -13 -27 -9 -29 1 -5 28 16 19 16 20 0 14 -19 -7 -35 10 -22 23 5 4 24 11
42 15 32 7 33 6 23 -14 -11 -19 -9 -21 21 -20 20 0 27 3 18 7 -13 6 -16 16
-11 37 0 3 10 5 22 5 17 0 20 -5 17 -37z m-2 -108 c-22 -16 -46 -20 -46 -7 0
15 13 22 39 22 25 -1 25 -1 7 -15z m532 -44 c-4 -18 -31 -26 -56 -16 -14 5
-12 8 8 19 34 17 51 16 48 -3z m-274 -213 c14 -9 1 -22 -13 -13 -6 3 -11 16
-10 28 0 15 2 17 6 7 3 -8 11 -18 17 -22z m317 -247 c4 -134 10 -273 14 -308
7 -64 6 -66 -23 -92 -62 -55 -99 -65 -106 -28 -2 12 -10 87 -16 167 -12 147
-38 359 -47 373 -10 17 9 45 35 50 15 3 48 24 72 46 25 22 50 39 55 37 6 -2
13 -98 16 -245z m-288 155 c18 -7 40 -22 50 -34 22 -25 43 -111 51 -217 3 -44
13 -98 20 -120 19 -54 8 -65 -65 -65 -75 0 -89 14 -89 89 0 94 -21 324 -31
343 -8 15 -6 18 11 18 11 0 35 -6 53 -14z m456 -268 c9 -64 14 -124 11 -132
-6 -17 -113 -96 -129 -96 -16 0 -14 59 4 111 8 24 23 97 34 163 20 126 39 162
55 103 4 -18 16 -85 25 -149z m32 -235 c1 -27 1 -80 -1 -120 -2 -75 6 -106 21
-82 6 10 9 6 9 -12 0 -15 7 -32 15 -39 8 -7 15 -16 15 -21 0 -17 -29 -9 -103
26 -82 39 -85 44 -92 152 -4 52 -4 53 48 98 69 60 87 59 88 -2z m1009 -312
c-8 -5 -33 -12 -55 -15 -22 -4 -49 -10 -60 -13 -34 -9 -9 8 32 22 43 16 108
20 83 6z m-146 -60 c3 -4 -25 -11 -62 -15 -37 -4 -87 -8 -112 -11 l-45 -4 55
19 c57 20 155 26 164 11z m-327 -67 c-3 -3 -12 -4 -19 -1 -8 3 -5 6 6 6 11 1
17 -2 13 -5z m-3631 -1109 c-11 -8 -29 -15 -40 -15 -19 1 -19 2 4 15 35 20 62
19 36 0z m-76 -32 c-8 -4 -19 -12 -25 -19 -10 -13 -96 -37 -103 -29 -10 10 91
52 128 53 13 0 13 0 0 -5z m-200 -77 c-18 -17 -89 -38 -103 -29 -11 7 67 40
98 42 17 1 17 -1 5 -13z m1000 0 c0 -8 -13 -16 -30 -18 -32 -5 -37 1 -18 20
16 16 48 15 48 -2z m373 -48 c36 -108 61 -328 38 -328 -24 0 -104 182 -115
260 -6 47 -1 63 24 73 12 4 11 6 -2 6 -18 1 -24 21 -11 34 3 4 16 7 28 7 16 0
25 -11 38 -52z m-1523 -8 c0 -11 -76 -33 -93 -27 -14 5 49 35 76 36 9 1 17 -3
17 -9z m1232 -266 c44 -138 81 -206 179 -332 50 -64 102 -136 117 -161 61
-106 133 -191 225 -264 112 -90 148 -133 180 -218 40 -106 41 -118 15 -128
-16 -6 -25 -5 -28 4 -4 9 -18 7 -55 -11 -27 -13 -63 -23 -78 -24 -18 0 -26 -4
-21 -11 3 -6 16 -8 28 -4 86 26 120 26 109 -1 -3 -8 -22 -17 -43 -20 -20 -3
-43 -10 -51 -15 -24 -14 -4 -19 35 -8 23 6 42 7 47 2 10 -10 23 -105 35 -245
5 -56 4 -78 -5 -78 -6 0 -11 9 -11 19 0 20 -20 20 -65 1 -39 -17 -127 -38
-139 -34 -6 2 -12 28 -14 57 -2 28 -9 97 -17 151 -22 146 -21 157 18 182 39
26 122 53 184 62 26 4 48 13 51 21 4 12 -9 13 -74 6 -44 -4 -98 -7 -120 -6
-23 0 -58 -6 -78 -14 -34 -14 -36 -14 -36 4 0 10 10 25 22 33 18 12 20 18 12
29 -18 22 -25 80 -13 96 24 29 -1 24 -43 -8 -80 -63 -100 -95 -129 -204 -20
-78 -49 -149 -71 -177 -12 -16 -16 -15 -52 17 -21 19 -44 35 -51 35 -21 0 -87
74 -115 127 -49 95 -98 140 -182 167 -23 7 -23 11 7 168 14 73 32 168 41 210
8 43 19 108 23 145 5 37 17 108 26 157 8 49 14 91 11 93 -2 3 -19 -3 -36 -12
-31 -16 -33 -16 -47 4 -8 12 -23 21 -34 21 -11 0 -24 11 -31 25 -16 35 5 58
44 50 16 -4 34 -2 41 3 7 6 30 12 52 14 35 3 40 6 37 26 -2 14 3 25 14 29 35
13 -30 21 -90 11 -62 -11 -70 -9 -61 15 7 16 38 25 118 34 39 4 51 10 59 29 6
14 16 23 22 21 5 -2 22 -43 38 -93z m470 -99 c8 -8 38 47 38 72 1 16 3 15 20
-6 38 -44 22 -81 -38 -87 l-40 -3 -4 40 c-2 23 -1 58 1 78 5 31 6 28 11 -26 3
-34 8 -64 12 -68z m189 -121 c10 -17 39 -41 63 -53 53 -28 146 -111 146 -132
0 -8 -12 -27 -26 -42 l-26 -29 -22 31 c-21 31 -36 39 -36 21 0 -5 7 -13 17
-18 13 -8 15 -20 10 -67 -8 -81 -19 -87 -68 -40 -56 56 -74 88 -97 180 -23 89
-38 227 -27 245 4 7 15 -4 27 -27 11 -21 29 -52 39 -69z m-890 16 c10 -6 19
-15 19 -21 0 -18 -61 -69 -81 -69 -22 0 -23 4 -9 28 5 9 14 29 20 45 10 29 21
33 51 17z m1215 -275 l32 -35 0 -147 c-1 -117 3 -171 21 -257 22 -105 22 -110
5 -123 -16 -11 -71 -18 -91 -10 -4 1 -9 26 -10 56 -2 30 -10 82 -19 115 -8 34
-18 72 -21 86 -3 14 -12 31 -21 38 -14 10 -12 12 14 12 16 1 40 7 52 14 l24
13 -34 12 c-18 7 -57 24 -86 38 l-54 24 7 42 c11 63 36 109 74 134 46 31 68
29 107 -12z m154 -132 c39 -21 90 -48 113 -60 23 -13 58 -23 78 -23 20 0 69
-14 110 -31 41 -17 84 -33 96 -34 44 -6 63 -17 69 -39 9 -39 -32 -424 -48
-443 -14 -18 -23 -16 -63 10 -36 23 -85 104 -85 141 0 12 -5 28 -10 36 -6 9
-7 -5 -3 -42 6 -65 18 -56 -108 -77 -37 -6 -78 -11 -92 -11 -14 0 -32 -6 -39
-13 -7 -8 -23 -19 -35 -25 -19 -10 -21 -8 -27 20 -3 17 -6 65 -6 107 -1 42 -7
112 -15 156 -26 138 -32 365 -11 365 2 0 36 -17 76 -37z m1880 -308 c-7 -8
-27 -15 -44 -14 l-31 1 35 13 c47 18 55 18 40 0z m-3246 -103 c3 -20 4 -45 3
-56 -4 -22 -36 -48 -49 -39 -9 5 -5 64 9 120 7 33 31 17 37 -25z m3094 31
c-10 -2 -28 -2 -40 0 -13 2 -5 4 17 4 22 1 32 -1 23 -4z m165 -55 c-8 -57 -28
-78 -73 -78 -22 0 -41 1 -42 2 -2 1 -16 -10 -32 -25 -16 -15 -40 -27 -52 -27
-18 0 -24 -6 -24 -22 0 -28 -99 -120 -172 -160 -27 -16 -50 -28 -52 -28 -6 0
-35 126 -45 192 -11 75 -4 145 14 152 18 6 60 -17 60 -34 1 -16 7 -16 98 -1
73 13 87 7 87 -33 0 -47 16 -65 23 -27 7 33 0 61 -14 61 -5 0 -9 4 -9 9 0 5
21 14 48 21 26 6 61 15 77 20 17 4 49 8 72 9 41 1 41 1 36 -31z m-3186 14 c19
-12 63 -81 63 -100 1 -9 7 -28 15 -42 23 -40 18 -50 -20 -50 -39 0 -49 -24
-15 -35 18 -6 20 -14 19 -83 -1 -42 -4 -63 -6 -47 -9 59 -25 53 -18 -7 4 -44
3 -58 -7 -59 -20 -2 -32 -5 -48 -11 -30 -13 -86 -15 -139 -7 -30 5 -57 7 -59
4 -3 -2 16 -27 42 -56 32 -35 46 -60 46 -79 0 -16 5 -41 11 -57 6 -15 15 -64
20 -108 5 -44 28 -158 52 -252 l43 -173 -37 0 c-21 0 -41 4 -44 10 -3 5 -23
10 -43 10 -79 0 -79 0 -86 118 -3 59 -7 160 -7 224 0 89 -4 119 -15 129 -18
15 -18 73 0 88 16 13 56 -1 56 -19 0 -6 9 -10 20 -10 20 0 20 1 -3 25 -13 14
-36 29 -53 34 -27 7 -30 12 -36 67 -12 89 -11 122 2 155 12 28 14 29 81 29 49
0 68 -4 66 -12 -1 -7 9 -13 23 -14 13 -1 26 -7 28 -13 2 -6 17 3 33 20 19 21
28 38 24 48 -4 9 -11 45 -16 81 -5 36 -13 83 -19 105 -19 79 -10 110 27 87z
m2652 -6 c14 -17 5 -20 -73 -31 -60 -8 -60 13 0 32 52 15 60 15 73 -1z m204
-13 c-7 -2 -21 -2 -30 0 -10 3 -4 5 12 5 17 0 24 -2 18 -5z m-3403 -36 c0 -2
-11 -35 -24 -73 -13 -38 -27 -97 -31 -131 -4 -35 -11 -63 -16 -63 -12 0 -12
69 0 106 5 16 12 56 14 88 5 56 16 76 45 76 6 0 12 -1 12 -3z m3129 -19 c3 5
20 13 37 16 l31 7 6 -53 c10 -82 9 -91 -18 -118 -39 -40 -56 -52 -62 -46 -3 3
-7 43 -8 88 -2 49 -7 84 -14 86 -6 2 -11 13 -11 24 0 18 1 18 16 3 10 -9 20
-12 23 -7z m-1381 -15 c19 -42 15 -46 -33 -41 -31 4 -51 13 -64 29 l-19 24 36
6 c63 10 67 10 80 -18z m-1718 -10 c0 -38 -21 -155 -27 -149 -8 8 9 176 18
176 5 0 9 -12 9 -27z m1090 17 c0 -5 -4 -10 -10 -10 -5 0 -10 5 -10 10 0 6 5
10 10 10 6 0 10 -4 10 -10z m-95 -50 c-28 -12 -57 -12 -50 0 3 6 21 10 38 9
27 0 29 -2 12 -9z m0 -45 l40 0 16 -62 c10 -35 18 -111 20 -180 l4 -118 -38
-18 c-20 -10 -34 -23 -31 -29 10 -17 74 -3 149 32 76 35 161 52 153 30 -4 -14
-67 -39 -123 -49 -35 -6 -37 -7 -16 -13 13 -4 49 -1 79 7 30 8 59 12 63 9 14
-8 -9 -44 -34 -54 -21 -8 -21 -9 5 -9 25 -1 27 -5 37 -68 35 -208 53 -335 55
-388 2 -33 7 -79 11 -102 7 -40 6 -43 -14 -43 -11 0 -21 1 -21 3 -10 60 -10
76 -1 82 6 3 11 17 11 31 0 23 -1 23 -18 6 -11 -11 -41 -21 -72 -25 -47 -6
-59 -12 -91 -47 -61 -66 -101 -48 -113 52 -4 31 -14 62 -22 69 -8 6 -14 20
-14 32 0 11 -11 49 -24 86 -22 63 -23 80 -25 351 -1 157 -3 294 -5 305 -2 13
-14 24 -35 30 -30 9 -32 12 -26 45 7 34 24 56 35 42 3 -4 23 -7 45 -7z m-652
-25 c-3 -11 0 -20 6 -20 6 0 11 -7 11 -15 0 -8 -6 -15 -14 -15 -8 0 -21 -3
-30 -6 -21 -8 -21 19 0 51 20 30 34 33 27 5z m77 -35 c10 -13 9 -15 -9 -15
-12 0 -21 6 -21 15 0 8 4 15 9 15 5 0 14 -7 21 -15z m299 1 c15 -8 40 -33 55
-54 15 -22 36 -48 47 -57 17 -16 20 -17 44 -1 14 9 25 23 25 32 0 8 4 13 8 10
11 -7 -1 -91 -16 -109 -6 -7 -48 -19 -92 -26 -44 -8 -80 -17 -80 -23 0 -19 34
-20 96 -3 36 10 68 15 71 11 4 -3 10 -48 14 -99 5 -72 4 -94 -7 -103 -8 -6
-45 -9 -95 -6 -55 3 -89 0 -106 -9 -20 -11 -26 -11 -33 1 -5 8 -12 11 -17 7
-4 -4 -2 -17 5 -28 10 -16 10 -22 -1 -34 -8 -8 -17 -11 -21 -8 -3 4 -3 -9 0
-28 7 -39 48 -79 110 -110 22 -11 55 -35 73 -53 29 -30 31 -35 17 -49 -9 -9
-16 -23 -16 -32 0 -8 -8 -19 -17 -22 -10 -4 -29 -15 -42 -25 -28 -22 -41 -23
-41 -4 0 7 -11 21 -25 30 -14 9 -25 26 -25 39 -1 12 -7 36 -15 52 l-13 30 -1
-43 c-1 -47 15 -87 48 -116 28 -25 27 -30 -13 -71 -41 -42 -88 -48 -106 -14
-28 51 -77 280 -105 484 -7 55 -20 117 -29 138 -18 42 -22 38 54 60 25 8 51
12 58 9 12 -4 41 -89 48 -145 16 -124 18 -131 33 -113 12 14 13 26 4 57 -13
50 -17 215 -5 223 5 3 20 -9 33 -25 62 -78 78 -92 85 -75 4 9 -1 25 -10 35 -9
10 -14 20 -11 23 8 8 -67 68 -77 62 -14 -9 -9 63 7 93 8 15 21 45 29 66 17 42
17 42 55 23z m2487 -84 c13 -31 12 -33 -12 -42 -14 -6 -32 -10 -40 -10 -9 0
-25 -5 -36 -11 -30 -16 -41 1 -33 52 l7 44 50 0 c47 0 51 -2 64 -33z m-3255
-23 l-9 -34 -1 31 c-1 17 2 34 6 37 12 13 14 -1 4 -34z m-165 -6 c-10 -10 -19
5 -10 18 6 11 8 11 12 0 2 -7 1 -15 -2 -18z m2159 -3 c-3 -5 -13 -10 -21 -10
-8 0 -14 5 -14 10 0 6 9 10 21 10 11 0 17 -4 14 -10z m-2007 -119 c-7 -101
-22 -111 -29 -21 -7 82 -5 90 18 90 13 0 15 -11 11 -69z m2758 -66 c6 -17 20
-57 31 -90 18 -55 24 -62 78 -94 39 -22 60 -30 63 -22 6 19 54 72 60 67 2 -3
6 -16 7 -28 2 -13 6 -48 10 -79 l7 -56 -64 -12 c-34 -7 -85 -17 -112 -23 -33
-7 -50 -7 -55 0 -6 10 -25 15 -48 13 -20 -2 -15 -31 5 -32 16 -1 16 -2 0 -6
-10 -2 -25 3 -34 11 -8 9 -11 16 -6 16 9 0 4 34 -24 157 -8 34 -14 114 -14
178 l0 116 43 -43 c24 -24 48 -57 53 -73z m1014 76 c0 -9 -26 -20 -97 -41 -23
-7 -40 -17 -37 -22 3 -4 -5 -12 -18 -17 -35 -12 -118 -22 -118 -13 0 5 30 19
68 31 75 25 92 32 142 55 40 18 60 20 60 7z m-1340 -21 c10 -6 11 -10 3 -10
-7 0 -13 -4 -13 -10 0 -5 9 -10 20 -10 25 0 93 -31 103 -47 4 -7 17 -13 28
-13 11 0 27 -7 35 -15 14 -13 13 -15 -8 -16 -57 -4 -96 -8 -140 -14 -46 -6
-47 -5 -53 22 -4 15 -8 37 -11 48 -16 64 -15 75 3 75 10 0 25 -5 33 -10z
m-2627 -7 c-7 -2 -19 -2 -25 0 -7 3 -2 5 12 5 14 0 19 -2 13 -5z m37 -54 c0
-5 -19 -9 -42 -8 l-43 0 35 13 c36 13 50 12 50 -5z m3137 -16 c28 -32 28 -37
1 -68 -38 -43 -65 -56 -104 -49 -42 8 -71 55 -60 98 8 32 35 45 96 45 36 1 49
-4 67 -26z m-3123 -27 c-4 -11 -52 -28 -86 -30 -18 -2 -9 20 13 31 34 18 80
17 73 -1z m1633 -23 c34 -18 64 -41 67 -51 36 -111 53 -235 63 -434 l6 -138
-41 0 c-35 0 -42 4 -46 23 -32 152 -40 184 -51 197 -25 28 -37 113 -37 253 1
86 -3 135 -9 131 -5 -3 -7 -15 -3 -27 4 -15 3 -19 -4 -12 -14 13 -28 99 -16
94 5 -2 37 -19 71 -36z m1143 -23 c0 -14 -14 -18 -77 -23 -39 -3 -50 -1 -46 9
3 8 26 15 56 17 29 2 55 4 60 5 4 1 7 -3 7 -8z m-2764 -15 c9 -9 11 -15 4 -15
-6 0 1 -10 15 -22 24 -22 26 -29 28 -118 2 -89 1 -95 -19 -98 -11 -2 -37 11
-58 28 -22 16 -47 30 -57 30 -11 0 -19 5 -19 10 0 6 -13 24 -30 41 -24 26 -31
29 -36 16 -3 -9 1 -24 10 -32 9 -9 16 -19 17 -23 3 -36 9 -62 20 -87 21 -50
18 -75 -7 -75 -13 0 -25 4 -28 9 -3 5 -21 12 -40 15 -33 6 -35 9 -26 32 6 14
10 40 10 59 0 19 5 46 12 62 7 15 13 33 14 38 1 6 3 13 4 18 4 10 7 26 9 35 0
5 17 16 36 25 19 9 35 21 35 27 0 5 8 10 18 10 9 0 28 7 42 14 14 8 26 14 28
15 2 1 10 -6 18 -14z m2651 -49 c48 3 94 1 101 -4 7 -5 15 -33 18 -63 3 -30 9
-65 14 -79 5 -14 14 -51 21 -82 10 -50 10 -60 -5 -82 -9 -15 -21 -26 -26 -26
-6 0 -10 -10 -11 -22 0 -23 0 -23 -9 -2 -5 12 -47 43 -95 70 -86 48 -159 104
-137 104 9 0 11 27 10 98 -3 99 8 146 23 104 8 -21 13 -22 96 -16z m-1553 -13
c3 -10 10 -40 16 -68 6 -27 16 -66 24 -85 18 -48 56 -174 56 -188 0 -7 -9 -12
-20 -12 -11 0 -20 -4 -20 -9 0 -5 -9 -11 -20 -14 -12 -3 -20 -14 -20 -26 0
-12 -4 -21 -10 -21 -5 0 -10 -15 -10 -34 0 -31 -3 -34 -36 -38 -24 -3 -42 1
-51 11 -23 23 -12 115 21 181 26 52 27 60 22 147 -3 50 -11 104 -16 119 -9 24
-8 31 6 41 25 18 52 16 58 -4z m1402 -5 c9 -29 6 -128 -4 -142 -5 -6 -8 -15
-8 -21 2 -21 68 -102 99 -120 17 -10 39 -27 49 -37 9 -11 29 -21 45 -22 15 -2
31 -4 35 -5 17 -3 46 -74 52 -129 6 -53 5 -62 -9 -62 -14 0 -16 8 -11 49 5 53
-1 63 -44 76 -14 4 -39 20 -56 36 -36 35 -70 34 -89 -2 l-13 -24 -7 28 c-4 15
-3 33 3 40 15 18 -3 46 -19 30 -7 -7 -24 -9 -43 -6 -26 5 -29 4 -20 -8 7 -8
24 -43 39 -79 15 -36 36 -77 46 -92 31 -43 25 -49 -43 -46 l-62 3 -12 57 c-6
31 -18 63 -27 72 -8 9 -18 42 -22 73 -4 32 -11 69 -16 83 -13 34 -39 175 -39
209 0 27 4 29 68 44 91 21 100 20 108 -5z m-2062 -54 c-13 -57 -24 -80 -24
-51 0 30 23 116 30 112 4 -3 2 -30 -6 -61z m506 45 c0 -5 -8 -9 -18 -9 -26 0
-44 -21 -31 -36 8 -10 18 -8 46 8 34 20 36 21 48 4 14 -19 29 -85 21 -93 -8
-8 -73 17 -100 38 -14 11 -27 19 -28 19 -8 -3 -38 13 -38 20 0 4 13 22 29 38
20 22 34 29 50 25 11 -3 21 -9 21 -14z m4147 -30 c14 -54 17 -159 4 -159 -5 0
-21 4 -34 9 -22 9 -25 17 -32 92 -6 73 -5 85 11 96 27 20 38 11 51 -38z m163
-14 c-19 -23 -50 -19 -50 6 0 11 4 17 10 14 5 -3 18 -2 27 4 22 12 30 -3 13
-24z m-35 -85 c3 -11 13 -20 22 -20 12 0 14 -9 10 -40 -5 -49 -9 -54 -35 -46
-13 5 -21 18 -23 39 -8 69 10 116 26 67z m-5285 -49 c0 -4 -3 -11 -7 -14 -9
-9 -33 12 -33 30 0 11 4 11 20 3 11 -6 20 -14 20 -19z m3548 23 c12 -4 22 -10
22 -14 0 -8 -139 -24 -147 -16 -8 8 50 35 77 35 14 1 35 -2 48 -5z m82 -4
c-20 -13 -50 -13 -50 0 0 6 15 10 33 10 24 0 28 -3 17 -10z m-3834 -21 c10
-16 -23 -46 -36 -33 -6 6 -8 18 -4 27 7 19 29 22 40 6z m314 -38 c5 -11 10
-36 10 -55 0 -42 -15 -46 -78 -21 -30 12 -41 24 -49 50 -6 19 -9 36 -7 38 3 2
29 5 59 6 44 1 56 -3 65 -18z m331 -41 c-6 -28 -11 -69 -11 -90 0 -22 -4 -40
-10 -40 -16 0 -11 102 7 147 23 54 28 48 14 -17z m2722 39 c-5 -5 -36 -13 -67
-16 -31 -3 -56 -10 -56 -14 0 -5 -15 -9 -32 -9 -29 1 -31 2 -14 12 21 12 116
35 156 37 17 1 21 -2 13 -10z m-2671 -111 c-6 -6 -7 0 -4 19 5 21 7 23 10 9 2
-10 0 -22 -6 -28z m2198 -118 c5 -29 7 -56 4 -61 -8 -13 -42 33 -48 64 -2 15
-8 31 -11 37 -4 6 -1 17 5 25 18 22 38 -4 50 -65z m-1438 38 c-7 -7 -12 -20
-12 -30 0 -10 -2 -18 -4 -18 -2 0 -11 -3 -20 -6 -11 -4 -16 -1 -16 10 0 27 23
56 44 56 16 0 17 -3 8 -12z m-252 -27 c0 -15 -23 -28 -41 -24 -24 7 -24 19 -2
31 17 10 43 6 43 -7z m580 -11 c0 -12 -27 -26 -69 -35 -45 -10 -38 15 10 32
42 15 59 16 59 3z"/>
<path d="M5920 10240 c-12 -8 -11 -10 5 -9 11 1 31 5 45 9 24 8 24 8 -5 9 -16
0 -37 -4 -45 -9z"/>
<path d="M3944 8746 c-3 -8 -1 -23 5 -35 6 -11 11 -41 12 -68 1 -47 1 -48 9
-13 5 20 4 55 -2 83 -10 49 -15 56 -24 33z"/>
<path d="M4060 8666 c0 -9 5 -16 10 -16 6 0 10 4 10 9 0 6 -4 13 -10 16 -5 3
-10 -1 -10 -9z"/>
<path d="M3452 6750 c0 -14 2 -19 5 -12 2 6 2 18 0 25 -3 6 -5 1 -5 -13z"/>
<path d="M3462 6680 c0 -19 2 -27 5 -17 2 9 2 25 0 35 -3 9 -5 1 -5 -18z"/>
<path d="M4491 4664 c0 -11 3 -14 6 -6 3 7 2 16 -1 19 -3 4 -6 -2 -5 -13z"/>
<path d="M4072 4635 c0 -16 2 -22 5 -12 2 9 2 23 0 30 -3 6 -5 -1 -5 -18z"/>
<path d="M4056 4473 c-12 -38 -25 -173 -32 -333 -6 -150 -9 -171 -35 -235 -43
-106 -62 -220 -62 -375 1 -139 27 -390 45 -424 10 -19 11 -19 21 0 20 35 21
253 2 389 -21 148 -16 284 13 395 21 79 35 197 52 444 10 142 9 180 -4 139z"/>
<path d="M4690 4460 c0 -20 17 -56 60 -128 11 -18 32 -70 47 -115 15 -45 30
-84 33 -87 3 -3 6 -12 8 -20 5 -29 25 -60 39 -60 17 0 16 4 -2 40 -9 17 -13
30 -10 30 4 0 -1 10 -9 22 -9 12 -16 35 -16 51 0 15 -11 50 -25 77 -14 27 -25
58 -25 68 0 11 -9 31 -20 45 -11 14 -20 32 -20 41 0 9 -7 16 -16 16 -9 0 -18
9 -21 20 -7 26 -23 26 -23 0z"/>
<path d="M4930 4476 c0 -2 9 -64 20 -137 21 -142 45 -248 62 -283 6 -12 14
-28 18 -36 8 -16 80 -27 80 -12 0 5 -13 12 -28 15 -35 7 -66 71 -82 167 -6 36
-17 99 -25 140 -8 41 -17 92 -20 113 -3 20 -10 37 -15 37 -6 0 -10 -2 -10 -4z"/>
<path d="M4670 4316 c0 -9 5 -16 10 -16 6 0 10 4 10 9 0 6 -4 13 -10 16 -5 3
-10 -1 -10 -9z"/>
<path d="M4696 4245 c4 -22 17 -62 29 -90 13 -27 26 -58 29 -67 3 -10 10 -18
15 -18 6 0 1 19 -9 43 -11 23 -20 52 -20 63 0 12 -7 27 -15 34 -8 7 -15 20
-15 29 0 9 -5 23 -11 31 -7 11 -8 4 -3 -25z"/>
<path d="M6475 3972 c-61 -60 -128 -120 -150 -135 -34 -22 -137 -58 -236 -80
-39 -10 -90 -35 -130 -65 -20 -15 -60 -45 -90 -68 -30 -22 -69 -49 -88 -59
-34 -17 -73 -56 -65 -64 2 -2 12 3 21 12 26 23 150 87 156 80 8 -7 1 -44 -38
-208 -18 -77 -36 -157 -40 -177 -4 -24 -11 -38 -20 -38 -8 0 -15 5 -15 11 0 5
-14 23 -31 39 -28 25 -32 35 -36 96 -6 104 -10 114 -36 110 -20 -3 -22 -9 -22
-57 1 -70 13 -190 31 -310 8 -53 14 -99 14 -103 0 -3 7 -6 15 -6 8 0 15 -7 15
-15 0 -9 -6 -12 -15 -9 -8 4 -15 1 -15 -4 0 -15 51 -53 61 -46 5 3 9 -2 9 -10
0 -8 13 -29 29 -45 l30 -30 38 32 c84 70 97 91 152 233 17 45 40 89 51 99 12
10 68 41 125 69 124 61 126 59 60 -70 -48 -92 -56 -137 -13 -69 44 70 127 238
149 300 15 45 22 93 25 195 5 154 16 203 67 320 17 39 70 127 100 168 24 31
-7 4 -108 -96z m-64 -198 c-5 -21 -19 -70 -31 -109 -12 -38 -26 -95 -31 -127
-13 -83 -37 -138 -67 -149 -45 -17 -50 9 -28 136 26 142 51 198 126 278 39 41
47 34 31 -29z m-226 -43 c-3 -5 4 -13 16 -16 30 -10 5 -25 -42 -25 -20 0 -51
-5 -70 -11 -19 -6 -40 -13 -48 -15 -10 -3 -11 -8 -4 -15 8 -8 29 -6 73 5 34 9
75 16 92 16 30 0 30 -1 23 -37 -4 -21 -10 -92 -14 -158 l-6 -120 -79 -52 c-43
-29 -108 -74 -145 -101 -83 -61 -93 -65 -130 -46 -29 15 -30 16 -16 47 8 18
28 82 45 142 49 169 70 238 81 257 5 10 9 24 9 31 0 22 115 88 168 97 26 4 48
8 50 9 2 0 1 -3 -3 -8z m-258 -652 c2 -14 -3 -41 -11 -60 -13 -28 -15 -30 -16
-11 0 12 -4 22 -10 22 -11 0 -14 63 -3 74 14 14 36 0 40 -25z m-32 -128 c3 -5
1 -12 -5 -16 -5 -3 -10 1 -10 9 0 18 6 21 15 7z"/>
<path d="M6315 3618 c-36 -110 -51 -188 -37 -188 12 0 42 94 49 153 5 43 -2
64 -12 35z"/>
<path d="M4782 4040 c0 -14 2 -19 5 -12 2 6 2 18 0 25 -3 6 -5 1 -5 -13z"/>
<path d="M5095 3900 c3 -5 8 -10 11 -10 2 0 4 5 4 10 0 6 -5 10 -11 10 -5 0
-7 -4 -4 -10z"/>
<path d="M5120 3872 c0 -23 83 -90 119 -96 108 -19 116 -20 102 -2 -7 9 -26
16 -41 16 -30 0 -110 38 -110 52 0 4 -8 8 -17 8 -9 0 -25 7 -35 17 -11 9 -18
11 -18 5z"/>
<path d="M5460 3739 c0 -9 48 -24 55 -17 2 2 -9 9 -25 15 -17 6 -30 7 -30 2z"/>
<path d="M5826 3511 c-3 -4 -24 -11 -47 -15 -30 -5 -39 -10 -32 -17 8 -8 17
-8 31 0 11 6 30 11 41 11 22 0 36 16 22 24 -5 4 -12 2 -15 -3z"/>
<path d="M5057 3474 c18 -14 57 -58 87 -97 77 -101 161 -187 231 -235 68 -46
124 -97 178 -161 31 -38 40 -43 65 -38 16 3 34 1 41 -6 8 -8 11 -7 11 4 0 8
-8 22 -17 31 -10 9 -31 30 -47 47 -16 17 -35 31 -43 31 -7 0 -13 4 -13 8 0 5
-33 32 -74 60 -64 45 -186 167 -186 186 0 4 -21 26 -47 49 -26 23 -56 52 -68
65 -12 12 -29 22 -38 22 -9 0 -32 14 -50 30 -19 17 -41 30 -48 30 -8 0 1 -12
18 -26z"/>
<path d="M6732 3445 c-1 -16 3 -48 8 -70 5 -22 14 -110 20 -195 16 -245 30
-350 48 -350 13 0 14 23 9 168 -4 97 -13 192 -21 227 -9 33 -16 81 -16 108 0
33 -6 53 -19 66 -11 11 -21 32 -24 48 l-4 28 -1 -30z"/>
<path d="M5801 3389 c-19 -16 -22 -22 -12 -32 10 -9 15 -8 27 7 12 17 20 47
12 46 -2 -1 -14 -10 -27 -21z"/>
<path d="M5771 3261 c-7 -5 -12 -14 -10 -20 3 -6 9 -7 18 -2 7 5 12 14 10 20
-3 6 -9 7 -18 2z"/>
<path d="M6435 3098 c0 -67 -51 -369 -85 -506 -11 -45 -36 -130 -54 -189 -31
-100 -53 -183 -108 -418 -12 -49 -28 -105 -35 -123 -19 -45 -13 -75 7 -36 8
16 27 45 41 64 17 21 38 75 54 135 38 141 62 217 102 320 71 183 130 689 92
783 -14 33 -14 33 -14 -30z"/>
<path d="M6255 2910 c-139 -22 -355 -178 -355 -257 0 -12 6 -9 23 13 43 57
201 184 229 184 5 0 27 9 50 20 23 11 56 23 75 26 18 3 36 10 39 15 3 5 2 8
-3 8 -4 -1 -30 -5 -58 -9z"/>
<path d="M6897 2858 c-3 -13 -14 -57 -25 -98 -11 -41 -22 -115 -25 -165 l-6
-90 18 70 c22 85 56 294 49 301 -3 3 -8 -5 -11 -18z"/>
<path d="M4550 2859 c1 -8 7 -36 15 -64 l14 -50 0 45 c0 25 -6 54 -14 64 -11
14 -15 16 -15 5z"/>
<path d="M4581 2682 c-1 -24 5 -64 13 -90 8 -26 23 -85 34 -132 18 -77 20 -81
21 -41 1 53 -25 206 -42 241 -6 14 -14 34 -18 45 -5 14 -7 6 -8 -23z"/>
<path d="M5872 2590 c0 -14 2 -19 5 -12 2 6 2 18 0 25 -3 6 -5 1 -5 -13z"/>
<path d="M6721 2432 c0 -75 3 -155 6 -177 l7 -40 7 45 c4 25 16 89 28 143 23
108 26 157 11 157 -5 0 -15 -9 -22 -20 -16 -26 -32 -26 -25 0 3 11 2 22 -3 25
-4 3 -8 -57 -9 -133z"/>
<path d="M6112 2540 c0 -14 2 -19 5 -12 2 6 2 18 0 25 -3 6 -5 1 -5 -13z"/>
<path d="M6141 2384 c0 -11 3 -14 6 -6 3 7 2 16 -1 19 -3 4 -6 -2 -5 -13z"/>
<path d="M5958 2112 c-1 -5 -52 -26 -113 -46 -121 -42 -275 -113 -275 -127 0
-13 25 -11 62 6 153 68 258 93 258 61 0 -9 -17 -16 -45 -21 -25 -3 -60 -13
-78 -21 -32 -14 -31 -14 23 -8 30 4 65 10 76 15 29 11 44 -7 44 -53 0 -62 22
-188 32 -188 6 0 8 17 4 43 -17 127 -18 183 -3 219 16 39 33 128 24 128 -3 0
-7 -4 -9 -8z"/>
<path d="M3260 2500 c0 -5 5 -10 10 -10 6 0 10 5 10 10 0 6 -4 10 -10 10 -5 0
-10 -4 -10 -10z"/>
<path d="M4057 2219 c7 -7 15 -10 18 -7 3 3 -2 9 -12 12 -14 6 -15 5 -6 -5z"/>
<path d="M4076 2185 c4 -8 8 -15 10 -15 2 0 4 7 4 15 0 8 -4 15 -10 15 -5 0
-7 -7 -4 -15z"/>
<path d="M4233 2050 c3 -19 8 -44 10 -55 3 -11 6 -25 6 -31 1 -15 41 -26 41
-11 0 6 -7 18 -16 28 -8 9 -16 31 -16 48 -1 17 -8 37 -16 43 -13 11 -14 8 -9
-22z"/>
<path d="M4454 1879 c7 -45 16 -48 16 -6 0 21 -5 37 -11 37 -6 0 -8 -13 -5
-31z"/>
<path d="M4485 1808 c-3 -44 -11 -93 -16 -107 -8 -19 -7 -28 5 -37 11 -8 14
-21 9 -47 -7 -46 12 -56 59 -32 42 21 158 33 158 16 0 -8 8 -10 22 -5 12 4 45
9 72 13 29 3 51 12 54 20 4 11 -5 13 -49 7 -29 -4 -59 -12 -66 -18 -10 -8 -13
-6 -13 6 0 11 9 16 28 16 15 0 32 4 38 9 5 5 20 11 34 13 14 2 25 10 25 18 0
17 -34 17 -101 -1 -30 -8 -47 -8 -62 0 -16 9 -22 7 -33 -9 -17 -24 -127 -56
-142 -41 -14 14 -12 56 4 131 14 62 16 65 47 68 18 2 32 7 32 11 0 12 -40 37
-71 44 l-26 7 -8 -82z"/>
<path d="M4785 1750 c0 -18 4 -26 13 -23 6 3 12 11 12 18 0 7 -6 17 -12 23
-10 8 -13 4 -13 -18z"/>
<path d="M4830 1750 c-13 -9 -13 -11 0 -19 16 -11 43 5 34 20 -7 11 -15 11
-34 -1z"/>
<path d="M4543 1727 c-9 -14 18 -27 59 -27 40 0 59 17 37 31 -18 11 -88 8 -96
-4z"/>
<path d="M3821 864 c-54 -11 -81 -22 -97 -40 -13 -13 -28 -24 -34 -24 -5 0
-10 -4 -10 -10 0 -14 24 -12 38 2 7 7 60 24 118 38 58 14 105 30 105 35 -1 15
-39 15 -120 -1z"/>
<path d="M3743 563 c-21 -8 -15 -23 9 -23 11 0 35 -11 52 -23 35 -27 86 -43
86 -27 0 6 -16 18 -35 27 -19 9 -35 20 -35 25 0 4 -10 8 -23 8 -13 0 -27 4
-32 9 -6 5 -16 6 -22 4z"/>
<path d="M3370 1205 c-8 -9 -8 -15 -2 -15 12 0 26 19 19 26 -2 2 -10 -2 -17
-11z"/>
<path d="M3370 931 c0 -5 -9 -13 -20 -16 -28 -9 -25 -25 5 -25 20 0 25 5 25
25 0 14 -2 25 -5 25 -3 0 -5 -4 -5 -9z"/>
<path d="M5402 765 c0 -16 2 -22 5 -12 2 9 2 23 0 30 -3 6 -5 -1 -5 -18z"/>
<path d="M5047 949 c8 -8 22 -8 50 -1 l38 10 -49 1 c-37 1 -47 -2 -39 -10z"/>
<path d="M4080 795 c-10 -12 -9 -15 7 -15 10 0 28 7 39 15 18 14 18 14 -7 15
-15 0 -32 -7 -39 -15z"/>
<path d="M3528 451 c-15 -6 -15 -8 2 -29 20 -25 34 -15 23 16 -5 13 -14 17
-25 13z"/>
<path d="M4908 663 c6 -2 18 -2 25 0 6 3 1 5 -13 5 -14 0 -19 -2 -12 -5z"/>
<path d="M7515 791 c-3 -5 -1 -12 5 -16 5 -3 10 1 10 9 0 18 -6 21 -15 7z"/>
<path d="M5826 10623 c-3 -4 8 -12 26 -17 62 -21 40 -31 -75 -33 -61 -2 -142
-7 -179 -13 -102 -15 -138 -28 -358 -132 -52 -25 -111 -51 -132 -57 -20 -7
-58 -32 -84 -56 -26 -25 -52 -46 -58 -49 -6 -2 -3 -5 7 -5 10 -1 33 10 51 24
48 36 206 92 216 75 6 -9 16 -10 41 -2 19 6 59 16 90 22 33 6 78 25 110 47
113 75 236 113 365 113 l64 0 0 29 c0 42 -58 79 -84 54z m-480 -212 c-8 -12
-95 -35 -103 -27 -3 3 3 6 14 6 12 0 23 7 27 15 3 9 18 15 36 15 17 0 29 -4
26 -9z"/>
<path d="M6510 10496 c-3 -2 -32 -7 -64 -10 -33 -3 -61 -7 -63 -9 -2 -2 34 -7
80 -9 49 -3 94 -12 108 -21 13 -8 47 -20 74 -26 28 -7 70 -26 94 -42 25 -16
48 -29 53 -29 5 0 21 -11 36 -25 15 -14 34 -25 43 -25 9 0 29 -10 45 -22 16
-13 41 -32 56 -43 15 -11 54 -41 86 -66 40 -31 64 -44 73 -39 9 6 5 11 -15 16
-16 4 -31 17 -37 31 -16 42 -11 53 20 53 43 0 45 13 8 47 -55 52 -158 103
-228 112 -60 8 -179 52 -231 84 -22 14 -129 32 -138 23z"/>
<path d="M4878 10233 c7 -3 16 -2 19 1 4 3 -2 6 -13 5 -11 0 -14 -3 -6 -6z"/>
<path d="M4820 10210 c-21 -7 -21 -8 -5 -9 11 0 27 4 35 9 18 11 5 11 -30 0z"/>
<path d="M5338 10123 c6 -2 18 -2 25 0 6 3 1 5 -13 5 -14 0 -19 -2 -12 -5z"/>
<path d="M7647 10124 c-4 -4 -7 -14 -7 -23 0 -11 3 -12 11 -4 6 6 10 16 7 23
-2 6 -7 8 -11 4z"/>
<path d="M7140 10100 c-8 -14 -7 -29 4 -55 17 -41 46 -48 46 -11 0 14 5 28 10
31 18 11 11 32 -15 43 -33 15 -32 15 -45 -8z"/>
<path d="M6516 9969 c-60 -10 -79 -17 -72 -27 6 -10 117 5 129 17 14 14 -6 18
-57 10z"/>
<path d="M4436 9909 c-16 -9 -32 -21 -35 -26 -3 -4 -27 -27 -53 -50 -26 -24
-45 -43 -42 -43 7 0 115 74 142 98 32 29 24 43 -12 21z"/>
<path d="M6395 9900 c4 -6 11 -8 16 -5 14 9 11 15 -7 15 -8 0 -12 -5 -9 -10z"/>
<path d="M6368 9883 c7 -3 16 -2 19 1 4 3 -2 6 -13 5 -11 0 -14 -3 -6 -6z"/>
<path d="M4270 9765 c-7 -9 -8 -15 -2 -15 5 0 12 7 16 15 3 8 4 15 2 15 -2 0
-9 -7 -16 -15z"/>
<path d="M6066 9764 c-5 -12 -2 -15 10 -10 8 3 18 6 20 6 3 0 2 5 -1 10 -9 15
-22 12 -29 -6z"/>
<path d="M4178 9685 c-45 -33 -79 -75 -60 -75 12 0 117 98 111 104 -2 2 -25
-11 -51 -29z"/>
<path d="M6815 9550 c-48 -7 -102 -32 -154 -72 -49 -37 26 -16 124 35 10 5 70
12 132 15 86 4 113 8 113 18 0 11 -19 14 -82 13 -46 -1 -105 -5 -133 -9z"/>
<path d="M5772 9435 c-23 -7 -48 -18 -55 -23 -7 -6 -59 -18 -117 -27 -58 -9
-115 -20 -128 -25 -33 -14 -134 -29 -272 -40 -68 -6 -128 -14 -134 -19 -6 -4
-33 -14 -61 -20 -54 -13 -185 -72 -185 -83 0 -11 106 18 141 39 19 11 57 24
84 28 28 4 56 11 62 17 7 6 59 12 115 13 149 5 247 16 293 32 22 8 72 20 112
28 60 11 223 78 223 91 0 8 -36 3 -78 -11z"/>
<path d="M6797 9356 c-37 -18 -84 -48 -103 -67 -34 -32 -84 -126 -84 -156 0
-18 -27 -68 -58 -107 -13 -16 -20 -31 -17 -34 11 -12 46 40 95 141 27 57 60
113 73 124 27 25 134 93 146 93 4 0 16 9 26 20 26 29 3 25 -78 -14z"/>
<path d="M5150 9260 l-25 -8 25 0 c14 -1 43 3 65 7 l40 9 -40 0 c-22 0 -51 -4
-65 -8z"/>
<path d="M4980 9200 c0 -6 11 -8 28 -4 39 10 40 14 4 14 -18 0 -32 -5 -32 -10z"/>
<path d="M4779 9173 c-13 -17 -13 -17 6 -3 11 8 22 16 24 17 2 2 0 3 -6 3 -6
0 -17 -8 -24 -17z"/>
<path d="M6027 9109 c-7 -24 -1 -39 14 -39 11 0 12 30 0 48 -6 10 -10 8 -14
-9z"/>
<path d="M6339 8965 c-3 -77 -2 -169 2 -205 4 -36 10 -106 12 -156 4 -68 11
-104 29 -140 l23 -49 3 42 c2 23 -2 75 -8 115 -28 185 -40 291 -49 433 l-7
100 -5 -140z"/>
<path d="M5992 9040 c0 -19 2 -27 5 -17 2 9 2 25 0 35 -3 9 -5 1 -5 -18z"/>
<path d="M6046 9018 c3 -18 13 -127 24 -242 11 -115 24 -214 30 -220 14 -13
10 58 -14 259 -15 121 -24 200 -25 228 -1 4 -5 7 -10 7 -6 0 -8 -15 -5 -32z"/>
<path d="M6795 9034 c-8 -9 -23 -30 -32 -47 -9 -18 -19 -34 -23 -37 -25 -17
-78 -204 -67 -233 3 -6 6 1 6 16 1 16 5 26 10 23 5 -4 12 13 16 36 9 52 63
188 76 188 5 0 9 7 9 15 0 9 6 18 14 21 17 6 30 34 16 34 -5 0 -16 -7 -25 -16z"/>
<path d="M6914 8908 c4 -46 14 -124 21 -174 l14 -89 -6 91 c-3 59 -1 94 6 98
16 11 45 -13 77 -63 26 -42 29 -53 27 -126 l-2 -80 14 50 c8 28 14 75 15 106
l0 56 -70 69 c-47 47 -72 81 -76 102 -4 18 -11 35 -17 39 -6 4 -7 -23 -3 -79z"/>
<path d="M5962 8930 c0 -14 2 -19 5 -12 2 6 2 18 0 25 -3 6 -5 1 -5 -13z"/>
<path d="M4933 8885 c0 -27 2 -38 4 -22 2 15 2 37 0 50 -2 12 -4 0 -4 -28z"/>
<path d="M4932 8800 c0 -14 2 -19 5 -12 2 6 2 18 0 25 -3 6 -5 1 -5 -13z"/>
<path d="M7130 8791 c0 -6 27 -15 60 -22 82 -16 172 -79 165 -115 -3 -13 -8
-36 -11 -51 -13 -68 -26 -82 -84 -95 -84 -18 -171 -16 -203 5 -16 10 -25 23
-21 29 4 7 3 8 -4 4 -20 -12 -15 -56 6 -56 10 0 23 -5 29 -11 11 -11 29 -11
272 5 98 6 136 16 62 16 -53 0 -59 15 -35 90 l19 59 59 -6 c44 -5 57 -3 52 5
-4 7 -15 12 -24 13 -22 0 -87 35 -144 75 -63 46 -198 83 -198 55z"/>
<path d="M8193 8732 c-8 -5 -9 -26 -3 -77 7 -60 5 -83 -16 -163 -14 -51 -29
-103 -34 -115 -4 -12 -20 -62 -35 -112 -14 -49 -33 -110 -41 -135 -25 -74 -24
-84 13 -86 41 -2 52 14 90 141 49 161 75 328 71 459 -2 71 -6 91 -18 93 -8 2
-20 0 -27 -5z"/>
<path d="M7612 8680 c0 -19 2 -27 5 -17 2 9 2 25 0 35 -3 9 -5 1 -5 -18z"/>
<path d="M4931 8664 c0 -11 3 -14 6 -6 3 7 2 16 -1 19 -3 4 -6 -2 -5 -13z"/>
<path d="M6681 8657 c-1 -34 45 -85 61 -69 6 6 17 8 25 5 8 -3 19 0 24 8 9 16
-23 38 -57 39 -12 0 -29 10 -37 23 l-16 22 0 -28z"/>
<path d="M6821 8645 c-1 -17 6 -57 14 -88 8 -32 15 -74 15 -93 0 -32 -2 -35
-22 -28 -25 7 -105 7 -117 -1 -24 -14 -41 8 -41 53 0 86 -22 28 -30 -80 -7
-91 -47 -272 -94 -428 -11 -35 -13 -109 -10 -335 3 -238 -6 -458 -19 -472 -2
-1 -36 -9 -76 -18 -101 -21 -169 -60 -283 -163 -133 -118 -142 -131 -124 -173
7 -19 17 -59 20 -89 4 -30 18 -94 32 -142 40 -143 35 -156 -74 -208 -44 -21
-92 -32 -185 -44 -159 -21 -251 -44 -352 -88 -82 -36 -95 -38 -95 -12 0 22 89
113 132 135 38 19 54 36 45 46 -9 8 -144 -85 -167 -115 -11 -15 -23 -31 -28
-37 -118 -152 -160 -265 -142 -378 5 -34 12 -115 16 -179 4 -65 11 -115 15
-112 11 7 11 125 0 181 -4 23 -5 45 -2 50 10 15 78 51 149 80 67 27 69 27 327
28 143 1 235 0 205 -2 -30 -2 -64 -8 -75 -13 -11 -5 -36 -11 -55 -14 -19 -2
28 -2 104 1 77 3 150 9 162 13 12 5 40 6 61 3 36 -6 36 -7 13 -15 -16 -5 -7
-6 25 -3 28 3 88 9 135 13 l85 7 -70 6 c-52 5 -37 6 58 5 104 -1 131 -4 140
-17 8 -10 44 -20 102 -28 50 -7 104 -14 121 -17 18 -2 37 -11 44 -19 6 -8 33
-17 58 -20 77 -11 123 -25 145 -46 11 -10 26 -19 32 -19 10 0 130 -78 167
-109 7 -6 28 -23 46 -37 l33 -27 -3 -136 c-2 -75 -7 -144 -12 -155 -7 -14 -6
-18 5 -14 23 8 64 107 98 238 18 69 44 159 57 200 31 97 30 122 -10 258 -27
90 -41 121 -67 149 -31 32 -135 93 -158 93 -17 0 -112 48 -178 90 -52 33 -63
37 -73 24 -7 -8 -18 -14 -25 -14 -7 0 -16 -12 -20 -27 -4 -16 -10 -22 -12 -16
-2 7 7 34 21 60 13 27 28 59 31 73 19 67 38 91 96 121 32 16 63 38 69 48 5 11
10 47 10 81 l0 62 -50 -6 c-60 -7 -62 -1 -20 69 18 30 30 64 30 86 0 32 -5 39
-50 67 -62 38 -87 79 -95 151 -9 91 -51 298 -102 511 -15 63 -70 220 -80 230
-8 7 8 -82 18 -101 25 -49 88 -354 109 -534 13 -112 52 -224 101 -290 47 -63
52 -83 34 -119 -8 -15 -15 -41 -15 -56 0 -37 -26 -57 -88 -65 -29 -4 -59 -13
-67 -21 -7 -8 -19 -14 -25 -14 -6 0 -22 -7 -35 -16 -33 -21 -51 -13 -59 28
-10 51 -41 95 -85 118 -75 38 -175 19 -283 -53 -76 -51 -95 -62 -129 -82 -26
-14 -27 -14 -44 21 -16 34 -16 41 0 108 20 84 66 167 115 205 41 32 154 91
175 91 8 0 37 5 64 11 57 12 55 7 88 169 23 113 20 280 -7 435 -22 127 -27
227 -16 285 10 47 93 316 113 362 16 39 16 39 148 51 16 2 21 -5 23 -31 5 -47
-15 -164 -33 -198 -8 -16 -15 -42 -15 -59 0 -54 17 -12 81 197 10 29 7 58 -11
155 -28 145 -58 253 -59 208z m-48 -242 c-7 -2 -19 -2 -25 0 -7 3 -2 5 12 5
14 0 19 -2 13 -5z m-276 -1277 c0 -8 -13 -17 -28 -20 -14 -3 -40 -8 -55 -11
-23 -4 -20 -1 16 19 53 28 67 31 67 12z m-148 -490 c9 -11 1 -14 -45 -20 -31
-4 -59 -5 -61 -3 -5 6 60 37 78 37 9 0 22 -6 28 -14z m558 8 c-3 -3 -12 -4
-19 -1 -8 3 -5 6 6 6 11 1 17 -2 13 -5z m-263 -38 c62 -28 81 -33 108 -27 151
38 177 37 162 -2 -4 -13 -19 -17 -53 -17 -25 0 -52 -4 -60 -9 -8 -5 13 -7 53
-4 75 6 78 3 51 -64 l-15 -38 -73 -1 c-55 -1 -86 -8 -130 -28 -32 -14 -61 -26
-66 -26 -4 0 -44 22 -89 49 -83 50 -139 67 -257 78 -33 3 -61 6 -63 8 -1 1 2
14 7 27 6 16 20 27 38 31 15 3 60 17 98 31 106 38 192 36 289 -8z m-460 -111
c-4 -8 -10 -15 -15 -15 -5 0 -9 7 -9 15 0 8 7 15 15 15 9 0 12 -6 9 -15z m416
-144 c20 -39 12 -68 -26 -90 -19 -12 -37 -21 -40 -21 -8 0 -4 68 7 99 13 36
42 42 59 12z m-700 -71 c-25 -10 -58 -19 -75 -19 -16 0 -23 3 -15 6 8 2 24 8
35 13 35 15 49 18 75 19 19 0 15 -4 -20 -19z m-152 -57 c-10 -2 -26 -2 -35 0
-10 3 -2 5 17 5 19 0 27 -2 18 -5z m632 -44 c92 -18 130 -20 305 -14 168 5
204 4 225 -9 52 -31 77 -38 155 -39 97 -2 98 -3 130 -130 12 -50 32 -123 43
-162 11 -38 19 -71 18 -72 -1 -2 -18 11 -37 28 -49 44 -94 65 -170 78 -37 6
-99 25 -139 41 -40 17 -89 30 -109 30 -21 0 -71 8 -112 19 -41 10 -114 24
-164 31 -49 6 -105 19 -124 27 -29 13 -101 16 -487 17 -346 0 -456 -2 -466
-12 -21 -21 -38 -14 -38 18 0 46 35 74 107 89 34 6 74 18 90 25 15 8 80 22
143 32 243 37 446 38 630 3z m-149 -198 c-8 -5 -20 -7 -28 -4 -21 8 -15 13 15
13 20 0 23 -3 13 -9z m-44 -47 c-3 -3 -12 -4 -19 -1 -8 3 -5 6 6 6 11 1 17 -2
13 -5z"/>
<path d="M6960 8616 c0 -31 30 -106 36 -90 3 6 -1 24 -7 40 -7 16 -14 38 -16
48 -6 31 -13 32 -13 2z"/>
<path d="M8068 8553 c5 -68 -12 -206 -35 -293 -8 -30 -23 -89 -33 -130 -10
-41 -23 -93 -29 -115 -6 -22 -11 -51 -11 -64 l0 -24 25 29 c14 16 29 45 34 64
5 19 23 91 40 160 17 69 42 166 56 215 37 128 41 156 34 195 l-6 35 -2 -34
c-1 -30 -3 -33 -26 -27 -16 4 -25 2 -25 -6 0 -20 -18 5 -23 32 -2 14 -2 -3 1
-37z"/>
<path d="M7618 8604 c-7 -6 -3 -24 13 -59 4 -11 10 -36 12 -55 3 -19 3 -4 0
35 -3 66 -12 93 -25 79z"/>
<path d="M6686 8524 c-9 -24 -7 -54 4 -54 6 0 10 16 10 35 0 38 -4 44 -14 19z"/>
<path d="M7488 8473 c7 -3 16 -2 19 1 4 3 -2 6 -13 5 -11 0 -14 -3 -6 -6z"/>
<path d="M7540 8451 c0 -4 11 -13 25 -19 31 -14 35 -15 35 -3 0 5 -13 14 -30
20 -16 5 -30 6 -30 2z"/>
<path d="M6776 8272 c-3 -3 -6 -9 -6 -14 0 -12 40 -6 43 6 2 10 -29 17 -37 8z"/>
<path d="M6724 8213 c-10 -62 -11 -143 -1 -143 4 0 7 3 8 8 0 10 8 90 14 140
6 58 -11 53 -21 -5z"/>
<path d="M7136 8212 c-33 -4 -91 -39 -123 -73 -28 -32 -91 -150 -118 -223 -12
-33 -26 -61 -31 -63 -18 -6 -82 156 -69 176 3 5 -4 7 -15 4 -22 -6 -26 -18
-10 -28 6 -3 10 -15 10 -26 0 -21 11 -47 98 -229 71 -149 81 -179 115 -351 27
-132 35 -155 61 -167 14 -6 44 -24 68 -39 47 -30 60 -30 97 -2 13 11 62 31
108 46 67 20 94 35 130 69 47 46 68 53 168 57 l59 2 3 45 c2 25 1 73 -2 107
-6 57 -8 62 -33 65 -21 2 -30 13 -46 54 -22 53 -45 88 -54 80 -2 -3 -14 1 -26
9 -11 8 -32 15 -46 14 -20 0 -17 -4 19 -18 40 -16 91 -69 91 -94 0 -5 16 -41
35 -81 50 -105 29 -159 -32 -80 -63 82 -89 106 -137 132 -86 44 -137 63 -231
83 -101 21 -161 24 -201 9 -15 -6 -29 -8 -32 -5 -11 11 28 75 46 75 10 0 26 6
36 13 16 12 11 14 -38 15 -31 1 -72 9 -92 18 -38 18 -39 36 -2 84 24 30 50 39
103 33 22 -2 114 4 205 14 143 16 176 16 250 5 47 -7 95 -19 107 -27 24 -16
110 -20 132 -6 30 19 -23 140 -82 185 -54 41 -104 56 -185 56 -58 0 -97 7
-162 29 -94 32 -131 39 -174 33z m308 -684 c20 -28 21 -92 2 -111 -8 -8 -46
-22 -83 -32 -37 -9 -86 -23 -108 -31 -23 -8 -53 -14 -67 -14 -15 0 -39 -5 -54
-10 -59 -23 -80 -19 -93 15 -6 17 -10 51 -9 74 1 42 2 43 31 37 16 -3 41 -15
57 -26 21 -15 44 -20 94 -20 36 0 66 4 66 9 0 15 60 86 93 108 41 28 52 28 71
1z m-14 -178 c-8 -5 -22 -10 -30 -10 -13 0 -13 1 0 10 8 5 22 10 30 10 13 0
13 -1 0 -10z m-79 -65 c-30 -8 -77 -16 -105 -20 -43 -5 -48 -4 -31 6 27 17 71
26 135 26 l55 1 -54 -13z"/>
<path d="M7305 7420 c-3 -5 -1 -10 4 -10 6 0 11 5 11 10 0 6 -2 10 -4 10 -3 0
-8 -4 -11 -10z"/>
<path d="M3522 8165 c0 -41 16 -75 20 -43 6 45 2 88 -9 88 -7 0 -11 -17 -11
-45z"/>
<path d="M6491 8185 c-1 -11 -10 -26 -21 -33 -26 -16 -26 -32 0 -25 21 6 36
42 27 65 -3 7 -6 4 -6 -7z"/>
<path d="M6521 8112 c-6 -17 -7 -40 -2 -62 l9 -35 1 38 c1 21 6 47 11 57 6 11
6 21 1 24 -5 3 -14 -7 -20 -22z"/>
<path d="M6702 8040 c0 -14 2 -19 5 -12 2 6 2 18 0 25 -3 6 -5 1 -5 -13z"/>
<path d="M6252 8030 c0 -14 2 -19 5 -12 2 6 2 18 0 25 -3 6 -5 1 -5 -13z"/>
<path d="M6491 7964 c0 -11 3 -14 6 -6 3 7 2 16 -1 19 -3 4 -6 -2 -5 -13z"/>
<path d="M5438 7963 c17 -2 47 -2 65 0 17 2 3 4 -33 4 -36 0 -50 -2 -32 -4z"/>
<path d="M6703 7900 c0 -25 2 -35 4 -22 2 12 2 32 0 45 -2 12 -4 2 -4 -23z"/>
<path d="M3535 7798 c4 -40 10 -103 14 -140 9 -87 31 -115 31 -39 0 28 -4 71
-10 94 -5 23 -12 68 -15 100 -4 31 -11 57 -17 57 -7 0 -9 -23 -3 -72z"/>
<path d="M6025 7840 c-3 -5 -2 -10 4 -10 5 0 13 5 16 10 3 6 2 10 -4 10 -5 0
-13 -4 -16 -10z"/>
<path d="M6435 7799 c-4 -6 -5 -12 -2 -15 2 -3 7 2 10 11 7 17 1 20 -8 4z"/>
<path d="M5314 7648 c3 -10 -1 -24 -9 -32 -12 -12 -11 -15 8 -20 54 -14 61 -2
21 41 -16 17 -24 21 -20 11z"/>
<path d="M7895 7457 c-8 -31 0 -61 15 -52 12 8 13 45 1 64 -8 12 -11 9 -16
-12z"/>
<path d="M4965 7260 c-27 -7 -28 -8 -5 -8 14 0 34 3 45 8 25 11 2 11 -40 0z"/>
<path d="M5639 7197 l-24 -10 24 -5 c13 -2 30 3 38 10 12 12 12 15 0 15 -7 0
-25 -5 -38 -10z"/>
<path d="M4767 7103 c-10 -45 -20 -93 -22 -105 -8 -54 -25 -136 -35 -168 -12
-43 -13 -40 4 -40 16 0 46 114 46 174 0 19 4 37 9 41 13 8 23 80 19 135 -3 44
-3 43 -21 -37z"/>
<path d="M5352 7152 c-19 -3 -20 -5 -8 -18 8 -8 24 -14 35 -14 11 0 22 -4 25
-9 6 -9 196 26 210 40 8 7 -209 8 -262 1z"/>
<path d="M5257 7133 c-4 -3 -7 -15 -7 -25 0 -10 -4 -18 -10 -18 -5 0 -10 -7
-10 -16 0 -13 6 -15 27 -9 32 8 33 8 56 6 9 0 17 -9 17 -19 0 -11 9 -27 20
-37 11 -10 20 -26 20 -35 0 -22 50 -46 60 -29 6 8 9 8 13 -2 3 -11 7 -11 17
-2 15 14 11 16 -43 27 -17 4 -31 16 -37 30 -5 13 -14 27 -19 31 -6 3 -11 15
-11 26 0 20 -56 53 -72 43 -5 -3 -8 0 -8 5 0 6 5 11 11 11 5 0 7 5 4 10 -7 12
-19 13 -28 3z"/>
<path d="M7191 7114 c-19 -42 -24 -132 -13 -229 9 -77 7 -103 -10 -185 -32
-153 -33 -174 -9 -222 24 -49 97 -108 132 -108 39 1 68 33 80 91 23 109 -11
217 -95 298 -40 39 -44 59 -18 90 15 20 32 23 167 32 175 12 230 7 246 -23 9
-17 13 -18 20 -7 17 27 9 40 -34 58 -34 15 -69 19 -163 19 -65 0 -143 -4 -173
-10 -78 -15 -86 -4 -86 122 0 85 -2 100 -16 100 -9 0 -21 -12 -28 -26z m95
-440 c9 -23 14 -75 14 -160 0 -111 -2 -125 -15 -114 -8 7 -15 19 -15 26 0 8
-6 14 -14 14 -24 0 -34 23 -39 95 -3 39 -9 96 -13 127 -4 31 -4 64 0 73 5 15
9 14 37 -6 17 -12 38 -37 45 -55z"/>
<path d="M7243 6563 c-17 -6 -16 -30 1 -36 13 -5 46 21 46 36 0 8 -29 8 -47 0z"/>
<path d="M7150 7120 c0 -5 5 -10 11 -10 5 0 7 5 4 10 -3 6 -8 10 -11 10 -2 0
-4 -4 -4 -10z"/>
<path d="M7022 7085 c0 -16 2 -22 5 -12 2 9 2 23 0 30 -3 6 -5 -1 -5 -18z"/>
<path d="M5602 7035 c-11 -13 -9 -15 13 -15 34 0 60 -14 102 -56 19 -19 38
-32 44 -29 5 4 9 -2 9 -12 0 -10 14 -26 30 -35 28 -16 30 -16 30 0 -1 9 -24
35 -51 57 -28 22 -60 50 -72 62 -20 20 -67 44 -85 43 -4 -1 -13 -7 -20 -15z"/>
<path d="M5226 6965 c4 -8 11 -15 16 -15 6 0 5 6 -2 15 -7 8 -14 15 -16 15 -2
0 -1 -7 2 -15z"/>
<path d="M5250 6926 c0 -17 26 -39 40 -34 6 2 0 13 -14 26 -18 15 -26 18 -26
8z"/>
<path d="M5474 6919 c-3 -6 0 -17 8 -25 12 -13 19 -13 43 -2 22 10 29 10 33 0
2 -6 12 -12 23 -12 11 0 22 -6 25 -14 3 -7 23 -22 44 -32 21 -11 41 -26 43
-34 2 -8 16 -21 31 -29 22 -12 29 -12 39 -2 9 11 9 15 -1 18 -8 3 -29 18 -47
34 -18 16 -38 29 -43 29 -6 0 -25 14 -42 30 -24 23 -40 30 -70 30 -21 0 -42 5
-45 10 -8 13 -32 13 -41 -1z"/>
<path d="M5435 6900 c3 -5 8 -10 11 -10 2 0 4 5 4 10 0 6 -5 10 -11 10 -5 0
-7 -4 -4 -10z"/>
<path d="M5326 6863 c-5 -11 -1 -22 11 -30 10 -7 24 -17 31 -23 24 -21 13 26
-12 49 -22 20 -24 21 -30 4z"/>
<path d="M5873 6853 c-22 -8 -14 -21 12 -19 14 0 25 7 25 14 0 12 -15 15 -37
5z"/>
<path d="M7902 6830 c0 -14 2 -19 5 -12 2 6 2 18 0 25 -3 6 -5 1 -5 -13z"/>
<path d="M5975 6810 c-10 -11 -16 -22 -13 -25 3 -3 13 4 23 15 10 11 16 22 13
25 -3 3 -13 -4 -23 -15z"/>
<path d="M5486 6781 c-4 -6 -3 -18 2 -27 8 -15 10 -14 16 2 8 20 -8 42 -18 25z"/>
<path d="M5802 6743 c-20 -3 -32 -9 -29 -16 2 -7 16 -10 33 -8 34 4 44 9 44
22 0 5 -3 8 -7 7 -5 0 -23 -3 -41 -5z"/>
<path d="M4707 6733 c-4 -3 -7 -16 -7 -29 0 -12 -9 -61 -21 -109 -11 -48 -18
-99 -16 -113 3 -21 4 -18 6 11 0 20 5 37 9 37 10 0 36 125 34 163 -1 15 2 27
8 27 5 0 10 5 10 10 0 11 -13 13 -23 3z"/>
<path d="M4610 6555 c0 -8 2 -15 4 -15 2 0 6 7 10 15 3 8 1 15 -4 15 -6 0 -10
-7 -10 -15z"/>
<path d="M5010 6436 c0 -9 5 -16 10 -16 6 0 10 4 10 9 0 6 -4 13 -10 16 -5 3
-10 -1 -10 -9z"/>
<path d="M5605 5915 l-60 -12 56 -2 c39 -1 60 4 69 14 14 17 15 17 -65 0z"/>
<path d="M5490 5863 c0 -43 5 -41 13 5 4 18 2 32 -3 32 -6 0 -10 -16 -10 -37z"/>
<path d="M4696 5865 c-3 -8 -14 -15 -25 -15 -35 0 -46 -39 -29 -105 l11 -40
16 70 c14 59 20 71 39 73 12 2 22 10 22 18 0 19 -26 18 -34 -1z"/>
<path d="M7447 5756 c-4 -10 -7 -25 -6 -34 0 -11 4 -9 10 7 5 13 8 29 6 35 -2
5 -6 2 -10 -8z"/>
<path d="M5511 5724 c0 -11 3 -14 6 -6 3 7 2 16 -1 19 -3 4 -6 -2 -5 -13z"/>
<path d="M6040 5689 c-25 -5 -79 -12 -120 -17 l-75 -8 53 -7 c47 -7 59 -14
100 -58 26 -28 76 -71 112 -95 104 -70 157 -123 165 -167 10 -51 -11 -120 -52
-174 -48 -62 -103 -195 -103 -247 0 -25 17 -19 24 9 9 36 139 120 210 135 32
6 64 9 72 6 31 -12 -10 -32 -76 -39 -35 -4 -69 -12 -74 -17 -8 -8 2 -9 29 -5
144 20 135 20 135 -9 0 -38 -17 -66 -40 -66 -48 0 -231 -60 -257 -84 -17 -16
-28 -66 -14 -66 6 0 8 7 5 15 -4 11 5 20 30 30 20 9 40 13 45 11 4 -3 8 -31 9
-63 1 -32 6 -100 12 -151 14 -112 9 -132 -31 -132 l-29 0 -2 73 c0 39 -1 79 0
87 0 8 -8 40 -18 70 l-18 55 0 -60 c1 -125 -23 -282 -66 -434 -9 -30 -15 -56
-13 -57 1 -2 20 6 42 16 32 14 35 19 18 19 -13 1 -23 5 -23 11 0 5 10 10 23
10 12 0 45 3 74 6 48 5 53 8 63 39 12 37 75 99 111 110 29 9 137 58 200 91 78
41 77 41 98 -94 11 -66 17 -82 32 -82 14 0 11 70 -6 115 -8 22 -14 47 -15 56
-1 40 63 28 115 -21 21 -20 42 -29 72 -31 23 -2 45 -1 48 3 7 7 -52 57 -85 72
-14 6 -45 23 -70 38 -66 38 -85 42 -107 20 -10 -11 -40 -27 -68 -37 -27 -10
-59 -25 -70 -32 -11 -7 -26 -13 -35 -13 -9 0 -48 -16 -89 -35 -40 -19 -76 -35
-81 -35 -4 0 -7 62 -7 138 0 75 -5 157 -11 182 -8 34 -8 46 1 52 9 6 9 8 0 8
-21 0 -14 26 10 37 111 52 146 43 147 -39 1 -38 32 -173 43 -184 13 -14 7 88
-9 143 -12 40 -15 81 -12 147 7 127 57 292 95 310 11 5 28 23 38 40 l19 31 4
-27 c3 -29 -22 -88 -38 -88 -6 0 -10 -7 -10 -15 0 -8 5 -15 11 -15 8 0 10 -13
6 -37 -3 -21 1 -74 9 -118 8 -44 17 -102 21 -130 3 -27 9 -54 13 -60 4 -5 8
-30 9 -54 1 -52 7 -61 24 -37 7 9 28 18 47 21 60 7 133 37 185 76 28 20 70 47
95 59 25 13 57 31 72 41 14 11 33 19 41 19 8 0 24 16 36 35 11 19 26 35 33 35
7 1 23 9 35 19 22 18 22 23 14 110 -5 51 -10 94 -13 96 -3 3 -10 -26 -17 -65
-11 -61 -16 -70 -34 -70 -29 -1 -41 -9 -180 -113 -99 -73 -120 -86 -136 -77
-11 5 -32 10 -48 10 -33 0 -107 32 -119 51 -5 8 -7 84 -6 169 3 144 6 163 38
266 19 62 34 120 34 130 0 28 -79 59 -185 73 -49 7 -103 19 -120 28 -75 38
-299 62 -395 42z m606 -296 c-14 -29 -20 -34 -27 -22 -7 12 -9 11 -9 -3 0 -10
-17 -23 -47 -34 -55 -20 -88 -44 -61 -44 11 0 -9 -25 -52 -66 -84 -81 -126
-111 -176 -129 -34 -12 -39 -11 -42 2 -2 9 0 18 6 22 5 3 19 29 31 57 24 56
57 91 111 121 112 62 136 76 146 84 6 5 36 23 65 39 64 35 81 27 55 -27z m204
-506 c0 -16 -40 -36 -73 -38 -18 -1 -18 -2 -4 -6 34 -9 11 -27 -49 -39 -32 -6
-61 -10 -63 -8 -2 2 0 23 3 47 6 39 10 44 29 40 18 -3 64 2 150 16 4 0 7 -5 7
-12z m-620 -481 c0 -3 -4 -8 -10 -11 -5 -3 -10 -1 -10 4 0 6 5 11 10 11 6 0
10 -2 10 -4z"/>
<path d="M5518 5653 c5 -59 10 -63 11 -10 1 26 -3 47 -7 47 -4 0 -6 -17 -4
-37z"/>
<path d="M7590 5491 c0 -5 7 -11 15 -15 9 -3 15 0 15 9 0 8 -7 15 -15 15 -8 0
-15 -4 -15 -9z"/>
<path d="M6520 5065 c-29 -47 -20 -68 10 -24 13 19 28 36 32 37 13 6 9 22 -6
22 -8 0 -24 -16 -36 -35z"/>
<path d="M7255 5030 c-18 -8 -17 -9 7 -9 14 -1 35 -4 45 -7 16 -5 16 -4 -1 10
-22 18 -23 18 -51 6z"/>
<path d="M6358 4860 c-27 -8 -48 -18 -48 -21 0 -10 80 7 93 20 17 17 5 18 -45
1z"/>
<path d="M6588 4493 c7 -3 16 -2 19 1 4 3 -2 6 -13 5 -11 0 -14 -3 -6 -6z"/>
<path d="M6459 4440 c-13 -10 -20 -19 -16 -20 12 0 77 28 77 34 0 14 -40 4
-61 -14z"/>
<path d="M2810 3370 c0 -5 5 -10 10 -10 6 0 10 5 10 10 0 6 -4 10 -10 10 -5 0
-10 -4 -10 -10z"/>
<path d="M2607 3212 c-18 -11 -25 -22 -21 -34 3 -11 -3 -21 -16 -28 -29 -16
-19 -23 14 -11 14 6 26 17 26 26 0 8 4 15 9 15 10 0 26 38 19 45 -2 2 -16 -4
-31 -13z"/>
<path d="M3152 2975 c-31 -16 -38 -25 -21 -25 17 0 57 26 49 33 -3 2 -15 -2
-28 -8z"/>
<path d="M3042 2910 c0 -14 2 -19 5 -12 2 6 2 18 0 25 -3 6 -5 1 -5 -13z"/>
<path d="M7940 2892 c0 -7 4 -20 10 -30 5 -9 19 -44 31 -77 11 -33 40 -115 64
-182 24 -67 49 -148 56 -180 7 -32 18 -65 26 -74 7 -8 13 -20 13 -26 0 -12 17
-12 35 -1 19 11 122 31 136 25 9 -3 6 -6 -7 -6 -12 -1 -28 -8 -35 -17 -12 -15
-9 -16 40 -10 29 3 60 10 69 15 16 8 109 33 180 46 18 4 38 12 45 18 15 15 97
37 135 37 39 0 72 11 72 22 0 14 -212 4 -262 -12 -45 -13 -50 -29 -10 -31 15
-1 2 -5 -28 -9 -30 -4 -79 -11 -107 -15 -30 -4 -53 -4 -53 1 0 13 77 42 133
50 26 3 47 10 47 14 0 7 81 33 104 33 6 0 24 -3 39 -7 37 -9 34 6 -4 23 -23
10 -40 11 -72 3 -23 -6 -55 -13 -72 -16 -16 -2 -48 -9 -70 -15 -22 -5 -71 -14
-110 -20 -38 -6 -85 -13 -102 -17 -48 -10 -53 17 -15 72 l31 44 -31 35 c-32
37 -120 85 -155 85 -22 0 -29 12 -78 130 -29 69 -55 113 -55 92z m173 -286 c3
3 20 -4 36 -16 25 -17 31 -29 31 -56 0 -20 -5 -45 -11 -56 -11 -20 -11 -20
-33 3 -21 24 -43 73 -54 119 -4 21 -3 23 10 13 8 -7 18 -10 21 -7z"/>
<path d="M2459 2817 c-25 -23 -59 -49 -75 -56 -16 -8 -42 -25 -59 -36 -42 -30
-165 -95 -181 -95 -7 0 -43 -16 -81 -37 -86 -46 -201 -157 -278 -269 -33 -47
-66 -92 -72 -99 -7 -8 -13 -16 -13 -19 0 -3 -13 -24 -28 -48 -38 -59 -58 -102
-77 -173 -9 -33 -21 -71 -27 -85 -6 -14 -13 -62 -16 -108 -2 -45 -9 -85 -13
-88 -5 -3 -9 -13 -9 -23 0 -20 -16 -75 -60 -211 -16 -47 -38 -118 -50 -157
-12 -40 -26 -75 -31 -78 -5 -4 -9 -15 -9 -26 0 -10 -9 -28 -19 -38 -10 -10
-31 -39 -45 -62 -14 -24 -42 -61 -61 -83 -38 -41 -51 -84 -17 -53 10 10 22 17
26 17 9 0 64 58 96 101 14 18 39 50 57 69 58 66 210 406 240 540 3 14 9 30 13
35 4 6 11 26 15 45 9 47 86 202 111 225 7 5 17 28 24 50 16 53 71 154 128 234
55 78 380 404 425 427 48 25 110 78 130 113 25 42 11 38 -44 -12z"/>
<path d="M7811 2794 c0 -11 3 -14 6 -6 3 7 2 16 -1 19 -3 4 -6 -2 -5 -13z"/>
<path d="M3080 2753 c0 -29 2 -29 19 5 10 18 9 22 -4 22 -10 0 -15 -9 -15 -27z"/>
<path d="M7787 2715 c-23 -113 -35 -163 -44 -180 -14 -25 -50 -166 -68 -265
-7 -41 -23 -93 -34 -115 -12 -21 -21 -51 -21 -66 0 -15 -6 -32 -14 -39 -8 -6
-17 -19 -19 -28 -3 -9 -3 4 0 31 2 26 0 47 -4 47 -14 -1 -50 -35 -63 -60 -13
-24 -7 -33 37 -58 7 -4 14 -18 15 -32 3 -21 -2 -25 -37 -31 -24 -4 -45 -3 -53
4 -8 6 -16 7 -22 1 -9 -9 6 -36 107 -190 24 -37 73 -147 73 -165 0 -10 5 -21
12 -25 8 -5 9 -2 4 12 -4 10 -7 65 -7 121 1 56 -4 114 -9 128 -8 20 -6 48 6
104 9 42 18 87 21 101 8 45 34 164 48 220 18 71 38 220 31 228 -3 3 -2 10 3
16 12 14 54 241 49 258 -3 7 -8 0 -11 -17z"/>
<path d="M2602 2539 c2 -7 10 -15 17 -17 8 -3 12 1 9 9 -2 7 -10 15 -17 17 -8
3 -12 -1 -9 -9z"/>
<path d="M7480 2511 c0 -5 5 -13 10 -16 6 -3 10 -2 10 4 0 5 -4 13 -10 16 -5
3 -10 2 -10 -4z"/>
<path d="M7603 2453 c-7 -15 -11 -28 -9 -31 6 -6 28 38 24 48 -2 5 -9 -3 -15
-17z"/>
<path d="M7565 2420 c-3 -5 -1 -10 4 -10 6 0 11 5 11 10 0 6 -2 10 -4 10 -3 0
-8 -4 -11 -10z"/>
<path d="M7591 2394 c0 -11 3 -14 6 -6 3 7 2 16 -1 19 -3 4 -6 -2 -5 -13z"/>
<path d="M7640 2362 c0 -16 -7 -37 -15 -48 -8 -10 -15 -40 -15 -66 0 -60 -21
-64 -70 -13 -19 19 -38 35 -43 35 -5 0 -25 14 -44 30 -18 17 -44 30 -56 30
-22 -1 -22 -1 4 -23 14 -12 49 -50 79 -85 37 -44 60 -62 73 -60 15 2 21 -3 22
-19 5 -63 45 -23 45 44 0 24 4 43 10 43 9 0 14 23 24 113 3 28 2 47 -4 47 -6
0 -10 -13 -10 -28z"/>
<path d="M7340 2370 c0 -5 5 -10 10 -10 6 0 10 5 10 10 0 6 -4 10 -10 10 -5 0
-10 -4 -10 -10z"/>
<path d="M7220 2326 c0 -8 11 -17 24 -20 35 -9 106 -78 106 -103 0 -12 5 -25
10 -28 6 -3 10 -14 10 -24 0 -15 56 -76 87 -95 13 -7 53 9 65 27 3 5 1 17 -5
25 -33 41 -193 182 -208 182 -5 0 -20 11 -35 25 -30 28 -54 33 -54 11z"/>
<path d="M7370 2044 c0 -16 23 -44 35 -44 8 0 15 -9 15 -19 0 -28 17 -35 29
-12 15 27 5 47 -34 65 -35 17 -45 19 -45 10z"/>
<path d="M8515 2010 c3 -5 11 -10 16 -10 6 0 7 5 4 10 -3 6 -11 10 -16 10 -6
0 -7 -4 -4 -10z"/>
<path d="M8560 1970 c14 -11 32 -19 40 -19 9 0 6 5 -7 11 -13 6 -23 15 -23 20
0 4 -8 8 -17 8 -15 0 -13 -4 7 -20z"/>
<path d="M7470 1965 c0 -8 7 -15 15 -15 9 0 12 6 9 15 -4 8 -10 15 -15 15 -5
0 -9 -7 -9 -15z"/>
<path d="M2240 1954 l-25 -15 25 7 c28 7 35 12 29 18 -2 2 -15 -2 -29 -10z"/>
<path d="M8450 1911 c0 -5 7 -11 14 -14 10 -4 13 -1 9 9 -6 15 -23 19 -23 5z"/>
<path d="M2120 1889 c-19 -10 -45 -19 -57 -19 -23 0 -133 -68 -133 -82 0 -4 8
-11 18 -17 16 -9 16 -10 0 -16 -10 -4 -18 -16 -18 -27 0 -17 3 -18 15 -8 8 7
15 18 15 25 0 26 57 75 120 104 73 32 115 61 90 60 -8 0 -31 -9 -50 -20z"/>
<path d="M8470 1861 c0 -12 7 -38 16 -59 l16 -37 13 35 c17 45 17 50 3 50 -6
0 -20 7 -30 17 -17 15 -18 15 -18 -6z"/>
<path d="M2725 1813 c-29 -35 -60 -93 -49 -93 3 0 21 16 39 36 25 27 39 34 54
29 12 -3 21 -2 21 2 0 13 -24 63 -30 62 -3 0 -18 -17 -35 -36z"/>
<path d="M299 1782 c-69 -72 -110 -130 -116 -167 -5 -30 -3 -37 8 -33 8 3 14
9 14 14 2 31 31 85 65 119 21 22 39 46 40 53 0 6 3 12 8 12 4 0 13 9 20 20 19
31 1 22 -39 -18z"/>
<path d="M8120 1780 c0 -5 5 -10 10 -10 6 0 10 5 10 10 0 6 -4 10 -10 10 -5 0
-10 -4 -10 -10z"/>
<path d="M8120 1729 c0 -11 5 -17 10 -14 6 3 10 13 10 21 0 8 -4 14 -10 14 -5
0 -10 -9 -10 -21z"/>
<path d="M8136 1653 c9 -52 14 -54 14 -5 0 23 -5 42 -10 42 -7 0 -8 -14 -4
-37z"/>
<path d="M1876 1647 c9 -30 24 -47 40 -47 19 0 18 16 -1 24 -8 3 -15 12 -15
20 0 7 -7 17 -16 20 -12 5 -14 1 -8 -17z"/>
<path d="M1950 1561 c0 -5 5 -13 10 -16 6 -3 10 -2 10 4 0 5 -4 13 -10 16 -5
3 -10 2 -10 -4z"/>
<path d="M5400 1560 c-11 -7 -5 -10 23 -10 20 0 37 5 37 10 0 13 -40 13 -60 0z"/>
<path d="M230 1522 c0 -5 7 -15 15 -22 8 -7 15 -8 15 -2 0 5 -7 15 -15 22 -8
7 -15 8 -15 2z"/>
<path d="M7661 1520 c0 -8 4 -22 9 -30 12 -18 12 -2 0 25 -6 13 -9 15 -9 5z"/>
<path d="M276 1477 c3 -10 9 -15 12 -12 3 3 0 11 -7 18 -10 9 -11 8 -5 -6z"/>
<path d="M380 1390 c14 -11 32 -27 41 -35 9 -8 21 -15 27 -15 7 0 12 -5 12
-11 0 -5 5 -7 12 -3 8 5 4 11 -13 18 -13 6 -33 20 -44 32 -11 11 -29 24 -40
27 -16 6 -15 3 5 -13z"/>
<path d="M8155 1337 c-39 -13 -58 -28 -47 -39 8 -8 69 8 87 23 17 16 -9 27
-40 16z"/>
<path d="M490 1313 c8 -3 19 -12 23 -19 4 -8 15 -14 22 -14 8 0 15 -5 15 -11
0 -5 5 -7 10 -4 12 7 -54 55 -73 54 -7 0 -5 -3 3 -6z"/>
<path d="M603 1240 c2 -8 12 -16 23 -17 13 -2 15 -1 4 4 -8 3 -19 11 -23 17
-6 7 -7 6 -4 -4z"/>
<path d="M660 1207 c8 -7 29 -19 45 -25 28 -11 28 -11 11 3 -11 8 -26 15 -33
15 -7 0 -13 5 -13 10 0 6 -5 10 -12 10 -8 0 -8 -4 2 -13z"/>
<path d="M765 1150 c-3 -5 -1 -10 4 -10 6 0 11 5 11 10 0 6 -2 10 -4 10 -3 0
-8 -4 -11 -10z"/>
<path d="M4741 1144 c0 -11 3 -14 6 -6 3 7 2 16 -1 19 -3 4 -6 -2 -5 -13z"/>
<path d="M832 1116 c26 -12 54 -28 62 -35 8 -7 21 -11 28 -8 9 4 7 6 -4 6 -9
1 -18 5 -20 9 -4 11 -86 52 -101 51 -7 0 9 -11 35 -23z"/>
<path d="M4662 1055 c0 -16 2 -22 5 -12 2 9 2 23 0 30 -3 6 -5 -1 -5 -18z"/>
<path d="M940 1062 c0 -6 15 -16 33 -23 17 -7 35 -14 40 -17 4 -2 7 1 7 6 0 6
-15 16 -32 23 -18 7 -36 14 -40 17 -5 2 -8 -1 -8 -6z"/>
<path d="M1045 1006 c11 -7 31 -17 45 -20 23 -7 23 -6 -5 13 -16 12 -37 21
-45 21 -10 0 -9 -4 5 -14z"/>
<path d="M1170 954 c8 -4 17 -10 20 -13 9 -12 197 -101 211 -101 21 1 -21 30
-43 30 -10 0 -18 5 -18 10 0 6 -6 10 -14 10 -8 0 -21 6 -28 13 -7 8 -27 17
-43 21 -16 4 -32 11 -35 16 -3 5 -19 11 -35 14 -17 3 -23 3 -15 0z"/>
<path d="M4280 930 c-3 -8 -3 -55 0 -105 l5 -90 13 43 c9 31 10 52 3 80 -6 20
-12 48 -13 62 -2 16 -5 20 -8 10z"/>
<path d="M5751 844 c0 -11 3 -14 6 -6 3 7 2 16 -1 19 -3 4 -6 -2 -5 -13z"/>
<path d="M1420 831 c0 -6 9 -9 20 -8 11 1 20 5 20 9 0 4 -9 8 -20 8 -11 0 -20
-4 -20 -9z"/>
<path d="M4320 681 c0 -5 4 -20 9 -33 5 -13 12 -31 15 -41 3 -10 11 -15 16
-12 7 4 8 11 1 18 -5 7 -11 25 -13 41 -3 27 -28 51 -28 27z"/>
<path d="M4648 313 c6 -2 18 -2 25 0 6 3 1 5 -13 5 -14 0 -19 -2 -12 -5z"/>
</g>
</svg>
